<svg width="30" height="30" viewBox="0 0 30 30" fill="none" xmlns="http://www.w3.org/2000/svg">
<path fill-rule="evenodd" clip-rule="evenodd" d="M3.93719 3.31529C3.93719 2.25017 4.80065 1.38672 5.86577 1.38672H24.1344C25.1995 1.38672 26.0629 2.25017 26.0629 3.31529V24.7192H26.063V25.2192V28.113V28.613H25.563H6.45433C6.19479 28.613 5.94711 28.5622 5.72068 28.4701C4.68295 28.1134 3.93719 27.1288 3.93719 25.9701V3.31529ZM25.0629 25.7192V27.6129H6.58005C6.40334 27.6129 6.23315 27.585 6.07364 27.5334C5.74025 27.3868 5.50744 27.0537 5.50744 26.6661C5.50744 26.1432 5.93138 25.7192 6.45433 25.7192H25.0629ZM25.0629 24.7192H6.45433C5.84108 24.7192 5.29406 25.0028 4.93719 25.4459V3.31529C4.93719 2.80245 5.35293 2.38672 5.86577 2.38672H17.0843C17.0706 2.45974 17.0634 2.53506 17.0634 2.61206V5.96448C17.0634 6.63511 17.6071 7.17877 18.2777 7.17877H18.3497C18.4741 7.17877 18.594 7.13243 18.686 7.04879L19.8257 6.01298L20.9655 7.04879C21.0575 7.13243 21.1774 7.17877 21.3017 7.17877H21.3737C22.0444 7.17877 22.588 6.63511 22.588 5.96448V2.61206C22.588 2.53506 22.5809 2.45974 22.5672 2.38672H24.1344C24.6472 2.38672 25.0629 2.80245 25.0629 3.31529V24.7192ZM18.2777 2.39778C18.1594 2.39778 18.0634 2.49372 18.0634 2.61206V5.96448C18.0634 6.04823 18.1115 6.12076 18.1815 6.15601L19.4894 4.96733C19.6801 4.79402 19.9713 4.79402 20.162 4.96733L21.47 6.15601C21.54 6.12076 21.588 6.04823 21.588 5.96448V2.61206C21.588 2.49372 21.4921 2.39778 21.3737 2.39778H18.2777ZM19.4449 9.33198C19.2907 9.37741 19.1859 9.52025 19.1888 9.68097L19.2016 10.3947L18.0669 11.5294C18.0514 11.5406 18.0365 11.5531 18.0226 11.5671L15.9728 13.6168L16.9897 14.6337L19.0394 12.584C19.0524 12.5711 19.0641 12.5574 19.0746 12.5431L20.2286 11.3892L20.9092 11.4014C21.0699 11.4043 21.2128 11.2994 21.2582 11.1453L21.8776 9.04333C21.9052 8.94978 21.8795 8.84864 21.8105 8.77968C21.7415 8.71072 21.6404 8.68496 21.5468 8.71253L19.4449 9.33198ZM17.6463 15.2903L19.9486 12.9881L20.6032 12.3334C20.6038 12.3329 20.604 12.3321 20.604 12.3313C20.604 12.3306 20.6037 12.33 20.6032 12.3295C20.6014 12.3277 20.6027 12.3246 20.6052 12.3246L21.5999 12.3425C21.7606 12.3454 21.9035 12.2406 21.9489 12.0864L22.909 8.82847C22.946 8.70304 22.9114 8.56743 22.819 8.47497L22.1152 7.77119C22.0227 7.67872 21.8871 7.64419 21.7617 7.68115L18.5038 8.64127C18.3496 8.68671 18.2448 8.82955 18.2477 8.99026L18.2633 9.85879C18.265 9.95572 18.2273 10.0492 18.1587 10.1177L17.6185 10.658L15.3162 12.9602L13.4829 11.1269C13.7105 10.1143 13.4306 9.0093 12.6413 8.22007C11.6759 7.25463 10.2383 7.05112 9.07374 7.60712L8.52671 7.86829L8.95534 8.29692L10.3826 9.72419L9.71291 10.3939L8.28538 8.96635L7.85693 8.53791L7.59565 9.08459C7.03895 10.2494 7.24228 11.6876 8.20804 12.6533C8.99718 13.4425 10.102 13.7224 11.1145 13.495L12.4221 14.8025L7.80786 19.4167C6.9908 20.2338 6.9908 21.5585 7.80786 22.3756C8.62493 23.1927 9.94965 23.1927 10.7667 22.3756L15.3809 17.7614L16.5266 18.9071C16.2993 19.9196 16.5793 21.0243 17.3684 21.8134C18.3341 22.7791 19.7723 22.9825 20.9371 22.4258L21.4837 22.1645L21.0553 21.7361L19.5541 20.2348L20.2238 19.5651L21.7248 21.0661L22.1534 21.4948L22.4146 20.9477C22.9706 19.7832 22.7671 18.3456 21.8016 17.3801C21.0123 16.5908 19.9073 16.3109 18.8946 16.5386L17.6463 15.2903ZM14.6233 17.0038L13.1797 15.5602L8.56548 20.1744C8.16683 20.573 8.16684 21.2193 8.56548 21.618C8.96412 22.0166 9.61045 22.0166 10.0091 21.618L14.6233 17.0038ZM11.0392 9.1686L10.0589 8.18833C10.7571 8.0754 11.4974 8.28838 12.0352 8.82616C12.6569 9.44784 12.8447 10.3399 12.5962 11.1257L12.5177 11.3739L12.7018 11.558L18.4635 17.3197L18.6476 17.5038L18.8958 17.4253C19.6816 17.1767 20.5738 17.3645 21.1955 17.9862C21.7333 18.524 21.9463 19.2644 21.8334 19.9626L20.7793 18.9085C20.4725 18.6017 19.975 18.6017 19.6682 18.9085L18.8975 19.6793C18.5906 19.9861 18.5906 20.4836 18.8975 20.7904L19.952 21.8449C19.2534 21.9583 18.5125 21.7454 17.9744 21.2073C17.3529 20.5857 17.1651 19.6939 17.4133 18.9082L17.4917 18.66L17.3077 18.476L11.5456 12.7139L11.3616 12.5299L11.1134 12.6083C10.3277 12.8567 9.43574 12.6689 8.81413 12.0473C8.27602 11.5091 8.06311 10.7682 8.17651 10.0697L9.15733 11.0505C9.46417 11.3573 9.96165 11.3573 10.2685 11.0505L11.0392 10.2798C11.3461 9.97293 11.346 9.47544 11.0392 9.1686Z" fill="black"/>
</svg>
