<svg width="30" height="30" viewBox="0 0 30 30" fill="none" xmlns="http://www.w3.org/2000/svg">
<path d="M17.8106 15.0771L19.793 18.5109H15.8281L17.8106 15.0771Z" stroke="black" stroke-linejoin="round"/>
<rect x="21.6763" y="15.3994" width="2.78881" height="2.78881" stroke="black" stroke-linejoin="round"/>
<rect x="21.0986" y="22.2368" width="2.78881" height="2.78881" transform="rotate(-45 21.0986 22.2368)" stroke="black" stroke-linejoin="round"/>
<circle cx="17.8103" cy="22.2371" r="1.77663" stroke="black" stroke-linejoin="round"/>
<circle cx="20.4354" cy="19.6425" r="7.57363" stroke="black"/>
<path fill-rule="evenodd" clip-rule="evenodd" d="M20.065 6.9938V7.3158V12.0777C19.7253 12.0941 19.3915 12.1328 19.065 12.1925V9.06119C18.5862 9.5055 17.9706 9.88608 17.2869 10.1964C15.6594 10.9352 13.4462 11.3791 11.0282 11.3791C8.61025 11.3791 6.39699 10.9352 4.76949 10.1964C4.0856 9.88595 3.46974 9.50519 2.99088 9.06065L2.99082 13.3144C2.9957 13.8135 3.49001 14.5885 5.05105 15.2972C6.52915 15.9682 8.64136 16.4093 11.0279 16.4093C11.96 16.4093 12.8502 16.342 13.6772 16.22C13.504 16.5613 13.356 16.9174 13.2354 17.286C12.5289 17.3666 11.7894 17.4093 11.0279 17.4093C7.52741 17.4093 4.49177 16.5055 2.99079 15.184L2.99072 20.429L2.99072 20.4291V20.4293C2.99108 20.9283 3.48296 21.7074 5.05142 22.4194C6.52951 23.0905 8.64154 23.5317 11.0278 23.5317C12.0115 23.5317 12.9485 23.4567 13.8138 23.3216C13.9915 23.6408 14.1916 23.9457 14.4119 24.2344C13.3667 24.4261 12.2244 24.5317 11.0278 24.5317C6.0372 24.5317 1.99141 22.6947 1.99072 20.4293L1.99082 13.318L1.99078 13.3062H1.99082L1.9909 7.31179L1.99091 6.9938L1.99091 6.87417C2.00448 4.61373 6.04532 2.7832 11.028 2.7832C16.0191 2.7832 20.0651 4.61991 20.0651 6.88559L20.065 6.90969V6.9938ZM2.99091 6.8778C2.99546 6.3782 3.4928 5.60093 5.05852 4.89199C6.53635 4.22285 8.64553 3.7832 11.028 3.7832C13.4145 3.7832 15.5268 4.22435 17.0049 4.89534C18.5737 5.60751 19.0651 6.38673 19.0651 6.88559L19.065 6.89709L19.065 6.89709V6.90969V7.22889C18.9354 7.9219 18.2338 8.66836 16.8736 9.28584C15.4034 9.95323 13.3372 10.3791 11.0282 10.3791C8.71923 10.3791 6.65305 9.95323 5.18284 9.28584C3.82068 8.66748 3.119 7.91977 2.9909 7.22592L2.99089 6.88017L2.99091 6.8778Z" fill="black"/>
<circle cx="4.86632" cy="12.4313" r="0.538199" fill="black"/>
<circle cx="4.86632" cy="19.2633" r="0.538199" fill="black"/>
</svg>
