<svg width="30" height="30" viewBox="0 0 30 30" fill="none" xmlns="http://www.w3.org/2000/svg">
<path fill-rule="evenodd" clip-rule="evenodd" d="M23.9282 2.77144L22.5208 3.93098C21.7822 4.53951 20.716 4.53951 19.9773 3.93098L18.1245 2.40446L16.2716 3.93099C15.533 4.53951 14.4668 4.53951 13.7281 3.93098L11.8745 2.40388L10.0212 3.93077C9.28259 4.5393 8.21639 4.5393 7.47777 3.93077L6.07178 2.77242V27.7517L7.86852 26.1576C8.62585 25.4857 9.7658 25.4857 10.5231 26.1576L12.0979 27.5547L13.6727 26.1576C14.43 25.4857 15.57 25.4857 16.3273 26.1576L17.9016 27.5543L19.4758 26.1576C20.2332 25.4857 21.3731 25.4857 22.1305 26.1576L23.9282 27.7526V2.77144ZM24.2605 1.20203C24.3336 1.14182 24.4253 1.10889 24.52 1.10889C24.7455 1.10889 24.9282 1.29164 24.9282 1.51707V28.0041C24.9282 28.4939 24.5311 28.891 24.0413 28.891C23.8244 28.891 23.615 28.8115 23.4527 28.6675L21.4668 26.9057C21.0881 26.5697 20.5182 26.5697 20.1395 26.9057L17.9018 28.8909L15.6637 26.9057C15.285 26.5697 14.715 26.5697 14.3364 26.9057L12.0991 28.8905V28.8905L12.0979 28.891L12.0968 28.8905L9.85947 26.9057C9.48081 26.5697 8.91083 26.5697 8.53217 26.9057L6.54606 28.6677C6.38392 28.8115 6.17469 28.891 5.95795 28.891C5.46853 28.891 5.07178 28.4942 5.07178 28.0048V1.51619C5.07178 1.29124 5.25413 1.10889 5.47908 1.10889C5.57358 1.10889 5.66514 1.14174 5.73808 1.20183L8.11363 3.15897C8.48294 3.46323 9.01604 3.46323 9.38535 3.15897L11.8731 1.1094L11.8745 1.10889L11.876 1.1094L14.364 3.15918C14.7333 3.46344 15.2664 3.46344 15.6357 3.15918L18.1243 1.10896L20.6132 3.15918C20.9825 3.46344 21.5156 3.46344 21.8849 3.15918L24.2605 1.20203Z" fill="black"/>
<path fill-rule="evenodd" clip-rule="evenodd" d="M14.9994 21.2728C18.4641 21.2728 21.2728 18.4641 21.2728 14.9994C21.2728 11.5347 18.4641 8.72607 14.9994 8.72607C11.5347 8.72607 8.72607 11.5347 8.72607 14.9994C8.72607 18.4641 11.5347 21.2728 14.9994 21.2728ZM14.9994 22.2728C19.0164 22.2728 22.2728 19.0164 22.2728 14.9994C22.2728 10.9825 19.0164 7.72607 14.9994 7.72607C10.9825 7.72607 7.72607 10.9825 7.72607 14.9994C7.72607 19.0164 10.9825 22.2728 14.9994 22.2728Z" fill="black"/>
<path d="M12.2558 16.9056C12.2017 16.5967 12.4632 16.3605 12.7768 16.3605C13.1055 16.3605 13.3621 16.6243 13.4921 16.9262C13.5743 17.1172 13.6935 17.2854 13.8497 17.4308C14.1555 17.706 14.5938 17.8436 15.1647 17.8436C15.5113 17.8436 15.7814 17.7978 15.9751 17.706C16.1789 17.6143 16.3268 17.492 16.4185 17.3391C16.5102 17.176 16.5561 16.9976 16.5561 16.8039C16.5561 16.5694 16.4949 16.386 16.3726 16.2534C16.2605 16.1107 16.1025 15.9935 15.8986 15.9018C15.7049 15.81 15.4807 15.7234 15.2258 15.6418C14.9302 15.5297 14.6244 15.4125 14.3084 15.2901C14.0026 15.1576 13.7121 15.0047 13.4369 14.8314C13.1718 14.6479 12.9578 14.4288 12.7947 14.1739C12.6316 13.9089 12.55 13.5929 12.55 13.2259C12.55 12.9201 12.6112 12.6347 12.7335 12.3697C12.8558 12.0944 13.0291 11.86 13.2534 11.6663C13.4878 11.4624 13.758 11.3044 14.0638 11.1923C14.3798 11.0802 14.7264 11.0241 15.1035 11.0241C15.6132 11.0241 16.0413 11.1261 16.3879 11.3299C16.7447 11.5338 17.0148 11.8243 17.1983 12.2015C17.3127 12.4182 17.3951 12.6564 17.4455 12.9158C17.5055 13.225 17.2453 13.4859 16.9304 13.4859C16.6534 13.4859 16.4281 13.2799 16.3349 13.019C16.2546 12.7942 16.1449 12.6186 16.0057 12.492C15.7916 12.2779 15.4807 12.1709 15.0729 12.1709C14.655 12.1709 14.3339 12.2626 14.1096 12.4461C13.8854 12.6296 13.7733 12.8743 13.7733 13.1801C13.7733 13.4043 13.8548 13.5929 14.0179 13.7458C14.181 13.8885 14.39 14.021 14.6448 14.1434C14.9098 14.2555 15.1902 14.3727 15.4858 14.495C15.7814 14.6174 16.0668 14.7397 16.342 14.862C16.6173 14.9843 16.8619 15.127 17.076 15.2901C17.2901 15.4532 17.4582 15.6571 17.5806 15.9018C17.7131 16.1362 17.7793 16.4318 17.7793 16.7886C17.7793 17.2167 17.6774 17.599 17.4735 17.9354C17.2799 18.2616 16.9893 18.5164 16.602 18.6999C16.2248 18.8834 15.761 18.9751 15.2106 18.9751C14.7111 18.9751 14.2829 18.914 13.9262 18.7916C13.5796 18.6591 13.2891 18.4909 13.0546 18.2871C12.8202 18.073 12.6367 17.8487 12.5042 17.6143C12.3818 17.3798 12.3003 17.1505 12.2595 16.9262C12.2582 16.9193 12.257 16.9125 12.2558 16.9056Z" fill="black"/>
<path fill-rule="evenodd" clip-rule="evenodd" d="M14.9991 18.2667C15.2753 18.2667 15.4991 18.4906 15.4991 18.7667V20.0219C15.4991 20.298 15.2753 20.5219 14.9991 20.5219C14.723 20.5219 14.4991 20.298 14.4991 20.0219V18.7667C14.4991 18.4906 14.723 18.2667 14.9991 18.2667Z" fill="black"/>
<path fill-rule="evenodd" clip-rule="evenodd" d="M14.999 9.47706C15.2751 9.47706 15.499 9.70091 15.499 9.97706V11.2322C15.499 11.5084 15.2751 11.7322 14.999 11.7322C14.7229 11.7322 14.499 11.5084 14.499 11.2322V9.97706C14.499 9.70091 14.7229 9.47706 14.999 9.47706Z" fill="black"/>
</svg>
