<svg width="30" height="30" viewBox="0 0 30 30" fill="none" xmlns="http://www.w3.org/2000/svg">
<path fill-rule="evenodd" clip-rule="evenodd" d="M7.96606 3.37646H14.1185C14.8807 3.37646 15.4986 3.99437 15.4986 4.75659V5.13833C15.4986 5.90055 14.8807 6.51845 14.1185 6.51845H7.96606C7.20384 6.51845 6.58594 5.90055 6.58594 5.13833V4.75659C6.58594 3.99437 7.20384 3.37646 7.96606 3.37646ZM5.60579 4.44775C5.7572 3.27915 6.75622 2.37646 7.96606 2.37646H14.1185C15.3283 2.37646 16.3274 3.27915 16.4788 4.44775H18.9758C19.8041 4.44775 20.4758 5.11901 20.4758 5.94756V8.76927V11.9649C20.4758 12.241 20.2519 12.4649 19.9758 12.4649C19.6997 12.4649 19.4758 12.241 19.4758 11.9649V8.76927V5.94756C19.4758 5.67155 19.2521 5.44775 18.9758 5.44775H16.4787C16.4787 5.44775 16.4787 5.44775 16.4787 5.44775C16.327 6.61607 15.3281 7.51845 14.1185 7.51845H7.96606C6.75642 7.51845 5.75754 6.61607 5.60587 5.44775H3.10938C2.83323 5.44775 2.60938 5.67161 2.60938 5.94775V26.1233C2.60938 26.3995 2.83323 26.6233 3.10938 26.6233H11.0426H14.1815H15.7461C16.0222 26.6233 16.2461 26.8472 16.2461 27.1233C16.2461 27.3995 16.0222 27.6233 15.7461 27.6233H14.1815H11.0426H3.10938C2.28095 27.6233 1.60938 26.9518 1.60938 26.1233V5.94775C1.60938 5.11933 2.28095 4.44775 3.10938 4.44775H5.60579ZM5.07538 12.1279C5.07538 11.8518 5.29924 11.6279 5.57538 11.6279H17.6737C17.9499 11.6279 18.1737 11.8518 18.1737 12.1279C18.1737 12.4041 17.9499 12.6279 17.6737 12.6279H5.57538C5.29924 12.6279 5.07538 12.4041 5.07538 12.1279ZM5.07529 16.5712C5.07529 16.2951 5.29914 16.0712 5.57529 16.0712H15.0628C15.339 16.0712 15.5628 16.2951 15.5628 16.5712C15.5628 16.8473 15.339 17.0712 15.0628 17.0712H5.57529C5.29914 17.0712 5.07529 16.8473 5.07529 16.5712ZM5.57529 20.835C5.29914 20.835 5.07529 21.0589 5.07529 21.335C5.07529 21.6112 5.29914 21.835 5.57529 21.835H12.4868C12.763 21.835 12.9868 21.6112 12.9868 21.335C12.9868 21.0589 12.763 20.835 12.4868 20.835H5.57529ZM20.4922 14.3335C20.4922 14.0574 20.716 13.8335 20.9922 13.8335H23.5736C23.8498 13.8335 24.0736 14.0574 24.0736 14.3335V15.4377C24.3236 15.5234 24.5652 15.6268 24.7972 15.7464L25.5029 15.0407C25.5966 14.9469 25.7238 14.8942 25.8564 14.8942C25.989 14.8942 26.1162 14.9469 26.21 15.0407L28.0353 16.866C28.2306 17.0613 28.2306 17.3779 28.0353 17.5731L27.2638 18.3446C27.3341 18.5006 27.3973 18.6604 27.453 18.8238H28.3917C28.6678 18.8238 28.8917 19.0476 28.8917 19.3238V21.9052C28.8917 22.1813 28.6678 22.4052 28.3917 22.4052H27.4259C27.3674 22.5687 27.3013 22.7286 27.2281 22.8844L27.9221 23.5784C28.1173 23.7737 28.1173 24.0903 27.9221 24.2855L26.0967 26.1109C25.9015 26.3061 25.5849 26.3061 25.3896 26.1109L24.7219 25.4432C24.5132 25.5467 24.2968 25.6373 24.0738 25.7138V26.6809C24.0738 26.9571 23.8499 27.1809 23.5738 27.1809H20.9924C20.7162 27.1809 20.4924 26.9571 20.4924 26.6809V25.6939C20.2348 25.6024 19.9862 25.492 19.7483 25.3644L19.002 26.1107C18.8067 26.306 18.4901 26.306 18.2949 26.1107L16.4695 24.2854C16.3757 24.1916 16.3231 24.0644 16.3231 23.9318C16.3231 23.7992 16.3757 23.6721 16.4695 23.5783L17.3229 22.7249C17.2777 22.62 17.2356 22.5134 17.1969 22.4052H15.9951C15.719 22.4052 15.4951 22.1813 15.4951 21.9052V19.3238C15.4951 19.0476 15.719 18.8238 15.9951 18.8238H17.1699C17.2252 18.6613 17.2881 18.5023 17.3579 18.3472L16.5839 17.5731C16.4901 17.4794 16.4375 17.3522 16.4375 17.2196C16.4375 17.087 16.4901 16.9598 16.5839 16.866L18.4093 15.0407C18.503 14.9469 18.6302 14.8942 18.7628 14.8942C18.8954 14.8942 19.0226 14.9469 19.1164 15.0407L19.8233 15.7476C20.0383 15.6366 20.2616 15.5396 20.4922 15.4576V14.3335ZM21.4922 14.8335V15.8237C21.4922 16.0484 21.3422 16.2456 21.1257 16.3056C20.7246 16.4167 20.3463 16.5828 19.9993 16.7956C19.8021 16.9165 19.5479 16.8864 19.3844 16.7229L18.7628 16.1013L17.6446 17.2196L18.3182 17.8932C18.4741 18.0491 18.5095 18.2889 18.4051 18.4832C18.2424 18.7863 18.114 19.1104 18.025 19.4504C17.9674 19.6703 17.7687 19.8238 17.5413 19.8238H16.4951V21.4052H17.5622C17.7866 21.4052 17.9835 21.5546 18.0438 21.7707C18.1248 22.0604 18.2344 22.3382 18.3697 22.6009C18.4692 22.7941 18.4324 23.0296 18.2787 23.1833L17.5302 23.9318L18.6484 25.0501L19.3139 24.3846C19.4796 24.2189 19.7382 24.1905 19.936 24.3163C20.3001 24.5481 20.7002 24.7281 21.1258 24.846C21.3424 24.9059 21.4924 25.1031 21.4924 25.3278V26.1809H23.0738V25.3432C23.0738 25.1162 23.2267 24.9177 23.4461 24.8597C23.8409 24.7555 24.2142 24.598 24.558 24.3954C24.7544 24.2796 25.0042 24.3113 25.1655 24.4725L25.7432 25.0502L26.8614 23.932L26.2633 23.3339C26.105 23.1756 26.0712 22.9314 26.1806 22.7361C26.3495 22.4342 26.4841 22.1107 26.5791 21.7707C26.6394 21.5546 26.8363 21.4052 27.0606 21.4052H27.8917V19.8238H27.0816C26.8542 19.8238 26.6555 19.6703 26.5979 19.4504C26.5087 19.1096 26.3799 18.7848 26.2166 18.4811C26.1121 18.2867 26.1474 18.0468 26.3034 17.8908L26.9746 17.2196L25.8564 16.1013L25.2362 16.7215C25.0728 16.8849 24.8187 16.915 24.6216 16.7943C24.2604 16.5732 23.8653 16.4024 23.446 16.2917C23.2265 16.2338 23.0736 16.0353 23.0736 15.8083V14.8335H21.4922ZM20.3016 20.5646C20.3016 19.4653 21.1927 18.5742 22.292 18.5742C23.3913 18.5742 24.2825 19.4653 24.2825 20.5646C24.2825 21.6639 23.3913 22.5551 22.292 22.5551C21.1927 22.5551 20.3016 21.6639 20.3016 20.5646ZM22.292 17.5742C20.6405 17.5742 19.3016 18.913 19.3016 20.5646C19.3016 22.2162 20.6405 23.5551 22.292 23.5551C23.9436 23.5551 25.2825 22.2162 25.2825 20.5646C25.2825 18.913 23.9436 17.5742 22.292 17.5742Z" fill="black"/>
</svg>
