<svg width="30" height="31" viewBox="0 0 30 31" fill="none" xmlns="http://www.w3.org/2000/svg">
<path fill-rule="evenodd" clip-rule="evenodd" d="M8.38066 17.8929C8.51873 17.6538 8.82453 17.5718 9.06367 17.7099L18.7819 23.3207C19.0211 23.4588 19.103 23.7646 18.9649 24.0037C18.8269 24.2429 18.5211 24.3248 18.2819 24.1868L8.56367 18.5759C8.32453 18.4379 8.24259 18.1321 8.38066 17.8929Z" fill="black"/>
<path fill-rule="evenodd" clip-rule="evenodd" d="M10.2824 13.3118C10.3797 13.5703 10.249 13.8586 9.9905 13.9558L6.28719 15.3491L4.81724 20.0625L8.24379 19.6232C8.51769 19.5881 8.7682 19.7817 8.80331 20.0556C8.83843 20.3295 8.64486 20.58 8.37096 20.6151L4.1715 21.1535C4.0026 21.1752 3.83429 21.1094 3.72485 20.9789C3.61541 20.8485 3.57989 20.6713 3.63059 20.5087L5.40524 14.8182C5.45112 14.6711 5.56227 14.5534 5.70651 14.4991L9.63838 13.0199C9.89684 12.9227 10.1852 13.0534 10.2824 13.3118Z" fill="black"/>
<path fill-rule="evenodd" clip-rule="evenodd" d="M21.9823 20.0667C21.7098 20.1117 21.5255 20.3691 21.5705 20.6415L22.2156 24.5453L18.8686 28.175L17.5357 24.9879C17.4292 24.7331 17.1363 24.613 16.8815 24.7195C16.6268 24.8261 16.5066 25.119 16.6132 25.3737L18.2466 29.2798C18.3123 29.4369 18.4535 29.5497 18.6212 29.5793C18.7889 29.6088 18.9601 29.551 19.0755 29.4258L23.1163 25.0437C23.2207 24.9304 23.2671 24.7752 23.242 24.6232L22.5571 20.4785C22.5121 20.206 22.2547 20.0217 21.9823 20.0667Z" fill="black"/>
<path fill-rule="evenodd" clip-rule="evenodd" d="M8.61934 23.5068C8.85849 23.6448 8.94042 23.9506 8.80235 24.1898L8.1946 25.2425C8.05652 25.4816 7.75073 25.5635 7.51158 25.4255C7.27244 25.2874 7.1905 24.9816 7.32857 24.7425L7.93633 23.6898C8.0744 23.4506 8.38019 23.3687 8.61934 23.5068Z" fill="black"/>
<path fill-rule="evenodd" clip-rule="evenodd" d="M11.302 25.0556C11.5411 25.1937 11.6231 25.4995 11.485 25.7386L9.985 28.3367C9.84693 28.5758 9.54113 28.6578 9.30199 28.5197C9.06284 28.3816 8.9809 28.0758 9.11898 27.8367L10.619 25.2386C10.757 24.9995 11.0628 24.9175 11.302 25.0556Z" fill="black"/>
<path fill-rule="evenodd" clip-rule="evenodd" d="M13.9846 26.6044C14.2238 26.7425 14.3057 27.0483 14.1676 27.2874L13.5599 28.3401C13.4218 28.5793 13.116 28.6612 12.8769 28.5231C12.6377 28.3851 12.5558 28.0793 12.6939 27.8401L13.3016 26.7874C13.4397 26.5483 13.7455 26.4664 13.9846 26.6044Z" fill="black"/>
<path fill-rule="evenodd" clip-rule="evenodd" d="M17.3992 14.4957C18.6028 15.1905 20.1417 14.7782 20.8366 13.5746C21.5315 12.3711 21.1191 10.8321 19.9156 10.1372C18.712 9.44236 17.173 9.85473 16.4782 11.0583C15.7833 12.2618 16.1957 13.8008 17.3992 14.4957ZM16.8992 15.3617C18.5811 16.3327 20.7316 15.7565 21.7026 14.0746C22.6736 12.3928 22.0974 10.2422 20.4156 9.27121C18.7337 8.30019 16.5832 8.87644 15.6121 10.5583C14.6411 12.2401 15.2174 14.3907 16.8992 15.3617Z" fill="black"/>
<path fill-rule="evenodd" clip-rule="evenodd" d="M22.1994 18.8932C25.1597 13.7658 24.507 7.39867 23.9105 4.2757C23.8258 3.83236 23.4183 3.59708 22.992 3.74542C19.9892 4.79031 14.1487 7.40858 11.1884 12.536C9.69732 15.1186 9.11748 18.0255 8.99404 20.7004C8.97944 21.0169 9.15124 21.3392 9.46963 21.5231L15.2758 24.8752C15.5942 25.0591 15.9592 25.0467 16.226 24.8758C18.4809 23.4314 20.7083 21.4758 22.1994 18.8932ZM24.8927 4.08809C24.6935 3.04532 23.666 2.45207 22.6634 2.80096C19.6154 3.86157 13.4726 6.57957 10.3224 12.036C8.72652 14.8001 8.12322 17.8779 7.9951 20.6543C7.96211 21.3692 8.34985 22.0312 8.96963 22.3891L14.7758 25.7413C15.3956 26.0991 16.1628 26.1039 16.7654 25.7178C19.1058 24.2187 21.4696 22.1573 23.0654 19.3932C26.2157 13.9368 25.4982 7.258 24.8927 4.08809Z" fill="black"/>
</svg>
