<svg width="31" height="30" viewBox="0 0 31 30" fill="none" xmlns="http://www.w3.org/2000/svg">
<mask id="path-1-inside-1_3_1095" fill="white">
<path fill-rule="evenodd" clip-rule="evenodd" d="M26.6757 8.85738C26.6758 8.84969 26.6759 8.842 26.6759 8.8343C26.6759 6.27617 22.1076 4.20239 16.4723 4.20239C10.8465 4.20239 6.28405 6.2692 6.26872 8.8214H6.26855V24.1265C6.26855 24.1266 6.26855 24.1267 6.26855 24.1268C6.26886 26.6848 10.837 28.7584 16.4721 28.7584C22.1072 28.7584 26.6754 26.6848 26.6757 24.1268C26.6757 24.1267 26.6757 24.1266 26.6757 24.1265V8.85738Z"/>
</mask>
<path fill-rule="evenodd" clip-rule="evenodd" d="M26.6757 8.85738C26.6758 8.84969 26.6759 8.842 26.6759 8.8343C26.6759 6.27617 22.1076 4.20239 16.4723 4.20239C10.8465 4.20239 6.28405 6.2692 6.26872 8.8214H6.26855V24.1265C6.26855 24.1266 6.26855 24.1267 6.26855 24.1268C6.26886 26.6848 10.837 28.7584 16.4721 28.7584C22.1072 28.7584 26.6754 26.6848 26.6757 24.1268C26.6757 24.1267 26.6757 24.1266 26.6757 24.1265V8.85738Z" fill="white"/>
<path d="M26.6757 8.85738L25.6757 8.84671V8.85738H26.6757ZM6.26872 8.8214V9.8214H7.26273L7.2687 8.82741L6.26872 8.8214ZM6.26855 8.8214V7.8214H5.26855V8.8214H6.26855ZM6.26855 24.1268L7.26855 24.1267L6.26855 24.1268ZM26.6757 24.1268L27.6757 24.1269V24.1268H26.6757ZM27.6757 8.86805C27.6758 8.85688 27.6759 8.84563 27.6759 8.8343H25.6759C25.6759 8.83837 25.6758 8.8425 25.6758 8.84671L27.6757 8.86805ZM27.6759 8.8343C27.6759 6.92126 26.0137 5.5169 24.1007 4.64848C22.0969 3.73886 19.3989 3.20239 16.4723 3.20239V5.20239C19.1809 5.20239 21.5848 5.70281 23.2739 6.46962C25.0539 7.27762 25.6759 8.18921 25.6759 8.8343H27.6759ZM16.4723 3.20239C13.5505 3.20239 10.8567 3.73708 8.85409 4.64385C6.9418 5.50971 5.28019 6.90859 5.26874 8.81539L7.2687 8.82741C7.27258 8.18201 7.89984 7.27139 9.67904 6.46579C11.3679 5.70111 13.7682 5.20239 16.4723 5.20239V3.20239ZM6.26855 9.8214H6.26872V7.8214H6.26855V9.8214ZM7.26855 24.1265V8.8214H5.26855V24.1265H7.26855ZM5.26855 24.1265C5.26855 24.1266 5.26855 24.1265 5.26855 24.1266C5.26855 24.1267 5.26855 24.1268 5.26855 24.1269L7.26855 24.1267V24.1265H5.26855ZM5.26855 24.1269C5.26878 26.0398 6.93094 27.4441 8.84397 28.3124C10.8477 29.222 13.5456 29.7584 16.4721 29.7584V27.7584C13.7636 27.7584 11.3598 27.2581 9.67064 26.4913C7.89072 25.6833 7.26863 24.7718 7.26855 24.1267L5.26855 24.1269ZM16.4721 29.7584C19.3987 29.7584 22.0966 29.222 24.1003 28.3124C26.0134 27.4441 27.6755 26.0398 27.6757 24.1269L25.6757 24.1267C25.6757 24.7718 25.0536 25.6833 23.2737 26.4913C21.5845 27.2581 19.1807 27.7584 16.4721 27.7584V29.7584ZM27.6757 24.1268C27.6757 24.1268 27.6757 24.1268 27.6757 24.1268C27.6757 24.1268 27.6757 24.1268 27.6757 24.1268V24.1268C27.6757 24.1268 27.6757 24.1268 27.6757 24.1268C27.6757 24.1268 27.6757 24.1268 27.6757 24.1268C27.6757 24.1268 27.6757 24.1268 27.6757 24.1268V24.1268V24.1268C27.6757 24.1268 27.6757 24.1268 27.6757 24.1268C27.6757 24.1268 27.6757 24.1268 27.6757 24.1268C27.6757 24.1268 27.6757 24.1268 27.6757 24.1268V24.1268V24.1268C27.6757 24.1268 27.6757 24.1268 27.6757 24.1268C27.6757 24.1268 27.6757 24.1268 27.6757 24.1268C27.6757 24.1268 27.6757 24.1268 27.6757 24.1268V24.1268V24.1268C27.6757 24.1267 27.6757 24.1267 27.6757 24.1267C27.6757 24.1267 27.6757 24.1267 27.6757 24.1267C27.6757 24.1267 27.6757 24.1267 27.6757 24.1267V24.1267V24.1267C27.6757 24.1267 27.6757 24.1267 27.6757 24.1267C27.6757 24.1267 27.6757 24.1267 27.6757 24.1267C27.6757 24.1267 27.6757 24.1267 27.6757 24.1267V24.1267C27.6757 24.1267 27.6757 24.1267 27.6757 24.1267C27.6757 24.1267 27.6757 24.1267 27.6757 24.1267C27.6757 24.1267 27.6757 24.1267 27.6757 24.1267C27.6757 24.1267 27.6757 24.1267 27.6757 24.1267V24.1267C27.6757 24.1267 27.6757 24.1267 27.6757 24.1267C27.6757 24.1267 27.6757 24.1267 27.6757 24.1267C27.6757 24.1267 27.6757 24.1267 27.6757 24.1267V24.1267V24.1267C27.6757 24.1267 27.6757 24.1267 27.6757 24.1267C27.6757 24.1267 27.6757 24.1267 27.6757 24.1267C27.6757 24.1267 27.6757 24.1267 27.6757 24.1267V24.1267V24.1267C27.6757 24.1267 27.6757 24.1267 27.6757 24.1267C27.6757 24.1267 27.6757 24.1267 27.6757 24.1267C27.6757 24.1267 27.6757 24.1267 27.6757 24.1267V24.1267V24.1267C27.6757 24.1267 27.6757 24.1267 27.6757 24.1267C27.6757 24.1267 27.6757 24.1267 27.6757 24.1267C27.6757 24.1267 27.6757 24.1267 27.6757 24.1267V24.1267C27.6757 24.1267 27.6757 24.1267 27.6757 24.1267C27.6757 24.1267 27.6757 24.1267 27.6757 24.1267C27.6757 24.1267 27.6757 24.1267 27.6757 24.1267C27.6757 24.1267 27.6757 24.1267 27.6757 24.1267V24.1267C27.6757 24.1267 27.6757 24.1267 27.6757 24.1267C27.6757 24.1267 27.6757 24.1267 27.6757 24.1267C27.6757 24.1267 27.6757 24.1267 27.6757 24.1267V24.1267V24.1267C27.6757 24.1267 27.6757 24.1267 27.6757 24.1267C27.6757 24.1267 27.6757 24.1267 27.6757 24.1267C27.6757 24.1267 27.6757 24.1267 27.6757 24.1267V24.1267V24.1267C27.6757 24.1267 27.6757 24.1267 27.6757 24.1267C27.6757 24.1267 27.6757 24.1267 27.6757 24.1267C27.6757 24.1267 27.6757 24.1267 27.6757 24.1267V24.1267V24.1266C27.6757 24.1266 27.6757 24.1266 27.6757 24.1266C27.6757 24.1266 27.6757 24.1266 27.6757 24.1266C27.6757 24.1266 27.6757 24.1266 27.6757 24.1266V24.1266V24.1266C27.6757 24.1266 27.6757 24.1266 27.6757 24.1266C27.6757 24.1266 27.6757 24.1266 27.6757 24.1266C27.6757 24.1266 27.6757 24.1266 27.6757 24.1266V24.1266C27.6757 24.1266 27.6757 24.1266 27.6757 24.1266C27.6757 24.1266 27.6757 24.1266 27.6757 24.1266C27.6757 24.1266 27.6757 24.1266 27.6757 24.1266C27.6757 24.1266 27.6757 24.1266 27.6757 24.1266V24.1266C27.6757 24.1266 27.6757 24.1266 27.6757 24.1266C27.6757 24.1266 27.6757 24.1266 27.6757 24.1266C27.6757 24.1266 27.6757 24.1266 27.6757 24.1266V24.1266V24.1266C27.6757 24.1266 27.6757 24.1266 27.6757 24.1266C27.6757 24.1266 27.6757 24.1266 27.6757 24.1266C27.6757 24.1266 27.6757 24.1266 27.6757 24.1266V24.1266V24.1266C27.6757 24.1266 27.6757 24.1266 27.6757 24.1266C27.6757 24.1266 27.6757 24.1266 27.6757 24.1266C27.6757 24.1266 27.6757 24.1266 27.6757 24.1266V24.1266V24.1266C27.6757 24.1266 27.6757 24.1266 27.6757 24.1266C27.6757 24.1266 27.6757 24.1266 27.6757 24.1266C27.6757 24.1266 27.6757 24.1266 27.6757 24.1266V24.1266C27.6757 24.1266 27.6757 24.1266 27.6757 24.1266C27.6757 24.1266 27.6757 24.1266 27.6757 24.1266C27.6757 24.1266 27.6757 24.1266 27.6757 24.1266C27.6757 24.1266 27.6757 24.1266 27.6757 24.1266V24.1266C27.6757 24.1266 27.6757 24.1266 27.6757 24.1266C27.6757 24.1266 27.6757 24.1266 27.6757 24.1266C27.6757 24.1266 27.6757 24.1266 27.6757 24.1266C27.6757 24.1266 27.6757 24.1266 27.6757 24.1266V24.1266C27.6757 24.1266 27.6757 24.1266 27.6757 24.1266C27.6757 24.1266 27.6757 24.1266 27.6757 24.1266C27.6757 24.1266 27.6757 24.1266 27.6757 24.1266V24.1266V24.1266C27.6757 24.1266 27.6757 24.1266 27.6757 24.1266C27.6757 24.1266 27.6757 24.1266 27.6757 24.1266C27.6757 24.1266 27.6757 24.1266 27.6757 24.1266V24.1266V24.1265C27.6757 24.1265 27.6757 24.1265 27.6757 24.1265C27.6757 24.1265 27.6757 24.1265 27.6757 24.1265C27.6757 24.1265 27.6757 24.1265 27.6757 24.1265V24.1265V24.1265C27.6757 24.1265 27.6757 24.1265 27.6757 24.1265C27.6757 24.1265 27.6757 24.1265 27.6757 24.1265C27.6757 24.1265 27.6757 24.1265 27.6757 24.1265V24.1265C27.6757 24.1265 27.6757 24.1265 27.6757 24.1265C27.6757 24.1265 27.6757 24.1265 27.6757 24.1265H25.6757C25.6757 24.1265 25.6757 24.1265 25.6757 24.1265C25.6757 24.1265 25.6757 24.1265 25.6757 24.1265V24.1265C25.6757 24.1265 25.6757 24.1265 25.6757 24.1265C25.6757 24.1265 25.6757 24.1265 25.6757 24.1265C25.6757 24.1265 25.6757 24.1265 25.6757 24.1265V24.1265V24.1265C25.6757 24.1265 25.6757 24.1265 25.6757 24.1265C25.6757 24.1265 25.6757 24.1265 25.6757 24.1265C25.6757 24.1265 25.6757 24.1265 25.6757 24.1265V24.1266V24.1266C25.6757 24.1266 25.6757 24.1266 25.6757 24.1266C25.6757 24.1266 25.6757 24.1266 25.6757 24.1266C25.6757 24.1266 25.6757 24.1266 25.6757 24.1266V24.1266V24.1266C25.6757 24.1266 25.6757 24.1266 25.6757 24.1266C25.6757 24.1266 25.6757 24.1266 25.6757 24.1266C25.6757 24.1266 25.6757 24.1266 25.6757 24.1266V24.1266C25.6757 24.1266 25.6757 24.1266 25.6757 24.1266C25.6757 24.1266 25.6757 24.1266 25.6757 24.1266C25.6757 24.1266 25.6757 24.1266 25.6757 24.1266C25.6757 24.1266 25.6757 24.1266 25.6757 24.1266V24.1266C25.6757 24.1266 25.6757 24.1266 25.6757 24.1266C25.6757 24.1266 25.6757 24.1266 25.6757 24.1266C25.6757 24.1266 25.6757 24.1266 25.6757 24.1266C25.6757 24.1266 25.6757 24.1266 25.6757 24.1266V24.1266C25.6757 24.1266 25.6757 24.1266 25.6757 24.1266C25.6757 24.1266 25.6757 24.1266 25.6757 24.1266C25.6757 24.1266 25.6757 24.1266 25.6757 24.1266V24.1266V24.1266C25.6757 24.1266 25.6757 24.1266 25.6757 24.1266C25.6757 24.1266 25.6757 24.1266 25.6757 24.1266C25.6757 24.1266 25.6757 24.1266 25.6757 24.1266V24.1266V24.1266C25.6757 24.1266 25.6757 24.1266 25.6757 24.1266C25.6757 24.1266 25.6757 24.1266 25.6757 24.1266C25.6757 24.1266 25.6757 24.1266 25.6757 24.1266V24.1266V24.1266C25.6757 24.1266 25.6757 24.1266 25.6757 24.1266C25.6757 24.1266 25.6757 24.1266 25.6757 24.1266C25.6757 24.1266 25.6757 24.1266 25.6757 24.1266V24.1266C25.6757 24.1266 25.6757 24.1266 25.6757 24.1266C25.6757 24.1266 25.6757 24.1266 25.6757 24.1266C25.6757 24.1266 25.6757 24.1266 25.6757 24.1266C25.6757 24.1266 25.6757 24.1266 25.6757 24.1266V24.1266C25.6757 24.1266 25.6757 24.1266 25.6757 24.1266C25.6757 24.1266 25.6757 24.1266 25.6757 24.1266C25.6757 24.1266 25.6757 24.1266 25.6757 24.1266V24.1266V24.1266C25.6757 24.1266 25.6757 24.1266 25.6757 24.1266C25.6757 24.1266 25.6757 24.1266 25.6757 24.1266C25.6757 24.1266 25.6757 24.1266 25.6757 24.1266V24.1267V24.1267C25.6757 24.1267 25.6757 24.1267 25.6757 24.1267C25.6757 24.1267 25.6757 24.1267 25.6757 24.1267C25.6757 24.1267 25.6757 24.1267 25.6757 24.1267V24.1267V24.1267C25.6757 24.1267 25.6757 24.1267 25.6757 24.1267C25.6757 24.1267 25.6757 24.1267 25.6757 24.1267C25.6757 24.1267 25.6757 24.1267 25.6757 24.1267V24.1267V24.1267C25.6757 24.1267 25.6757 24.1267 25.6757 24.1267C25.6757 24.1267 25.6757 24.1267 25.6757 24.1267C25.6757 24.1267 25.6757 24.1267 25.6757 24.1267V24.1267C25.6757 24.1267 25.6757 24.1267 25.6757 24.1267C25.6757 24.1267 25.6757 24.1267 25.6757 24.1267C25.6757 24.1267 25.6757 24.1267 25.6757 24.1267C25.6757 24.1267 25.6757 24.1267 25.6757 24.1267V24.1267C25.6757 24.1267 25.6757 24.1267 25.6757 24.1267C25.6757 24.1267 25.6757 24.1267 25.6757 24.1267C25.6757 24.1267 25.6757 24.1267 25.6757 24.1267V24.1267V24.1267C25.6757 24.1267 25.6757 24.1267 25.6757 24.1267C25.6757 24.1267 25.6757 24.1267 25.6757 24.1267C25.6757 24.1267 25.6757 24.1267 25.6757 24.1267V24.1267V24.1267C25.6757 24.1267 25.6757 24.1267 25.6757 24.1267C25.6757 24.1267 25.6757 24.1267 25.6757 24.1267C25.6757 24.1267 25.6757 24.1267 25.6757 24.1267V24.1267V24.1267C25.6757 24.1267 25.6757 24.1267 25.6757 24.1267C25.6757 24.1267 25.6757 24.1267 25.6757 24.1267C25.6757 24.1267 25.6757 24.1267 25.6757 24.1267V24.1267C25.6757 24.1267 25.6757 24.1267 25.6757 24.1267C25.6757 24.1267 25.6757 24.1267 25.6757 24.1267C25.6757 24.1267 25.6757 24.1267 25.6757 24.1267C25.6757 24.1267 25.6757 24.1267 25.6757 24.1267V24.1267C25.6757 24.1267 25.6757 24.1267 25.6757 24.1267C25.6757 24.1267 25.6757 24.1267 25.6757 24.1267C25.6757 24.1267 25.6757 24.1267 25.6757 24.1267V24.1267V24.1267C25.6757 24.1267 25.6757 24.1267 25.6757 24.1267C25.6757 24.1267 25.6757 24.1267 25.6757 24.1267C25.6757 24.1267 25.6757 24.1267 25.6757 24.1268V24.1268V24.1268C25.6757 24.1268 25.6757 24.1268 25.6757 24.1268C25.6757 24.1268 25.6757 24.1268 25.6757 24.1268C25.6757 24.1268 25.6757 24.1268 25.6757 24.1268V24.1268V24.1268C25.6757 24.1268 25.6757 24.1268 25.6757 24.1268C25.6757 24.1268 25.6757 24.1268 25.6757 24.1268C25.6757 24.1268 25.6757 24.1268 25.6757 24.1268V24.1268V24.1268C25.6757 24.1268 25.6757 24.1268 25.6757 24.1268C25.6757 24.1268 25.6757 24.1268 25.6757 24.1268C25.6757 24.1268 25.6757 24.1268 25.6757 24.1268V24.1268C25.6757 24.1268 25.6757 24.1268 25.6757 24.1268C25.6757 24.1268 25.6757 24.1268 25.6757 24.1268H27.6757ZM25.6757 8.85738V24.1265H27.6757V8.85738H25.6757Z" fill="black" mask="url(#path-1-inside-1_3_1095)"/>
<path d="M26.1757 8.83406C26.1757 9.79614 25.2937 10.8309 23.4805 11.654C21.7127 12.4565 19.2353 12.966 16.4721 12.966C13.709 12.966 11.2316 12.4565 9.46379 11.654C7.65059 10.8309 6.76855 9.79614 6.76855 8.83406C6.76855 7.87198 7.65059 6.83719 9.46379 6.01409C11.2316 5.21158 13.709 4.70215 16.4721 4.70215C19.2353 4.70215 21.7127 5.21158 23.4805 6.01409C25.2937 6.83719 26.1757 7.87198 26.1757 8.83406Z" fill="white" stroke="black"/>
<path fill-rule="evenodd" clip-rule="evenodd" d="M6.26855 16.085C6.26936 18.6428 10.8374 20.7162 16.4721 20.7162C22.1069 20.7162 26.6749 18.6428 26.6757 16.085H25.6757C25.6753 16.73 25.0531 17.6413 23.2738 18.449C21.5846 19.2158 19.1808 19.7162 16.4721 19.7162C13.7635 19.7162 11.3597 19.2158 9.67047 18.449C7.89117 17.6413 7.26899 16.73 7.26855 16.085H6.26855Z" fill="black"/>
<circle cx="6.5625" cy="8.83398" r="4.13184" fill="white" stroke="black"/>
<path d="M4.76758 8.83398H8.35605" stroke="black" stroke-linecap="round" stroke-linejoin="round"/>
<path d="M6.56152 10.6289L6.56152 7.04044" stroke="black" stroke-linecap="round" stroke-linejoin="round"/>
<circle cx="23.1768" cy="15.5" r="0.5" fill="black"/>
<circle cx="23.1768" cy="22.6934" r="0.5" fill="black"/>
</svg>
