<svg fill="none" height="400" viewBox="0 0 400 400" width="400" xmlns="http://www.w3.org/2000/svg"
  xmlns:xlink="http://www.w3.org/1999/xlink">
  <linearGradient id="a" gradientUnits="userSpaceOnUse" x1="85" x2="292" y1="42.5" y2="378">
    <stop offset="0" stop-color="#e88dea" />
    <stop offset=".187967" stop-color="#9d41ff" />
    <stop offset=".531725" stop-color="#2858ff" />
    <stop offset=".844232" stop-color="#29b8ff" />
    <stop offset="1" stop-color="#3dcbf9" />
  </linearGradient>
  <path d="m0 0h400v400h-400z" fill="" />
  <path clip-rule="evenodd"
    d="m187.5 271.942v128.058h25v-153.349l66.478 115.142c7.522-3.679 14.75-7.867 21.639-12.519l-72.771-126.044 80.14 29.169c3.616-7.438 6.486-15.306 8.513-23.506l-45.039-16.393h128.54v-25h-153.35l115.143-66.478c-3.679-7.523-7.867-14.751-12.519-21.6396l-125.297 72.3406 28.922-79.4637c-7.422-3.6511-15.277-6.5578-23.466-8.6228l-16.933 46.5235v-130.16h-25v153.349l-66.478-115.1429c-7.522 3.679-14.751 7.8671-21.6393 12.5195l72.4693 125.5194-79.6658-28.995c-3.6407 7.427-6.5366 15.285-8.5903 23.477l46.0821 16.773h-129.678v25h153.349l-115.1427 66.477c3.6789 7.523 7.8671 14.751 12.5195 21.64l126.2662-72.9-29.242 80.341c7.443 3.606 15.315 6.465 23.518 8.481z"
    fill="url(#a)" fill-rule="evenodd" />
</svg>