<svg width="32" height="32" viewBox="0 0 32 32" fill="none" xmlns="http://www.w3.org/2000/svg">
<mask id="path-1-inside-1_624_515" fill="white">
<path fill-rule="evenodd" clip-rule="evenodd" d="M25 15C25 10.5033 22.032 6.69982 17.9481 5.44167C17.6865 4.05162 16.4661 3 15 3C13.5339 3 12.3135 4.05162 12.0519 5.44167C7.968 6.69982 5 10.5033 5 15V21.0671C3.85395 21.3335 3 22.3611 3 23.5882C3 24.3679 3.63207 25 4.41176 25H5H25H25.5882C26.3679 25 27 24.3679 27 23.5882C27 22.3611 26.146 21.3335 25 21.0671V15Z"/>
</mask>
<path d="M17.9481 5.44167L16.474 5.71913L16.6415 6.60868L17.5065 6.87519L17.9481 5.44167ZM12.0519 5.44167L12.4935 6.87519L13.3585 6.60868L13.526 5.71913L12.0519 5.44167ZM5 21.0671L5.33956 22.5282L6.5 22.2585V21.0671H5ZM25 21.0671H23.5V22.2585L24.6604 22.5282L25 21.0671ZM17.5065 6.87519C20.979 7.94499 23.5 11.1801 23.5 15H26.5C26.5 9.82655 23.085 5.45464 18.3898 4.00816L17.5065 6.87519ZM15 4.5C15.7314 4.5 16.3434 5.02496 16.474 5.71913L19.4223 5.16421C19.0296 3.07828 17.2007 1.5 15 1.5V4.5ZM13.526 5.71913C13.6566 5.02496 14.2686 4.5 15 4.5V1.5C12.7993 1.5 10.9704 3.07828 10.5777 5.16421L13.526 5.71913ZM6.5 15C6.5 11.1801 9.02096 7.945 12.4935 6.87519L11.6102 4.00816C6.91503 5.45464 3.5 9.82655 3.5 15H6.5ZM6.5 21.0671V15H3.5V21.0671H6.5ZM4.5 23.5882C4.5 23.0742 4.85782 22.6402 5.33956 22.5282L4.66044 19.6061C2.85008 20.0268 1.5 21.648 1.5 23.5882H4.5ZM4.41176 23.5C4.4605 23.5 4.5 23.5395 4.5 23.5882H1.5C1.5 25.1964 2.80364 26.5 4.41176 26.5V23.5ZM5 23.5H4.41176V26.5H5V23.5ZM25 23.5H5V26.5H25V23.5ZM25.5882 23.5H25V26.5H25.5882V23.5ZM25.5 23.5882C25.5 23.5395 25.5395 23.5 25.5882 23.5V26.5C27.1964 26.5 28.5 25.1964 28.5 23.5882H25.5ZM24.6604 22.5282C25.1422 22.6402 25.5 23.0742 25.5 23.5882H28.5C28.5 21.648 27.1499 20.0268 25.3396 19.6061L24.6604 22.5282ZM23.5 15V21.0671H26.5V15H23.5Z" fill="black" mask="url(#path-1-inside-1_624_515)"/>
<path d="M18 25C18 26.6569 16.6569 28 15 28C13.3431 28 12 26.6569 12 25" stroke="black" stroke-width="1.5"/>
<circle cx="23" cy="23" r="5.3" fill="#F6F8FA" stroke="black" stroke-width="1.4"/>
<path d="M23 21V23" stroke="black" stroke-width="1.4" stroke-linecap="round"/>
<circle cx="23" cy="25.25" r="0.75" fill="black"/>
</svg>
