<svg width="32" height="32" viewBox="0 0 32 32" fill="none" xmlns="http://www.w3.org/2000/svg">
<path d="M4 5.5V25.5C4 26.6046 4.89543 27.5 6 27.5H23.5V10L17 3.5H6C4.89543 3.5 4 4.39543 4 5.5Z" stroke="black" stroke-width="1.3"/>
<path d="M7 13H15" stroke="black" stroke-width="1.3" stroke-linecap="round"/>
<path d="M7 17H12" stroke="black" stroke-width="1.3" stroke-linecap="round"/>
<path d="M16.5 4V8.5C16.5 9.60457 17.3954 10.5 18.5 10.5H23" stroke="black" stroke-width="1.3"/>
<circle cx="23" cy="24" r="6.4" fill="#F6F8FA" stroke="black" stroke-width="1.2"/>
<mask id="path-6-outside-1_624_561" maskUnits="userSpaceOnUse" x="20" y="19.5" width="6" height="9" fill="black">
<rect fill="white" x="20" y="19.5" width="6" height="9"/>
<path d="M21.1111 22.5903C21.1111 23.3534 21.8018 23.9875 22.7111 24.1156C22.7649 24.1236 22.8223 24.1303 22.8825 24.135L22.8265 26.6845C22.1984 26.6104 21.6882 26.2433 21.5209 25.7633L21.5208 25.7632C21.5208 25.7632 21.484 25.6701 21.3264 25.6821C21.1745 25.6936 21.1786 25.7942 21.1964 25.8463C21.4065 26.4353 22.0419 26.8811 22.8205 26.9581L22.8128 27.3105C22.8105 27.4138 22.8848 27.4987 22.9787 27.5C23.0726 27.5013 23.1506 27.4186 23.1528 27.3153L23.1605 26.968C24.1851 26.9267 25 26.2499 25 25.421C25 24.658 24.3093 24.0238 23.4001 23.8958C23.3462 23.8877 23.2886 23.881 23.2284 23.8763L23.2844 21.3268C23.9125 21.4009 24.4229 21.7679 24.5902 22.248L24.5903 22.2481C24.5903 22.2481 24.6271 22.3412 24.7847 22.3292C24.9366 22.3177 24.9325 22.2171 24.9147 22.165C24.7046 21.5759 24.069 21.1301 23.2904 21.0532L23.2983 20.6895C23.3006 20.5862 23.2263 20.5013 23.1324 20.5C23.0385 20.4987 22.9605 20.5814 22.9583 20.6848L22.9504 21.0433C21.9259 21.0847 21.1111 21.7615 21.1111 22.5903ZM24.6599 25.4211C24.6599 26.0971 23.9991 26.652 23.1664 26.6954L23.2223 24.1505C24.0284 24.2152 24.6599 24.7603 24.6599 25.4211ZM22.9444 21.3159L22.8885 23.8608C22.0825 23.796 21.4512 23.251 21.4512 22.5903C21.4512 21.9143 22.1119 21.3595 22.9444 21.3159Z"/>
</mask>
<path d="M21.1111 22.5903C21.1111 23.3534 21.8018 23.9875 22.7111 24.1156C22.7649 24.1236 22.8223 24.1303 22.8825 24.135L22.8265 26.6845C22.1984 26.6104 21.6882 26.2433 21.5209 25.7633L21.5208 25.7632C21.5208 25.7632 21.484 25.6701 21.3264 25.6821C21.1745 25.6936 21.1786 25.7942 21.1964 25.8463C21.4065 26.4353 22.0419 26.8811 22.8205 26.9581L22.8128 27.3105C22.8105 27.4138 22.8848 27.4987 22.9787 27.5C23.0726 27.5013 23.1506 27.4186 23.1528 27.3153L23.1605 26.968C24.1851 26.9267 25 26.2499 25 25.421C25 24.658 24.3093 24.0238 23.4001 23.8958C23.3462 23.8877 23.2886 23.881 23.2284 23.8763L23.2844 21.3268C23.9125 21.4009 24.4229 21.7679 24.5902 22.248L24.5903 22.2481C24.5903 22.2481 24.6271 22.3412 24.7847 22.3292C24.9366 22.3177 24.9325 22.2171 24.9147 22.165C24.7046 21.5759 24.069 21.1301 23.2904 21.0532L23.2983 20.6895C23.3006 20.5862 23.2263 20.5013 23.1324 20.5C23.0385 20.4987 22.9605 20.5814 22.9583 20.6848L22.9504 21.0433C21.9259 21.0847 21.1111 21.7615 21.1111 22.5903ZM24.6599 25.4211C24.6599 26.0971 23.9991 26.652 23.1664 26.6954L23.2223 24.1505C24.0284 24.2152 24.6599 24.7603 24.6599 25.4211ZM22.9444 21.3159L22.8885 23.8608C22.0825 23.796 21.4512 23.251 21.4512 22.5903C21.4512 21.9143 22.1119 21.3595 22.9444 21.3159Z" fill="black"/>
<path d="M22.7111 24.1156L22.7699 23.7199L22.7668 23.7195L22.7111 24.1156ZM22.8825 24.135L23.2824 24.1438L23.2907 23.7657L22.9136 23.7362L22.8825 24.135ZM22.8265 26.6845L22.7796 27.0817L23.2167 27.1334L23.2264 26.6933L22.8265 26.6845ZM21.5209 25.7633L21.8986 25.6316L21.8347 25.4484L21.6513 25.3851L21.5209 25.7633ZM21.5208 25.7632L21.1488 25.9103L21.2165 26.0814L21.3904 26.1414L21.5208 25.7632ZM21.3264 25.6821L21.3568 26.0809L21.3568 26.0809L21.3264 25.6821ZM21.1964 25.8463L20.8178 25.9756L20.8197 25.9807L21.1964 25.8463ZM22.8205 26.9581L23.2204 26.9669L23.2285 26.5965L22.8599 26.5601L22.8205 26.9581ZM22.8128 27.3105L23.2127 27.3193L23.2127 27.3193L22.8128 27.3105ZM22.9787 27.5L22.9843 27.1L22.9843 27.1L22.9787 27.5ZM23.1528 27.3153L23.5527 27.3241L23.5527 27.324L23.1528 27.3153ZM23.1605 26.968L23.1444 26.5683L22.7688 26.5834L22.7606 26.9592L23.1605 26.968ZM23.4001 23.8958L23.3413 24.2914L23.3443 24.2918L23.4001 23.8958ZM23.2284 23.8763L22.8285 23.8675L22.8202 24.2456L23.1972 24.2751L23.2284 23.8763ZM23.2844 21.3268L23.3312 20.9295L22.8941 20.878L22.8844 21.318L23.2844 21.3268ZM24.5902 22.248L24.2125 22.3797L24.2761 22.5622L24.4587 22.6258L24.5902 22.248ZM24.5903 22.2481L24.9623 22.101L24.8949 21.9306L24.7218 21.8703L24.5903 22.2481ZM24.7847 22.3292L24.7544 21.9304L24.7543 21.9304L24.7847 22.3292ZM24.9147 22.165L25.2933 22.0358L25.2915 22.0306L24.9147 22.165ZM23.2904 21.0532L22.8905 21.0444L22.8823 21.4148L23.251 21.4512L23.2904 21.0532ZM23.2983 20.6895L22.8984 20.6807L22.8984 20.6807L23.2983 20.6895ZM22.9583 20.6848L23.3582 20.6935L23.3582 20.6935L22.9583 20.6848ZM22.9504 21.0433L22.9666 21.443L23.3421 21.4278L23.3503 21.0521L22.9504 21.0433ZM23.1664 26.6954L22.7665 26.6866L22.7571 27.1173L23.1873 27.0949L23.1664 26.6954ZM23.2223 24.1505L23.2544 23.7518L22.8317 23.7178L22.8224 24.1417L23.2223 24.1505ZM22.9444 21.3159L23.3443 21.3247L23.3538 20.894L22.9235 20.9165L22.9444 21.3159ZM22.8885 23.8608L22.8564 24.2595L23.2791 24.2936L23.2884 23.8696L22.8885 23.8608ZM21.4512 22.5903L21.0512 22.5903V22.5903H21.4512ZM20.7111 22.5903C20.7111 23.6188 21.6221 24.3662 22.6553 24.5117L22.7668 23.7195C21.9816 23.6089 21.5111 23.0879 21.5111 22.5903H20.7111ZM22.6523 24.5112C22.7146 24.5205 22.7813 24.5283 22.8514 24.5338L22.9136 23.7362C22.8633 23.7323 22.8152 23.7266 22.7699 23.7199L22.6523 24.5112ZM22.4826 24.1262L22.4266 26.6757L23.2264 26.6933L23.2824 24.1438L22.4826 24.1262ZM22.8734 26.2873C22.3585 26.2265 22.0038 25.9335 21.8986 25.6316L21.1432 25.8949C21.3726 26.5531 22.0384 26.9942 22.7796 27.0817L22.8734 26.2873ZM21.6513 25.3851L21.6512 25.3851L21.3904 26.1414L21.3905 26.1414L21.6513 25.3851ZM21.5208 25.7632C21.8928 25.6162 21.8927 25.6159 21.8926 25.6157C21.8926 25.6156 21.8925 25.6153 21.8924 25.6151C21.8922 25.6148 21.8921 25.6144 21.8919 25.614C21.8916 25.6133 21.8913 25.6125 21.891 25.6117C21.8904 25.6102 21.8897 25.6086 21.8891 25.607C21.8877 25.6038 21.8862 25.6005 21.8846 25.597C21.8815 25.59 21.8779 25.5825 21.8737 25.5745C21.8654 25.5586 21.8548 25.5405 21.8415 25.5213C21.8149 25.4828 21.7767 25.4389 21.7235 25.3988C21.6096 25.3129 21.4623 25.2706 21.2961 25.2832L21.3568 26.0809C21.3481 26.0816 21.298 26.0799 21.2419 26.0375C21.2176 26.0192 21.1985 25.9979 21.1837 25.9765C21.1763 25.9658 21.1698 25.9549 21.1642 25.944C21.1613 25.9386 21.1586 25.933 21.1561 25.9274C21.1548 25.9246 21.1536 25.9218 21.1524 25.9189C21.1518 25.9175 21.1512 25.9161 21.1506 25.9146C21.1503 25.9139 21.15 25.9132 21.1497 25.9125C21.1495 25.9121 21.1494 25.9117 21.1493 25.9114C21.1492 25.9112 21.1491 25.9109 21.149 25.9108C21.1489 25.9105 21.1488 25.9103 21.5208 25.7632ZM21.2961 25.2832C21.1302 25.2958 20.9338 25.3727 20.8366 25.5772C20.7567 25.7452 20.7933 25.9036 20.8179 25.9756L21.575 25.7171C21.5817 25.7369 21.6074 25.819 21.559 25.9208C21.5313 25.9791 21.4872 26.0244 21.4385 26.0523C21.3943 26.0776 21.3608 26.0806 21.3568 26.0809L21.2961 25.2832ZM20.8197 25.9807C21.0938 26.7494 21.888 27.2678 22.7811 27.3562L22.8599 26.5601C22.1959 26.4944 21.7192 26.1213 21.5732 25.712L20.8197 25.9807ZM22.4206 26.9493L22.4129 27.3017L23.2127 27.3193L23.2204 26.9669L22.4206 26.9493ZM22.4129 27.3017C22.4065 27.5898 22.6214 27.895 22.9731 27.8999L22.9843 27.1C23.1481 27.1023 23.2145 27.2379 23.2127 27.3193L22.4129 27.3017ZM22.973 27.8999C23.3214 27.9049 23.5464 27.6105 23.5527 27.3241L22.7529 27.3064C22.7547 27.2267 22.8237 27.0978 22.9843 27.1L22.973 27.8999ZM23.5527 27.324L23.5604 26.9768L22.7606 26.9592L22.7529 27.3065L23.5527 27.324ZM23.1766 27.3676C24.3314 27.3211 25.4 26.5399 25.4 25.421H24.6C24.6 25.9599 24.0388 26.5323 23.1444 26.5683L23.1766 27.3676ZM25.4 25.421C25.4 24.3925 24.489 23.6452 23.4559 23.4997L23.3443 24.2918C24.1295 24.4024 24.6 24.9235 24.6 25.421H25.4ZM23.4589 23.5001C23.3964 23.4908 23.3296 23.483 23.2595 23.4775L23.1972 24.2751C23.2477 24.279 23.296 24.2847 23.3413 24.2914L23.4589 23.5001ZM23.6283 23.8851L23.6843 21.3356L22.8844 21.318L22.8285 23.8675L23.6283 23.8851ZM23.2375 21.724C23.7525 21.7848 24.1073 22.0777 24.2125 22.3797L24.9679 22.1164C24.7385 21.4581 24.0725 21.017 23.3312 20.9295L23.2375 21.724ZM24.4587 22.6258L24.4587 22.6258L24.7218 21.8703L24.7218 21.8703L24.4587 22.6258ZM24.5903 22.2481C24.2183 22.3951 24.2184 22.3954 24.2185 22.3956C24.2186 22.3957 24.2187 22.396 24.2187 22.3962C24.2189 22.3966 24.219 22.3969 24.2192 22.3973C24.2195 22.3981 24.2198 22.3988 24.2201 22.3996C24.2207 22.4011 24.2214 22.4027 24.2221 22.4043C24.2234 22.4075 24.2249 22.4109 24.2265 22.4143C24.2296 22.4213 24.2333 22.4288 24.2374 22.4368C24.2457 22.4528 24.2563 22.4708 24.2696 22.49C24.2962 22.5286 24.3344 22.5724 24.3876 22.6125C24.5015 22.6985 24.6488 22.7407 24.815 22.7281L24.7543 21.9304C24.763 21.9297 24.8131 21.9314 24.8692 21.9738C24.8935 21.9921 24.9126 22.0134 24.9274 22.0348C24.9348 22.0455 24.9413 22.0564 24.9469 22.0673C24.9498 22.0727 24.9525 22.0783 24.955 22.0839C24.9563 22.0867 24.9575 22.0895 24.9587 22.0924C24.9594 22.0938 24.9599 22.0952 24.9605 22.0967C24.9608 22.0974 24.9611 22.0981 24.9614 22.0988C24.9616 22.0992 24.9617 22.0996 24.9619 22.0999C24.9619 22.1001 24.962 22.1004 24.9621 22.1005C24.9622 22.1008 24.9623 22.101 24.5903 22.2481ZM24.815 22.7281C24.9809 22.7155 25.1773 22.6386 25.2746 22.4341C25.3544 22.2661 25.3178 22.1077 25.2933 22.0358L24.5361 22.2941C24.5294 22.2744 24.5037 22.1923 24.5521 22.0905C24.5798 22.0322 24.624 21.9869 24.6727 21.959C24.7168 21.9337 24.7503 21.9307 24.7544 21.9304L24.815 22.7281ZM25.2915 22.0306C25.0173 21.2618 24.223 20.7434 23.3297 20.6551L23.251 21.4512C23.9151 21.5168 24.3919 21.89 24.5379 22.2993L25.2915 22.0306ZM23.6903 21.0619L23.6983 20.6983L22.8984 20.6807L22.8905 21.0444L23.6903 21.0619ZM23.6983 20.6983C23.7046 20.4102 23.4897 20.105 23.138 20.1001L23.1268 20.9C22.963 20.8977 22.8966 20.7622 22.8984 20.6807L23.6983 20.6983ZM23.138 20.1001C22.7896 20.0952 22.5646 20.3896 22.5584 20.676L23.3582 20.6935C23.3564 20.7733 23.2874 20.9022 23.1268 20.9L23.138 20.1001ZM22.5584 20.676L22.5505 21.0346L23.3503 21.0521L23.3582 20.6935L22.5584 20.676ZM22.9343 20.6437C21.7796 20.6903 20.7111 21.4715 20.7111 22.5903H21.5111C21.5111 22.0515 22.0722 21.4792 22.9666 21.443L22.9343 20.6437ZM24.2599 25.4211C24.2599 25.8098 23.8489 26.2592 23.1456 26.296L23.1873 27.0949C24.1492 27.0447 25.0599 26.3843 25.0599 25.4211H24.2599ZM23.5663 26.7042L23.6222 24.1593L22.8224 24.1417L22.7665 26.6866L23.5663 26.7042ZM23.1903 24.5492C23.8689 24.6037 24.2599 25.0406 24.2599 25.4211H25.0599C25.0599 24.4799 24.188 23.8268 23.2544 23.7518L23.1903 24.5492ZM22.5445 21.3071L22.4886 23.852L23.2884 23.8696L23.3443 21.3247L22.5445 21.3071ZM22.9206 23.4621C22.2421 23.4075 21.8512 22.9706 21.8512 22.5903H21.0512C21.0512 23.5313 21.9229 24.1844 22.8564 24.2595L22.9206 23.4621ZM21.8512 22.5903C21.8512 22.2015 22.2621 21.7522 22.9653 21.7154L22.9235 20.9165C21.9617 20.9668 21.0512 21.6272 21.0512 22.5903L21.8512 22.5903Z" fill="black" mask="url(#path-6-outside-1_624_561)"/>
</svg>
