<svg width="32" height="32" viewBox="0 0 32 32" fill="none" xmlns="http://www.w3.org/2000/svg">
<g clip-path="url(#clip0_624_544)">
<path d="M14.3692 3.84859C14.6517 4.74232 15.4989 5.39122 16.5 5.39122C17.501 5.39122 18.3479 4.74261 18.6307 3.84921M14.3692 3.84859C14.304 3.64232 14.2689 3.423 14.2689 3.19561C14.2689 1.98301 15.2678 1 16.5 1C17.7323 1 18.7312 1.98301 18.7312 3.19561C18.7312 3.42323 18.696 3.64275 18.6307 3.84921M14.3692 3.84859L6.87161 8.10836M18.6307 3.84921L26.128 8.10882M4.98571 11.7806C4.68796 11.7483 4.392 11.6561 4.11595 11.4993C3.0488 10.893 2.68317 9.55014 3.29929 8.5C3.91541 7.44986 5.27996 7.09005 6.34711 7.69635C6.54723 7.81005 6.72268 7.94965 6.87161 8.10836M4.98571 11.7806C5.83899 11.8732 6.70703 11.4741 7.16377 10.6956C7.66434 9.8424 7.51686 8.79599 6.87161 8.10836M4.98571 11.7806V20.2194M4.98571 20.2194C5.839 20.1268 6.70704 20.5259 7.16378 21.3044C7.57672 22.0082 7.54866 22.8435 7.16396 23.5004M4.98571 20.2194C4.68797 20.2517 4.39202 20.3439 4.11597 20.5008C3.04882 21.1071 2.68319 22.4499 3.29931 23.5C3.91543 24.5502 5.27998 24.91 6.34713 24.3037C6.69905 24.1037 6.97467 23.8237 7.16396 23.5004M7.16396 23.5004L14.5673 27.7067M14.5673 27.7067C14.9531 27.0504 15.6742 26.6088 16.5 26.6088C17.3257 26.6088 18.0466 27.0501 18.4324 27.7061M14.5673 27.7067C14.3775 28.0296 14.2689 28.4045 14.2689 28.8044C14.2689 30.017 15.2678 31 16.5 31C17.7323 31 18.7312 30.017 18.7312 28.8044C18.7312 28.4043 18.6224 28.0292 18.4324 27.7061M18.4324 27.7061L25.8357 23.4999M25.8357 23.4999C26.025 23.8234 26.3008 24.1036 26.6529 24.3036C27.72 24.9099 29.0846 24.5501 29.7007 23.5C30.3168 22.4499 29.9512 21.107 28.884 20.5007C28.6076 20.3437 28.3112 20.2515 28.0131 20.2193M25.8357 23.4999C25.4513 22.8431 25.4234 22.008 25.8362 21.3044C26.2927 20.5263 27.1602 20.1272 28.0131 20.2193M28.0131 20.2193V11.7807M26.128 8.10882C25.4831 8.79646 25.3358 9.84259 25.8362 10.6956C26.2928 11.4737 27.1602 11.8728 28.0131 11.7807M26.128 8.10882C26.277 7.94992 26.4526 7.81017 26.6529 7.69636C27.72 7.09006 29.0846 7.44986 29.7007 8.50001C30.3168 9.55015 29.9512 10.893 28.884 11.4993C28.6076 11.6563 28.3112 11.7485 28.0131 11.7807" stroke="black" stroke-width="1.3" stroke-linecap="round" stroke-linejoin="round"/>
<mask id="path-2-inside-1_624_544" fill="white">
<rect x="11" y="13.8838" width="10.4652" height="8.33556" rx="1.03956"/>
</mask>
<rect x="11" y="13.8838" width="10.4652" height="8.33556" rx="1.03956" stroke="black" stroke-width="2.6" mask="url(#path-2-inside-1_624_544)"/>
<path fill-rule="evenodd" clip-rule="evenodd" d="M15.5928 11.3H16.6602C17.3742 11.3 17.953 11.8788 17.953 12.5928V13.8837H19.253V12.5928C19.253 11.1608 18.0921 10 16.6602 10H15.5928C14.1608 10 13 11.1608 13 12.5928V13.8837H14.3V12.5928C14.3 11.8788 14.8788 11.3 15.5928 11.3Z" fill="black"/>
<path d="M16.2333 17.359V18.7464" stroke="black" stroke-width="1.3" stroke-linecap="round" stroke-linejoin="round"/>
</g>
<defs>
<clipPath id="clip0_624_544">
<rect width="32" height="32" fill="white"/>
</clipPath>
</defs>
</svg>
