<svg width="32" height="32" viewBox="0 0 32 32" fill="none" xmlns="http://www.w3.org/2000/svg">
<path fill-rule="evenodd" clip-rule="evenodd" d="M13 6.5H7C6.72386 6.5 6.5 6.72386 6.5 7V13C6.5 13.2761 6.72386 13.5 7 13.5H13C13.2761 13.5 13.5 13.2761 13.5 13V7C13.5 6.72386 13.2761 6.5 13 6.5ZM7 5C5.89543 5 5 5.89543 5 7V13C5 14.1046 5.89543 15 7 15H13C14.1046 15 15 14.1046 15 13V7C15 5.89543 14.1046 5 13 5H7ZM26.5 19C26.5 18.7239 26.2761 18.5 26 18.5H20C19.7239 18.5 19.5 18.7239 19.5 19V25C19.5 25.2761 19.7239 25.5 20 25.5H26C26.2761 25.5 26.5 25.2761 26.5 25V19ZM20 17C18.8954 17 18 17.8954 18 19V25C18 26.1046 18.8954 27 20 27H26C27.1046 27 28 26.1046 28 25V19C28 17.8954 27.1046 17 26 17H20ZM10.15 25.8C8.13416 25.8 6.5 24.1658 6.5 22.15C6.5 20.1342 8.13416 18.5 10.15 18.5C12.1658 18.5 13.8 20.1342 13.8 22.15C13.8 24.1658 12.1658 25.8 10.15 25.8ZM5 22.15C5 19.3057 7.30573 17 10.15 17C12.9943 17 15.3 19.3057 15.3 22.15C15.3 24.9943 12.9943 27.3 10.15 27.3C7.30573 27.3 5 24.9943 5 22.15ZM18.25 10C18.25 9.58579 18.5858 9.25 19 9.25H22.25V6C22.25 5.58579 22.5858 5.25 23 5.25C23.4142 5.25 23.75 5.58579 23.75 6V9.25H27C27.4142 9.25 27.75 9.58579 27.75 10C27.75 10.4142 27.4142 10.75 27 10.75H23.75V14C23.75 14.4142 23.4142 14.75 23 14.75C22.5858 14.75 22.25 14.4142 22.25 14V10.75H19C18.5858 10.75 18.25 10.4142 18.25 10Z" fill="black"/>
</svg>
