<svg width="32" height="32" viewBox="0 0 32 32" fill="none" xmlns="http://www.w3.org/2000/svg">
<circle cx="13.5" cy="8.5" r="4.5" stroke="black" stroke-width="1.5"/>
<path d="M24 26C24 21.0294 19.299 17 13.5 17C7.70101 17 3 21.0294 3 26" stroke="black" stroke-width="1.5"/>
<mask id="path-3-inside-1_624_530" fill="white">
<path fill-rule="evenodd" clip-rule="evenodd" d="M19.4206 16.3175C18.6048 16.5903 18.0548 17.3541 18.0548 18.2143V22.36C18.0548 22.3657 18.0548 22.3714 18.0548 22.3771C18.0548 22.3829 18.0548 22.3886 18.0548 22.3943V22.6222H18.0643C18.2516 25.0449 21.1605 27.1061 22.6551 28.0114C23.1947 28.3382 23.8601 28.3382 24.3996 28.0114C25.8943 27.1061 28.8032 25.0449 28.9905 22.6222H29V18.2143C29 17.3541 28.4501 16.5903 27.6343 16.3175L23.5274 14.9442L19.4206 16.3175Z"/>
</mask>
<path fill-rule="evenodd" clip-rule="evenodd" d="M19.4206 16.3175C18.6048 16.5903 18.0548 17.3541 18.0548 18.2143V22.36C18.0548 22.3657 18.0548 22.3714 18.0548 22.3771C18.0548 22.3829 18.0548 22.3886 18.0548 22.3943V22.6222H18.0643C18.2516 25.0449 21.1605 27.1061 22.6551 28.0114C23.1947 28.3382 23.8601 28.3382 24.3996 28.0114C25.8943 27.1061 28.8032 25.0449 28.9905 22.6222H29V18.2143C29 17.3541 28.4501 16.5903 27.6343 16.3175L23.5274 14.9442L19.4206 16.3175Z" fill="#F6F8FA"/>
<path d="M19.4206 16.3175L19.8962 17.7401L19.4206 16.3175ZM18.0548 22.36L19.5548 22.3682V22.36H18.0548ZM18.0548 22.3943H19.5548L19.5548 22.3861L18.0548 22.3943ZM18.0548 22.6222H16.5548V24.1222H18.0548V22.6222ZM18.0643 22.6222L19.5598 22.5066L19.4528 21.1222H18.0643V22.6222ZM22.6551 28.0114L21.878 29.2944L22.6551 28.0114ZM24.3996 28.0114L23.6225 26.7284L23.6225 26.7284L24.3996 28.0114ZM28.9905 22.6222V21.1222H27.602L27.4949 22.5066L28.9905 22.6222ZM29 22.6222V24.1222H30.5V22.6222H29ZM27.6343 16.3175L28.11 14.8949V14.8949L27.6343 16.3175ZM23.5274 14.9442L24.0031 13.5216L23.5274 13.3626L23.0517 13.5216L23.5274 14.9442ZM19.5548 18.2143C19.5548 17.9992 19.6923 17.8083 19.8962 17.7401L18.9449 14.8949C17.5173 15.3723 16.5548 16.709 16.5548 18.2143H19.5548ZM19.5548 22.36V18.2143H16.5548V22.36H19.5548ZM19.5548 22.3771C19.5548 22.3742 19.5548 22.3712 19.5548 22.3682L16.5548 22.3517C16.5548 22.3602 16.5548 22.3687 16.5548 22.3771H19.5548ZM19.5548 22.3861C19.5548 22.3831 19.5548 22.3801 19.5548 22.3771H16.5548C16.5548 22.3856 16.5548 22.3941 16.5548 22.4025L19.5548 22.3861ZM19.5548 22.6222V22.3943H16.5548V22.6222H19.5548ZM18.0643 21.1222H18.0548V24.1222H18.0643V21.1222ZM23.4323 26.7284C22.7333 26.305 21.7447 25.6343 20.9266 24.8216C20.075 23.9757 19.6117 23.1775 19.5598 22.5066L16.5687 22.7378C16.7042 24.4896 17.7889 25.9333 18.8123 26.95C19.8691 27.9998 21.0824 28.8125 21.878 29.2944L23.4323 26.7284ZM23.6225 26.7284C23.5883 26.7491 23.556 26.7565 23.5274 26.7565C23.4987 26.7565 23.4665 26.7491 23.4323 26.7284L21.878 29.2944C22.8952 29.9106 24.1595 29.9106 25.1768 29.2944L23.6225 26.7284ZM27.4949 22.5066C27.4431 23.1775 26.9797 23.9757 26.1282 24.8216C25.3101 25.6343 24.3215 26.305 23.6225 26.7284L25.1768 29.2944C25.9724 28.8125 27.1856 27.9998 28.2425 26.95C29.2658 25.9333 30.3506 24.4896 30.486 22.7378L27.4949 22.5066ZM29 21.1222H28.9905V24.1222H29V21.1222ZM27.5 18.2143V22.6222H30.5V18.2143H27.5ZM27.1586 17.7401C27.3625 17.8083 27.5 17.9992 27.5 18.2143H30.5C30.5 16.709 29.5376 15.3723 28.11 14.8949L27.1586 17.7401ZM23.0517 16.3668L27.1586 17.7401L28.11 14.8949L24.0031 13.5216L23.0517 16.3668ZM19.8962 17.7401L24.0031 16.3668L23.0517 13.5216L18.9449 14.8949L19.8962 17.7401Z" fill="black" mask="url(#path-3-inside-1_624_530)"/>
</svg>
