<svg width="12" height="12" viewBox="0 0 12 12" fill="none" xmlns="http://www.w3.org/2000/svg">
<path d="M9.23163 11.9859H2.76837C1.23907 11.9859 0 10.7412 0 9.21193V5.07614C0 4.31706 0.468837 3.36265 1.07163 2.89382L4.08 0.549643C4.98419 -0.153606 6.42977 -0.187094 7.36744 0.471504L10.8167 2.88823C11.4809 3.35149 12 4.34497 12 5.15428V9.21752C12 10.7412 10.7609 11.9859 9.23163 11.9859ZM4.59349 1.20824L1.58512 3.55242C1.18884 3.86497 0.837209 4.57381 0.837209 5.07614V9.21193C0.837209 10.278 1.70233 11.1487 2.76837 11.1487H9.23163C10.2977 11.1487 11.1628 10.2836 11.1628 9.21752V5.15428C11.1628 4.61846 10.7777 3.87613 10.3367 3.57474L6.88744 1.15801C6.25116 0.711503 5.20186 0.733828 4.59349 1.20824Z" fill="black"/>
<path d="M6.00009 9.75331C5.77125 9.75331 5.58148 9.56355 5.58148 9.33471V7.6603C5.58148 7.43147 5.77125 7.2417 6.00009 7.2417C6.22892 7.2417 6.41869 7.43147 6.41869 7.6603V9.33471C6.41869 9.56355 6.22892 9.75331 6.00009 9.75331Z" fill="black"/>
</svg>
