<svg width="30" height="31" viewBox="0 0 30 31" fill="none" xmlns="http://www.w3.org/2000/svg">
<path fill-rule="evenodd" clip-rule="evenodd" d="M6.19983 4.99902C6.19983 3.61831 7.31912 2.49902 8.69984 2.49902L20.7989 2.49902C20.9364 2.49902 21.0678 2.55561 21.1622 2.65549L26.2213 8.00568C26.3091 8.09852 26.358 8.22145 26.358 8.34922L26.358 24.999C26.358 26.3797 25.2387 27.499 23.858 27.499L8.69983 27.499C7.31912 27.499 6.19983 26.3797 6.19983 24.999L6.19983 15.9094C6.19983 15.6333 6.42369 15.4094 6.69983 15.4094C6.97598 15.4094 7.19983 15.6333 7.19983 15.9094L7.19983 24.999C7.19983 25.8274 7.87141 26.499 8.69983 26.499L23.858 26.499C24.6865 26.499 25.358 25.8275 25.358 24.999L25.358 8.84922L20.7989 8.84922C20.5228 8.84922 20.2989 8.62536 20.2989 8.34922V3.49902L8.69984 3.49902C7.87141 3.49902 7.19983 4.1706 7.19983 4.99902V5.23017C7.19983 5.50631 6.97598 5.73017 6.69983 5.73017C6.42369 5.73017 6.19983 5.50631 6.19983 5.23017V4.99902ZM21.2989 4.25552L24.6971 7.84922L21.2989 7.84922V4.25552Z" fill="black"/>
<path fill-rule="evenodd" clip-rule="evenodd" d="M17.806 13.5062C18.0612 13.6118 18.1824 13.9043 18.0768 14.1594L15.4029 20.6178C15.2973 20.8729 15.0049 20.9941 14.7497 20.8885C14.4946 20.7829 14.3734 20.4904 14.479 20.2353L17.1528 13.7769C17.2584 13.5217 17.5509 13.4005 17.806 13.5062ZM13.1356 14.1239C13.3088 14.339 13.2749 14.6538 13.0598 14.827L10.1162 17.1975L13.0598 19.568C13.2749 19.7412 13.3088 20.0559 13.1356 20.271C12.9624 20.4861 12.6477 20.52 12.4326 20.3468L9.0054 17.5869C8.88754 17.492 8.819 17.3488 8.819 17.1975C8.819 17.0461 8.88754 16.903 9.0054 16.808L12.4326 14.0481C12.6477 13.8749 12.9624 13.9089 13.1356 14.1239ZM19.4201 14.1239C19.5933 13.9089 19.9081 13.8749 20.1232 14.0481L23.5504 16.808C23.6682 16.903 23.7368 17.0461 23.7368 17.1975C23.7368 17.3488 23.6682 17.492 23.5504 17.5869L20.1232 20.3468C19.9081 20.52 19.5933 20.4861 19.4201 20.271C19.2469 20.0559 19.2809 19.7412 19.496 19.568L22.4396 17.1975L19.496 14.827C19.2809 14.6538 19.2469 14.339 19.4201 14.1239Z" fill="black"/>
<path fill-rule="evenodd" clip-rule="evenodd" d="M11.065 10.4788C10.6541 10.0387 10.0374 9.4522 9.29381 8.9669C8.48489 8.43899 7.59599 8.07643 6.70001 8.07643C5.80402 8.07643 4.91513 8.43899 4.10621 8.9669C3.36257 9.4522 2.74595 10.0387 2.335 10.4788C2.74595 10.9189 3.36257 11.5054 4.10621 11.9907C4.91513 12.5186 5.80402 12.8812 6.70001 12.8812C7.59599 12.8812 8.48489 12.5186 9.29381 11.9907C10.0374 11.5054 10.6541 10.9189 11.065 10.4788ZM11.8997 11.0486C12.198 10.7207 12.198 10.2369 11.8997 9.90898C11.0188 8.94031 9.02213 7.07643 6.70001 7.07643C4.37789 7.07643 2.38118 8.94031 1.50028 9.90898C1.20205 10.2369 1.20205 10.7207 1.50028 11.0486C2.38118 12.0173 4.37789 13.8812 6.70001 13.8812C9.02213 13.8812 11.0188 12.0173 11.8997 11.0486Z" fill="black"/>
<path fill-rule="evenodd" clip-rule="evenodd" d="M6.69994 11.4832C7.23581 11.4832 7.68433 11.0446 7.68433 10.479C7.68433 9.9134 7.23582 9.47478 6.69994 9.47478C6.16407 9.47478 5.71557 9.91339 5.71557 10.479C5.71557 11.0446 6.16408 11.4832 6.69994 11.4832ZM6.69994 12.4832C7.79745 12.4832 8.68433 11.5875 8.68433 10.479C8.68433 9.37051 7.79745 8.47478 6.69994 8.47478C5.60243 8.47478 4.71557 9.37051 4.71557 10.479C4.71557 11.5875 5.60243 12.4832 6.69994 12.4832Z" fill="black"/>
</svg>
