<svg width="80" height="80" viewBox="0 0 80 80" fill="none" xmlns="http://www.w3.org/2000/svg">
<g clip-path="url(#clip0_624_609)">
<rect width="80" height="80" fill="white"/>
<path d="M5.03727 34.0499C4.88147 34.0499 4.84252 33.972 4.92042 33.8552L5.73839 32.8035C5.81629 32.6867 6.01104 32.6088 6.16684 32.6088H20.0722C20.2281 32.6088 20.267 32.7256 20.1891 32.8425L19.5269 33.8552C19.449 33.972 19.2543 34.0889 19.1374 34.0889L5.03727 34.0499Z" fill="#00ACD7"/>
<path d="M-0.844197 37.6334C-1 37.6334 -1.03895 37.5555 -0.961049 37.4386L-0.143084 36.387C-0.0651829 36.2701 0.129571 36.1922 0.285373 36.1922H18.0469C18.2027 36.1922 18.2806 36.3091 18.2417 36.4259L17.93 37.3607C17.8911 37.5165 17.7353 37.5944 17.5795 37.5944L-0.844197 37.6334Z" fill="#00ACD7"/>
<path d="M8.58195 41.2168C8.42615 41.2168 8.3872 41.1 8.4651 40.9831L9.01041 40.0093C9.08831 39.8925 9.24411 39.7756 9.39992 39.7756H17.1901C17.3459 39.7756 17.4238 39.8925 17.4238 40.0483L17.3459 40.9831C17.3459 41.1389 17.1901 41.2558 17.0732 41.2558L8.58195 41.2168Z" fill="#00ACD7"/>
<path d="M49.0128 33.3488C46.5589 33.972 44.884 34.4394 42.469 35.0627C41.8848 35.2185 41.8458 35.2574 41.3395 34.6731C40.7552 34.011 40.3268 33.5825 39.5088 33.193C37.0549 31.9855 34.6789 32.3361 32.4587 33.7773C29.8101 35.4911 28.4468 38.0229 28.4857 41.1779C28.5247 44.294 30.667 46.8647 33.7441 47.2932C36.3927 47.6437 38.6129 46.7089 40.3657 44.7224C40.7163 44.294 41.0279 43.8266 41.4174 43.2813C40.0152 43.2813 38.2624 43.2813 33.8999 43.2813C33.0819 43.2813 32.8872 42.7749 33.1598 42.1127C33.6662 40.9053 34.601 38.8798 35.1463 37.8671C35.2632 37.6334 35.5358 37.2439 36.1201 37.2439C38.1066 37.2439 45.4293 37.2439 50.2981 37.2439C50.2202 38.2956 50.2202 39.3472 50.0644 40.3989C49.636 43.2034 48.5843 45.7741 46.8705 48.0332C44.066 51.7336 40.4047 54.0317 35.7695 54.6549C31.9524 55.1612 28.4078 54.4212 25.2918 52.0841C22.4094 49.9029 20.7735 47.0205 20.345 43.4371C19.8387 39.1914 21.0851 35.3743 23.6559 32.0245C26.4214 28.4021 30.0827 26.104 34.5621 25.286C38.2234 24.6239 41.729 25.0523 44.884 27.1946C46.9484 28.5579 48.4285 30.4275 49.4023 32.6867C49.636 33.0372 49.4802 33.232 49.0128 33.3488Z" fill="#00ACD7"/>
<path d="M61.9055 54.8887C58.361 54.8108 55.128 53.7981 52.4015 51.461C50.1034 49.4745 48.6622 46.9427 48.1948 43.9435C47.4937 39.5421 48.7012 35.647 51.3498 32.1804C54.1932 28.4411 57.6209 26.4936 62.256 25.6756C66.229 24.9745 69.9683 25.364 73.357 27.6621C76.4341 29.7655 78.3427 32.6089 78.849 36.3481C79.5112 41.6065 77.9921 45.8911 74.3697 49.5524C71.799 52.1621 68.6439 53.7981 65.0215 54.5381C63.9699 54.7329 62.9182 54.7718 61.9055 54.8887ZM71.1757 39.1526C71.1368 38.6462 71.1368 38.2567 71.0589 37.8672C70.3578 34.0111 66.8133 31.8298 63.1129 32.6868C59.4905 33.5047 57.1535 35.8028 56.2966 39.4642C55.5955 42.5023 57.0756 45.5794 59.88 46.8259C62.0223 47.7607 64.1646 47.6438 66.229 46.5922C69.3061 44.9952 70.981 42.5023 71.1757 39.1526Z" fill="#00ACD7"/>
</g>
<defs>
<clipPath id="clip0_624_609">
<rect width="80" height="80" fill="white"/>
</clipPath>
</defs>
</svg>
