<svg width="80" height="80" viewBox="0 0 80 80" fill="none" xmlns="http://www.w3.org/2000/svg">
<rect width="80" height="80" fill="white"/>
<path d="M39.4551 16.0004C37.4975 16.0095 35.628 16.1764 33.9831 16.4675C29.1372 17.3236 28.2574 19.1155 28.2574 22.4201V26.7844H39.7087V28.2391H28.2574H23.9599C20.6318 28.2391 17.7177 30.2395 16.8061 34.0448C15.7547 38.4067 15.7081 41.1285 16.8061 45.683C17.6201 49.0731 19.5641 51.4887 22.8921 51.4887H26.8294V46.2569C26.8294 42.4772 30.0996 39.1432 33.9831 39.1432H45.421C48.6049 39.1432 51.1467 36.5217 51.1467 33.3241V22.4201C51.1467 19.3167 48.5286 16.9855 45.421 16.4675C43.4539 16.1401 41.4128 15.9913 39.4551 16.0004ZM33.2624 19.5105C34.4452 19.5105 35.4112 20.4922 35.4112 21.6993C35.4112 22.9022 34.4452 23.8748 33.2624 23.8748C32.0753 23.8748 31.1136 22.9022 31.1136 21.6993C31.1136 20.4922 32.0753 19.5105 33.2624 19.5105Z" fill="url(#paint0_linear_624_591)"/>
<path d="M52.5748 28.2393V33.3243C52.5748 37.2666 49.2324 40.5848 45.421 40.5848H33.9831C30.85 40.5848 28.2574 43.2662 28.2574 46.4038V57.3079C28.2574 60.4113 30.956 62.2366 33.9831 63.127C37.6079 64.1928 41.084 64.3854 45.421 63.127C48.3039 62.2923 51.1467 60.6125 51.1467 57.3079V52.9436H39.7087V51.4888H51.1467H56.8723C60.2004 51.4888 61.4406 49.1674 62.598 45.6831C63.7935 42.0961 63.7427 38.6465 62.598 34.045C61.7755 30.7319 60.2046 28.2393 56.8723 28.2393H52.5748ZM46.1417 55.8531C47.3288 55.8531 48.2905 56.8258 48.2905 58.0286C48.2905 59.2357 47.3288 60.2174 46.1417 60.2174C44.9589 60.2174 43.993 59.2357 43.993 58.0286C43.993 56.8258 44.9589 55.8531 46.1417 55.8531Z" fill="url(#paint1_linear_624_591)"/>
<defs>
<linearGradient id="paint0_linear_624_591" x1="16" y1="16" x2="42.4054" y2="38.5011" gradientUnits="userSpaceOnUse">
<stop stop-color="#5A9FD4"/>
<stop offset="1" stop-color="#306998"/>
</linearGradient>
<linearGradient id="paint1_linear_624_591" x1="45.8666" y1="57.6617" x2="36.3933" y2="44.3868" gradientUnits="userSpaceOnUse">
<stop stop-color="#FFD43B"/>
<stop offset="1" stop-color="#FFE873"/>
</linearGradient>
</defs>
</svg>
