<svg width="21" height="20" viewBox="0 0 21 20" fill="none" xmlns="http://www.w3.org/2000/svg">
<path fill-rule="evenodd" clip-rule="evenodd" d="M19 9.5C19 11.0521 17.9897 12.3682 16.5909 12.8266V13.8669C18.5491 13.3793 20 11.6091 20 9.5C20 7.14738 18.1946 5.21644 15.8937 5.01699C15.3914 2.72629 13.1675 1 10.5 1C7.83255 1 5.60861 2.72629 5.10626 5.01699C2.80537 5.21643 1 7.14738 1 9.5C1 11.6739 2.54144 13.4877 4.59093 13.9081V12.8808C3.09868 12.4805 2 11.1186 2 9.5C2 7.67071 3.40409 6.16829 5.19262 6.01325L5.92547 5.94973L6.08305 5.2312C6.47348 3.45085 8.24745 2 10.5 2C12.7526 2 14.5265 3.45085 14.917 5.2312L15.0745 5.94973L15.8074 6.01326C17.5959 6.16829 19 7.67071 19 9.5ZM7.94444 13V12.5H7.88745C8.65511 12.3033 9.22255 11.6068 9.22255 10.7778C9.22255 9.79593 8.42661 9 7.44477 9C6.46293 9 5.66699 9.79593 5.66699 10.7778C5.66699 11.6068 6.23443 12.3033 7.00209 12.5H6.94444V13V15.0556C6.94444 15.6078 6.49673 16.0556 5.94444 16.0556H5.49989H5.48428C5.26828 15.3171 4.58602 14.7778 3.77778 14.7778C2.79594 14.7778 2 15.5737 2 16.5555C2 17.5374 2.79594 18.3333 3.77778 18.3333C4.58601 18.3333 5.26827 17.794 5.48428 17.0556H5.49989H5.94444C7.04901 17.0556 7.94444 16.1601 7.94444 15.0556V13ZM7.44477 11.5556C7.87432 11.5556 8.22255 11.2073 8.22255 10.7778C8.22255 10.3482 7.87432 10 7.44477 10C7.01521 10 6.66699 10.3482 6.66699 10.7778C6.66699 11.2073 7.01521 11.5556 7.44477 11.5556ZM4.55556 16.5555C4.55556 16.9851 4.20733 17.3333 3.77778 17.3333C3.34822 17.3333 3 16.9851 3 16.5555C3 16.126 3.34822 15.7778 3.77778 15.7778C4.20733 15.7778 4.55556 16.126 4.55556 16.5555ZM13.6554 12.5V13V15.6667C13.6554 16.4337 14.2772 17.0556 15.0443 17.0556H15.5443V16.0556H15.0443C14.8295 16.0556 14.6554 15.8814 14.6554 15.6667V13V12.5H14.5978C15.3655 12.3033 15.9329 11.6068 15.9329 10.7778C15.9329 9.79594 15.137 9 14.1552 9C13.1733 9 12.3774 9.79594 12.3774 10.7778C12.3774 11.6068 12.9448 12.3033 13.7125 12.5H13.6554ZM13.3774 10.7778C13.3774 11.2073 13.7256 11.5556 14.1552 11.5556C14.5847 11.5556 14.9329 11.2073 14.9329 10.7778C14.9329 10.3482 14.5847 10 14.1552 10C13.7256 10 13.3774 10.3482 13.3774 10.7778ZM17.3778 17.3333C16.9483 17.3333 16.6 16.9851 16.6 16.5555C16.6 16.126 16.9483 15.7778 17.3778 15.7778C17.8074 15.7778 18.1556 16.126 18.1556 16.5555C18.1556 16.9851 17.8074 17.3333 17.3778 17.3333ZM17.3778 18.3333C16.396 18.3333 15.6 17.5374 15.6 16.5555C15.6 15.5737 16.396 14.7778 17.3778 14.7778C18.3597 14.7778 19.1556 15.5737 19.1556 16.5555C19.1556 17.5374 18.3597 18.3333 17.3778 18.3333ZM11.2998 8.5V8.4844C12.0384 8.26855 12.578 7.58617 12.578 6.77778C12.578 5.79594 11.7821 5 10.8002 5C9.8184 5 9.02246 5.79594 9.02246 6.77778C9.02246 7.58586 9.56161 8.26801 10.2998 8.48415V8.5V15V15.0714C9.56161 15.2875 9.02246 15.9697 9.02246 16.7778C9.02246 17.7596 9.8184 18.5556 10.8002 18.5556C11.7821 18.5556 12.578 17.7596 12.578 16.7778C12.578 15.9694 12.0384 15.287 11.2998 15.0712V15V8.5ZM10.8002 7.55556C11.2298 7.55556 11.578 7.20733 11.578 6.77778C11.578 6.34822 11.2298 6 10.8002 6C10.3707 6 10.0225 6.34822 10.0225 6.77778C10.0225 7.20733 10.3707 7.55556 10.8002 7.55556ZM11.578 16.7778C11.578 17.2073 11.2298 17.5556 10.8002 17.5556C10.3707 17.5556 10.0225 17.2073 10.0225 16.7778C10.0225 16.3482 10.3707 16 10.8002 16C11.2298 16 11.578 16.3482 11.578 16.7778Z" fill="#3F46FF"/>
</svg>
