<svg width="21" height="20" viewBox="0 0 21 20" fill="none" xmlns="http://www.w3.org/2000/svg">
<g clip-path="url(#clip0_638_411)">
<path d="M9.63701 15.4193H5.82278C3.43538 15.4193 1.5 13.4963 1.5 11.1242C1.5 8.81703 3.33083 6.93474 5.6277 6.83338C5.99164 4.54022 7.98964 2.78662 10.3998 2.78662C12.1023 2.78662 13.5991 3.66158 14.4597 4.98361" stroke="#3F46FF" stroke-linecap="round"/>
<path fill-rule="evenodd" clip-rule="evenodd" d="M19.0273 6.89054C18.89 6.83395 18.7395 6.80273 18.5817 6.80273H11.9231C11.2765 6.80273 10.7524 7.32687 10.7524 7.97343V14.632C10.7524 14.6918 10.7569 14.7505 10.7655 14.8079L11.7524 13.8621V12.1853H13.5022L14.5457 11.1853H11.7524V7.97343C11.7524 7.87916 11.8288 7.80273 11.9231 7.80273H18.0755L19.0273 6.89054ZM17.7262 11.1853H18.7524V10.1867L19.7524 9.2137V14.632C19.7524 15.2786 19.2282 15.8027 18.5817 15.8027H12.9808L14.0085 14.8027H18.5817C18.676 14.8027 18.7524 14.7263 18.7524 14.632V12.1853H16.6985L17.7262 11.1853Z" fill="#3F46FF"/>
<path d="M11.25 16L20 7.5" stroke="#3F46FF" stroke-linecap="round"/>
</g>
<defs>
<clipPath id="clip0_638_411">
<rect width="20" height="20" fill="white" transform="translate(0.75)"/>
</clipPath>
</defs>
</svg>
