<svg width="20" height="20" viewBox="0 0 20 20" fill="none" xmlns="http://www.w3.org/2000/svg">
<path d="M8.88701 15.4193H5.07278C2.68538 15.4193 0.75 13.4963 0.75 11.1242C0.75 8.81703 2.58083 6.93474 4.8777 6.83338C5.24164 4.54022 7.23964 2.78662 9.64985 2.78662C11.3523 2.78662 12.8491 3.66158 13.7097 4.98361" stroke="#3F46FF" stroke-linecap="round"/>
<path d="M11 8.94434V15.0554M19.0556 8.94434V15.0554" stroke="#3F46FF"/>
<path d="M19.0556 15.0554C19.0556 16.1293 17.2523 16.9998 15.0278 16.9998C12.8033 16.9998 11 16.1293 11 15.0554" stroke="#3F46FF"/>
<path d="M19.0556 8.94434C19.0556 10.0182 17.2523 10.8887 15.0278 10.8887C12.8033 10.8887 11 10.0182 11 8.94434" stroke="#3F46FF"/>
<path d="M19.0556 8.94434C19.0556 7.87047 17.2523 6.99992 15.0278 6.99992C12.8033 6.99992 11 7.87047 11 8.94434" stroke="#3F46FF"/>
<path d="M19.0556 12C19.0556 13.0739 17.3449 13.9444 15.0278 13.9444C12.7106 13.9444 11 13.2359 11 12.162" stroke="#3F46FF"/>
</svg>
