<svg width="21" height="20" viewBox="0 0 21 20" fill="none" xmlns="http://www.w3.org/2000/svg">
<g clip-path="url(#clip0_638_449)">
<path fill-rule="evenodd" clip-rule="evenodd" d="M9.89985 2.28662C7.37947 2.28662 5.26514 4.02594 4.71043 6.36742C2.33819 6.66653 0.5 8.67962 0.5 11.1242C0.5 13.7755 2.66227 15.9193 5.32278 15.9193H9.137C9.41315 15.9193 9.637 15.6955 9.637 15.4193C9.637 15.1432 9.41315 14.9193 9.137 14.9193H5.32278C3.20849 14.9193 1.5 13.2172 1.5 11.1242C1.5 9.08862 3.11615 7.42264 5.14975 7.3329L5.55754 7.3149L5.62152 6.91175C5.94715 4.85997 7.73701 3.28662 9.89985 3.28662C11.4271 3.28662 12.769 4.07087 13.5406 5.25637C13.6912 5.48781 14.001 5.5533 14.2324 5.40266C14.4638 5.25202 14.5293 4.94229 14.3787 4.71085C13.4293 3.25228 11.7776 2.28662 9.89985 2.28662ZM16.15 17.9999H16.9516H17.15H19.5203C19.8681 17.9999 20.15 17.718 20.15 17.3702V8.85998C20.15 8.43412 19.7361 8.13108 19.3301 8.25975L17.1516 8.95026V6.57506C17.1516 6.4646 17.062 6.37506 16.9516 6.37506H11.2C11.0895 6.37506 11 6.4646 11 6.57506V17.7999C11 17.9103 11.0895 17.9999 11.2 17.9999H16.15ZM19.15 9.36587L17.1516 9.99929V16.9999H19.15V9.36587ZM16.1516 7.37506V9.68401C16.1505 9.69879 16.15 9.71368 16.15 9.72867V16.9999H12V7.37506H16.1516ZM12.5 10.4999H15.5V9.49988H12.5V10.4999ZM12.5 12.9999H15.5V11.9999H12.5V12.9999ZM17.6504 12.9999V11.9999H18.6504V12.9999H17.6504ZM17.6504 14.4999V15.4999H18.6504V14.4999H17.6504ZM15.5 15.4999H12.5V14.4999H15.5V15.4999Z" fill="#3F46FF"/>
</g>
<defs>
<clipPath id="clip0_638_449">
<rect width="20" height="20" fill="white" transform="translate(0.25)"/>
</clipPath>
</defs>
</svg>
