<svg width="30" height="30" viewBox="0 0 30 30" fill="none" xmlns="http://www.w3.org/2000/svg">
<path fill-rule="evenodd" clip-rule="evenodd" d="M21.0191 18.3283C22.9027 16.6618 24.0878 14.2297 24.0878 11.5195C24.0878 6.5004 20.0191 2.43164 15 2.43164C9.98093 2.43164 5.91217 6.5004 5.91217 11.5195C5.91217 14.2557 7.1202 16.7086 9.0354 18.3762C9.70104 18.9558 10.1944 19.8155 10.1944 20.8074V21.0761C10.4886 20.906 10.8301 20.8086 11.1944 20.8086H18.8861C19.2481 20.8086 19.5876 20.9048 19.8806 21.0729V20.7425C19.8806 19.7604 20.3644 18.9075 21.0191 18.3283ZM10.1944 24.0986C10.1944 24.1445 10.1975 24.1897 10.2035 24.2339C10.2065 24.2563 10.2102 24.2783 10.2147 24.3002C10.308 24.7557 10.7112 25.0984 11.1944 25.0984H18.8861C18.8978 25.0984 18.9094 25.0982 18.9209 25.0978C19.4545 25.0767 19.8806 24.6374 19.8806 24.0986V22.7023C19.8275 22.2 19.4025 21.8086 18.8861 21.8086H11.1944C10.6452 21.8086 10.1994 22.2513 10.1944 22.7993V24.0986ZM9.1944 20.8074V22.7955L9.19436 22.8086V24.0984C9.19436 24.2021 9.20225 24.3038 9.21744 24.4032C9.22764 24.4699 9.24113 24.5356 9.25775 24.6C9.48023 25.4619 10.263 26.0986 11.1944 26.0986H15.2019H18.8806C18.9066 26.0986 18.9326 26.0981 18.9585 26.0971C20.0295 26.0591 20.8861 25.1788 20.8861 24.0984V22.8086C20.8861 22.758 20.8843 22.7078 20.8806 22.6581V20.7425C20.8806 20.0987 21.1995 19.5039 21.6817 19.0773C23.7708 17.229 25.0878 14.528 25.0878 11.5195C25.0878 5.94811 20.5713 1.43164 15 1.43164C9.42864 1.43164 4.91217 5.94811 4.91217 11.5195C4.91217 14.557 6.25469 17.281 8.37874 19.1304C8.86918 19.5574 9.1944 20.1571 9.1944 20.8074ZM14.7759 5.17493C13.9475 5.17493 13.2759 5.8465 13.2759 6.67493V6.82656C13.0373 6.91106 12.8063 7.01147 12.5841 7.1265L12.5663 7.10866C11.9805 6.52287 11.0307 6.52287 10.445 7.10866L9.99975 7.55387C9.41396 8.13965 9.41396 9.0894 9.99975 9.67519L10.0854 9.76084C10.0122 9.92275 9.94657 10.0888 9.88897 10.2586H9.68617C8.85774 10.2586 8.18617 10.9302 8.18617 11.7586V12.3883C8.18617 13.2167 8.85775 13.8883 9.68617 13.8883H9.91669C9.9573 14.0022 10.0015 14.1144 10.0493 14.2247L9.8822 14.3917C9.29641 14.9775 9.29641 15.9273 9.8822 16.5131L10.3274 16.9583C10.9132 17.5441 11.8629 17.5441 12.4487 16.9583L12.507 16.9C12.7527 17.0322 13.0096 17.1463 13.276 17.2407V17.253C13.276 18.0814 13.9475 18.753 14.776 18.753H15.4056C16.2314 18.753 16.9013 18.0857 16.9056 17.261C17.1369 17.182 17.3612 17.0881 17.5775 16.9804C18.1649 17.544 19.0979 17.5366 19.6762 16.9583L20.1214 16.5131C20.7072 15.9273 20.7072 14.9775 20.1214 14.3917L20.1171 14.3874C20.1936 14.2252 20.2625 14.0587 20.3232 13.8882C21.1473 13.8832 21.8138 13.2136 21.8138 12.3883V11.7586C21.8138 10.9427 21.1623 10.2789 20.3511 10.2591C20.2932 10.0884 20.2272 9.92142 20.1535 9.75868L20.237 9.67519C20.8228 9.0894 20.8228 8.13965 20.237 7.55387L19.7918 7.10866C19.206 6.52287 18.2563 6.52287 17.6705 7.10866L17.6537 7.12543C17.4141 7.0015 17.1642 6.89456 16.9056 6.80625V6.67493C16.9056 5.8465 16.234 5.17493 15.4056 5.17493H14.7759ZM14.2759 6.67493C14.2759 6.39879 14.4998 6.17493 14.7759 6.17493H15.4056C15.6817 6.17493 15.9056 6.39878 15.9056 6.67493V7.1771V7.56222L16.2779 7.66053C16.706 7.77354 17.1093 7.94782 17.478 8.17359L17.814 8.37936L18.0926 8.10074L18.3776 7.81576C18.5729 7.6205 18.8894 7.6205 19.0847 7.81576L19.5299 8.26097C19.7252 8.45624 19.7252 8.77282 19.5299 8.96808L19.193 9.30499L18.9301 9.56787L19.1062 9.89532C19.2729 10.2055 19.4045 10.5372 19.4955 10.8852L19.5932 11.2586H19.9793H20.3138C20.59 11.2586 20.8138 11.4825 20.8138 11.7586V12.3883C20.8138 12.6644 20.59 12.8883 20.3138 12.8883H19.9577H19.5783L19.4761 13.2537C19.3792 13.6006 19.2418 13.9308 19.0694 14.2389L18.8846 14.5691L19.1522 14.8367L19.4143 15.0988C19.6096 15.2941 19.6096 15.6107 19.4143 15.806L18.9691 16.2512C18.7739 16.4464 18.4573 16.4464 18.262 16.2512L18.0206 16.0098L17.7467 15.7359L17.4131 15.9326C17.0622 16.1395 16.681 16.3002 16.2779 16.4067L15.9056 16.505V16.8901V17.253C15.9056 17.5292 15.6817 17.753 15.4056 17.753H14.776C14.4998 17.753 14.276 17.5292 14.276 17.253V16.8743V16.494L13.9095 16.3925C13.475 16.2721 13.0666 16.0884 12.6949 15.8517L12.3565 15.6363L12.0728 15.92L11.7416 16.2512C11.5464 16.4464 11.2298 16.4464 11.0345 16.2512L10.5893 15.806C10.394 15.6107 10.394 15.2941 10.5893 15.0988L11.0052 14.683L11.2632 14.425L11.0962 14.1005C10.9582 13.8326 10.8463 13.5493 10.7638 13.2537L10.6616 12.8883H10.2822H9.68617C9.41003 12.8883 9.18617 12.6644 9.18617 12.3883V11.7586C9.18617 11.4825 9.41003 11.2586 9.68617 11.2586H10.2606H10.6467L10.7444 10.8852C10.8352 10.5379 10.9664 10.2068 11.1327 9.89715L11.3086 9.56978L11.0458 9.30702L10.7069 8.96808C10.5116 8.77282 10.5116 8.45624 10.7069 8.26097L11.1521 7.81576C11.3473 7.6205 11.6639 7.6205 11.8592 7.81576L12.1453 8.10192L12.4241 8.38068L12.7602 8.17466C13.1142 7.95764 13.5002 7.78811 13.9094 7.67475L14.2759 7.57321V7.1929V6.67493ZM15.1011 9.98499C13.9761 9.98499 13.0641 10.897 13.0641 12.0219C13.0641 13.1469 13.9761 14.0589 15.1011 14.0589C16.226 14.0589 17.138 13.1469 17.138 12.0219C17.138 10.897 16.226 9.98499 15.1011 9.98499ZM12.0641 12.0219C12.0641 10.3447 13.4238 8.98499 15.1011 8.98499C16.7783 8.98499 18.138 10.3447 18.138 12.0219C18.138 13.6992 16.7783 15.0589 15.1011 15.0589C13.4238 15.0589 12.0641 13.6992 12.0641 12.0219ZM10.9057 27.5684C10.6296 27.5684 10.4057 27.7922 10.4057 28.0684C10.4057 28.3445 10.6296 28.5684 10.9057 28.5684H19.1C19.3762 28.5684 19.6 28.3445 19.6 28.0684C19.6 27.7922 19.3762 27.5684 19.1 27.5684H10.9057Z" fill="black"/>
</svg>
