<svg width="20" height="20" viewBox="0 0 20 20" fill="none" xmlns="http://www.w3.org/2000/svg">
<path d="M15.5204 8.77551C12.8265 8.28571 12.2143 7.67347 11.7245 4.97959C11.602 4.36735 11.1122 4 10.5 4C9.88775 4 9.39796 4.36735 9.27551 4.97959C8.78571 7.67347 8.17347 8.28571 5.47959 8.77551C4.86735 8.89796 4.5 9.38775 4.5 10C4.5 10.6122 4.86735 11.102 5.47959 11.2245C8.17347 11.7143 8.78571 12.3265 9.27551 15.0204C9.39796 15.6327 9.88775 16 10.5 16C11.1122 16 11.602 15.6327 11.7245 15.0204C12.2143 12.3265 12.8265 11.7143 15.5204 11.2245C16.1327 11.102 16.5 10.6122 16.5 10C16.5 9.38775 16.1327 8.89796 15.5204 8.77551Z" fill="white"/>
<path d="M17 5C17.45 5 17.75 4.8481 18.05 4.5443C18.35 4.24051 18.5 3.93671 18.5 3.48101C18.5 3.02532 18.35 2.72152 18.05 2.41772C17.9 2.26582 17.75 2.11392 17.6 2.11392C17.3 1.96203 16.85 1.96203 16.4 2.11392C16.25 2.11392 16.1 2.26582 15.95 2.41772C15.65 2.72152 15.5 3.02532 15.5 3.48101C15.5 3.93671 15.65 4.24051 15.95 4.5443C16.25 4.8481 16.55 5 17 5Z" fill="white"/>
<path d="M4 17C4.45 17 4.75 16.8481 5.05 16.5443C5.35 16.2405 5.5 15.9367 5.5 15.481C5.5 15.0253 5.35 14.7215 5.05 14.4177C4.9 14.2658 4.75 14.1139 4.6 14.1139C4.3 13.962 3.85 13.962 3.4 14.1139C3.25 14.1139 3.1 14.2658 2.95 14.4177C2.65 14.7215 2.5 15.0253 2.5 15.481C2.5 15.9367 2.65 16.2405 2.95 16.5443C3.25 16.8481 3.55 17 4 17Z" fill="white"/>
</svg>
