<svg width="40" height="40" viewBox="0 0 40 40" fill="none" xmlns="http://www.w3.org/2000/svg">
<rect width="40" height="40" rx="20" fill="#6A57E0"/>
<path d="M18.4148 21.5834C18.545 21.7136 18.545 21.9246 18.4148 22.0548L15.5684 24.9012C15.4382 25.0314 15.2272 25.0314 15.097 24.9012C14.9668 24.7711 14.9668 24.56 15.097 24.4298L17.9434 21.5834C18.0736 21.4532 18.2846 21.4532 18.4148 21.5834Z" fill="white"/>
<path fill-rule="evenodd" clip-rule="evenodd" d="M21.996 16.7173L22.0001 15.4364L24.77 14.5671L25.4967 15.2938L24.6274 18.0638L23.3471 18.0678L21.328 20.0869L22.7716 21.5305C23.5634 21.3522 24.4276 21.571 25.0448 22.1882C25.7995 22.9429 25.9586 24.0666 25.524 24.977L25.3209 25.4025L23.8117 23.8933L23.285 24.42L24.7942 25.9293L24.3691 26.1325C23.4585 26.5677 22.3342 26.4088 21.5792 25.6538C20.962 25.0366 20.7433 24.1723 20.9216 23.3805L20.1723 22.6313L16.6798 26.1239C15.9939 26.8097 14.882 26.8097 14.1961 26.1239L13.9411 25.8688C13.2553 25.183 13.2553 24.071 13.9411 23.3852L17.4337 19.8926L16.6859 19.1449C15.8941 19.3231 15.0298 19.1044 14.4126 18.4872C13.6577 17.7323 13.4987 16.608 13.9339 15.6975L14.1371 15.2723L15.6467 16.7819L16.1734 16.2552L14.6638 14.7456L15.0893 14.5425C15.9997 14.1078 17.1235 14.2668 17.8782 15.0216C18.4954 15.6388 18.7142 16.503 18.5359 17.2948L19.9772 18.7361L21.996 16.7173ZM22.5616 17.9105L20.8566 19.6155L20.4486 19.2075L22.1536 17.5025L22.1551 17.5041L22.6716 16.9876L22.6619 16.9779L22.6652 15.9264L24.5842 15.3241L24.7397 15.4796L24.1374 17.3986L23.0859 17.4019L23.076 17.392L22.5596 17.9085L22.5616 17.9105ZM17.9051 20.364L19.7009 22.1599L16.2084 25.6525C15.7829 26.0779 15.093 26.0779 14.6676 25.6525L14.4125 25.3974C13.987 24.9719 13.987 24.2821 14.4125 23.8566L17.9051 20.364ZM15.8551 14.9941L17.1162 16.2552L15.6467 17.7247L14.3852 16.4633C14.2951 17.0114 14.4616 17.5934 14.884 18.0158C15.3709 18.5027 16.0696 18.6497 16.685 18.4552L16.878 18.3941L21.6723 23.1884L21.6112 23.3814C21.4167 23.9968 21.5637 24.6955 22.0506 25.1824C22.4731 25.6048 23.0551 25.7714 23.6033 25.6811L22.3422 24.42L23.8117 22.9505L25.0724 24.2112C25.1622 23.6633 24.9956 23.0817 24.5734 22.6596C24.0866 22.1727 23.3879 22.0256 22.7725 22.2202L22.5795 22.2812L17.7852 17.4869L17.8462 17.2939C18.0408 16.6785 17.8937 15.9799 17.4068 15.493C16.9846 15.0708 16.403 14.9042 15.8551 14.9941Z" fill="white"/>
<path d="M12.7653 30.4351C12.7653 30.251 12.9145 30.1017 13.0986 30.1017H15.7653C15.9494 30.1017 16.0986 30.251 16.0986 30.4351C16.0986 30.6192 15.9494 30.7684 15.7653 30.7684H13.0986C12.9145 30.7684 12.7653 30.6192 12.7653 30.4351Z" fill="white"/>
<path d="M17.7653 30.1017C17.5812 30.1017 17.4319 30.251 17.4319 30.4351C17.4319 30.6192 17.5812 30.7684 17.7653 30.7684H27.4319C27.616 30.7684 27.7653 30.6192 27.7653 30.4351C27.7653 30.251 27.616 30.1017 27.4319 30.1017H17.7653Z" fill="white"/>
<path fill-rule="evenodd" clip-rule="evenodd" d="M29.1224 32.3574V8.99984C29.1224 8.26346 28.5254 7.6665 27.789 7.6665H11.667C10.9306 7.6665 10.3336 8.26346 10.3336 8.99984V31.024C10.3336 31.7604 10.9306 32.3574 11.667 32.3574H12.1357L12.1432 32.3574L29.1224 32.3574ZM27.789 8.33317H27.0888V12.6514C27.0888 13.0196 26.7903 13.3181 26.4222 13.3181H26.2714L24.7372 12.0727L23.2029 13.3181H23.0524C22.6842 13.3181 22.3857 13.0196 22.3857 12.6514V8.33317L11.667 8.33317C11.2988 8.33317 11.0003 8.63165 11.0003 8.99984V29.1447C11.3119 28.8906 11.7098 28.7382 12.1432 28.7382H28.4557V8.99984C28.4557 8.63165 28.1572 8.33317 27.789 8.33317ZM28.4557 31.6907L28.4554 29.4048H12.1432C11.512 29.4048 11.0003 29.9166 11.0003 30.5478C11.0003 31.177 11.5088 31.6875 12.1373 31.6907H28.4557ZM23.0524 8.33317L26.4222 8.33317V12.5818L25.1573 11.5551C24.9124 11.3564 24.5619 11.3564 24.317 11.5551L23.0524 12.5816V8.33317Z" fill="white"/>
</svg>
