<?xml version="1.0" encoding="iso-8859-1"?>
<!-- Uploaded to: SVG Repo, www.svgrepo.com, Generator: SVG Repo Mixer Tools -->
<svg fill="#000000" height="800px" width="800px" version="1.1" id="Layer_1" xmlns="http://www.w3.org/2000/svg" xmlns:xlink="http://www.w3.org/1999/xlink" 
	 viewBox="0 0 512 512" xml:space="preserve">
<g>
	<g>
		<path d="M298.667,302.933c-5.12,0-8.533,3.413-8.533,8.533v25.6c0,5.12,3.413,8.533,8.533,8.533s8.533-3.413,8.533-8.533v-25.6
			C307.2,306.347,303.787,302.933,298.667,302.933z"/>
	</g>
</g>
<g>
	<g>
		<path d="M332.8,268.8c-5.12,0-8.533,3.413-8.533,8.533v59.733c0,5.12,3.413,8.533,8.533,8.533c5.12,0,8.533-3.413,8.533-8.533
			v-59.733C341.333,272.213,337.92,268.8,332.8,268.8z"/>
	</g>
</g>
<g>
	<g>
		<path d="M366.933,285.867c-5.12,0-8.533,3.413-8.533,8.533v42.667c0,5.12,3.413,8.533,8.533,8.533s8.533-3.413,8.533-8.533V294.4
			C375.467,289.28,372.053,285.867,366.933,285.867z"/>
	</g>
</g>
<g>
	<g>
		<path d="M401.067,226.133c-5.12,0-8.533,3.413-8.533,8.533v102.4c0,5.12,3.413,8.533,8.533,8.533c5.12,0,8.533-3.413,8.533-8.533
			v-102.4C409.6,229.547,406.187,226.133,401.067,226.133z"/>
	</g>
</g>
<g>
	<g>
		<path d="M435.2,260.267c-5.12,0-8.533,3.413-8.533,8.533v68.267c0,5.12,3.413,8.533,8.533,8.533s8.533-3.413,8.533-8.533V268.8
			C443.733,263.68,440.32,260.267,435.2,260.267z"/>
	</g>
</g>
<g>
	<g>
		<path d="M166.4,123.733c-53.76,0-98.133,44.373-98.133,98.133S112.64,320,166.4,320s98.133-44.373,98.133-98.133
			S220.16,123.733,166.4,123.733z M166.4,302.933c-44.373,0-81.067-36.693-81.067-81.067c0-44.373,36.693-81.067,81.067-81.067
			s81.067,36.693,81.067,81.067S210.773,302.933,166.4,302.933z"/>
	</g>
</g>
<g>
	<g>
		<path d="M236.373,152.747c-19.627-19.627-46.933-29.867-74.24-29.013c-2.56,0-4.267,0.853-5.973,2.56
			c-1.707,1.707-2.56,3.413-2.56,5.973v93.867c0,4.267,3.413,8.533,8.533,8.533H256c1.707,0,4.267-0.853,6.827-1.707
			c1.707-1.707,2.56-3.413,2.56-5.973C266.24,198.827,256,172.373,236.373,152.747z M170.667,217.6v-76.8
			c20.48,0.853,38.4,9.387,52.907,23.893c14.507,14.507,23.04,32.427,23.893,52.907H170.667z"/>
	</g>
</g>
<g>
	<g>
		<path d="M231.253,283.307l-63.147-63.147c-3.413-3.413-8.533-3.413-11.947,0s-3.413,8.533,0,11.947l63.147,63.147
			c1.707,1.707,3.413,2.56,5.973,2.56s4.267-0.853,5.973-2.56C234.667,291.84,234.667,286.72,231.253,283.307z"/>
	</g>
</g>
<g>
	<g>
		<path d="M392.533,157.867h-68.267c-5.12,0-8.533,3.413-8.533,8.533c0,5.12,3.413,8.533,8.533,8.533h68.267
			c5.12,0,8.533-3.413,8.533-8.533C401.067,161.28,397.653,157.867,392.533,157.867z"/>
	</g>
</g>
<g>
	<g>
		<path d="M442.027,160.427c-0.853,0-0.853-0.853-1.707-0.853c-0.853,0-0.853-0.853-1.707-0.853
			c-0.853-0.853-0.853-0.853-1.707-0.853c-2.56,0-5.973,0.853-7.68,2.56s-2.56,3.413-2.56,5.973c0,1.707,0.853,2.56,0.853,3.413
			s0.853,1.707,1.707,2.56c1.707,1.707,3.413,2.56,5.973,2.56c0.853,0,0.853,0,0.853,0c0.853-0.853,0.853-0.853,1.707-0.853
			s1.707-0.853,1.707-0.853c0.853,0,1.707-0.853,1.707-0.853c1.707-1.707,2.56-3.413,2.56-5.973S442.88,162.133,442.027,160.427z"/>
	</g>
</g>
<g>
	<g>
		<path d="M435.2,115.2h-25.6c-5.12,0-8.533,3.413-8.533,8.533s3.413,8.533,8.533,8.533h25.6c5.12,0,8.533-3.413,8.533-8.533
			S440.32,115.2,435.2,115.2z"/>
	</g>
</g>
<g>
	<g>
		<path d="M341.333,115.2h-17.067c-5.12,0-8.533,3.413-8.533,8.533s3.413,8.533,8.533,8.533h17.067c5.12,0,8.533-3.413,8.533-8.533
			S346.453,115.2,341.333,115.2z"/>
	</g>
</g>
<g>
	<g>
		<path d="M381.44,117.76c-0.853-0.853-1.707-0.853-2.56-1.707c-3.413-1.707-6.827-0.853-9.387,1.707
			c-1.707,1.707-2.56,3.413-2.56,5.973s0.853,4.267,2.56,5.973s3.413,2.56,5.973,2.56s4.267-0.853,5.973-2.56
			c1.707-1.707,2.56-3.413,2.56-5.973S383.147,119.467,381.44,117.76z"/>
	</g>
</g>
<g>
	<g>
		<path d="M503.467,371.2h-179.2c-5.12,0-8.533,3.413-8.533,8.533v8.533H196.267v-8.533c0-5.12-3.413-8.533-8.533-8.533H8.533
			c-5.12,0-8.533,3.413-8.533,8.533v25.6c0,14.507,11.093,25.6,25.6,25.6h460.8c14.507,0,25.6-11.093,25.6-25.6v-25.6
			C512,374.613,508.587,371.2,503.467,371.2z M494.933,405.333c0,5.12-3.413,8.533-8.533,8.533H25.6
			c-5.12,0-8.533-3.413-8.533-8.533v-17.067H179.2v8.533c0,5.12,3.413,8.533,8.533,8.533h136.533c5.12,0,8.533-3.413,8.533-8.533
			v-8.533h162.133V405.333z"/>
	</g>
</g>
<g>
	<g>
		<path d="M452.267,81.067H59.733c-14.507,0-25.6,11.093-25.6,25.6v273.067c0,5.12,3.413,8.533,8.533,8.533H179.2v8.533
			c0,5.12,3.413,8.533,8.533,8.533h136.533c5.12,0,8.533-3.413,8.533-8.533v-8.533h136.533c5.12,0,8.533-3.413,8.533-8.533V106.667
			C477.867,92.16,466.773,81.067,452.267,81.067z M460.8,371.2H324.267c-5.12,0-8.533,3.413-8.533,8.533v8.533H196.267v-8.533
			c0-5.12-3.413-8.533-8.533-8.533H51.2V106.667c0-5.12,3.413-8.533,8.533-8.533h392.533c5.12,0,8.533,3.413,8.533,8.533V371.2z"/>
	</g>
</g>
</svg>