<svg width="30" height="30" viewBox="0 0 30 30" fill="none" xmlns="http://www.w3.org/2000/svg">
<path d="M5.40416 20.8486V21.919C3.00552 21.4441 1.19702 19.3284 1.19702 16.7904C1.19702 14.2345 3.03107 12.1069 5.45491 11.652C5.42218 11.3804 5.40534 11.1038 5.40534 10.8234C5.40534 7.03686 8.47492 3.96729 12.2614 3.96729C14.7817 3.96729 16.9843 5.32709 18.1756 7.35304C18.48 7.2935 18.7945 7.2623 19.1163 7.2623C21.3363 7.2623 23.2095 8.74735 23.7966 10.7782C26.6131 11.092 28.803 13.4807 28.803 16.3809C28.803 19.1373 26.8249 21.4316 24.2108 21.9217V20.8544C26.2436 20.3813 27.7584 18.5579 27.7584 16.3809C27.7584 14.0188 25.9744 12.072 23.6809 11.8165L22.987 11.7392L22.793 11.0684C22.3316 9.47235 20.8587 8.30694 19.1163 8.30694C18.8622 8.30694 18.6148 8.33157 18.3762 8.37825L17.6502 8.52029L17.2751 7.88257C16.2637 6.16258 14.3964 5.01193 12.2614 5.01193C9.05186 5.01193 6.44999 7.6138 6.44999 10.8234C6.44999 11.062 6.46431 11.2968 6.49205 11.527L6.60905 12.4982L5.64761 12.6787C3.70867 13.0426 2.24167 14.7463 2.24167 16.7904C2.24167 18.7487 3.58727 20.3929 5.40416 20.8486Z" fill="black"/>
<path fill-rule="evenodd" clip-rule="evenodd" d="M11.08 15.0717C11.3684 15.0717 11.6023 15.3056 11.6023 15.594L11.6023 24.2499L13.114 22.7382C13.318 22.5342 13.6487 22.5342 13.8527 22.7382C14.0566 22.9422 14.0566 23.2729 13.8527 23.4769L11.4492 25.8804C11.2452 26.0843 10.9145 26.0843 10.7105 25.8804L8.30699 23.4769C8.10301 23.2729 8.10301 22.9422 8.30699 22.7382C8.51097 22.5342 8.84168 22.5342 9.04566 22.7382L10.5576 24.2502L10.5576 15.594C10.5576 15.3056 10.7915 15.0717 11.08 15.0717ZM18.5506 15.2248C18.7545 15.0208 19.0853 15.0208 19.2892 15.2248L21.6926 17.6282C21.8966 17.8322 21.8966 18.1629 21.6926 18.3669C21.4886 18.5709 21.1579 18.5709 20.9539 18.3669L19.4422 16.8551V24.9715C19.4422 25.26 19.2084 25.4938 18.9199 25.4938C18.6314 25.4938 18.3976 25.26 18.3976 24.9715V16.855L16.8856 18.3669C16.6816 18.5709 16.3509 18.5709 16.1469 18.3669C15.9429 18.1629 15.9429 17.8322 16.1469 17.6282L18.5506 15.2248Z" fill="black"/>
</svg>
