<svg width="30" height="30" viewBox="0 0 30 30" fill="none" xmlns="http://www.w3.org/2000/svg">
<path fill-rule="evenodd" clip-rule="evenodd" d="M16.3716 2.98975C16.3716 3.74779 15.7571 4.3623 14.999 4.3623C14.241 4.3623 13.6265 3.74779 13.6265 2.98975C13.6265 2.2317 14.241 1.61719 14.999 1.61719C15.7571 1.61719 16.3716 2.2317 16.3716 2.98975ZM17.3716 2.98975C17.3716 4.30007 16.3094 5.3623 14.999 5.3623C13.6887 5.3623 12.6265 4.30007 12.6265 2.98975C12.6265 1.67942 13.6887 0.617188 14.999 0.617188C16.3094 0.617188 17.3716 1.67942 17.3716 2.98975ZM17.3439 3.354C17.2908 3.69874 17.1635 4.01899 16.9788 4.29795L23.3621 7.98334C23.2292 8.27953 23.1553 8.60794 23.1553 8.95361C23.1553 10.2639 24.2175 11.3262 25.5278 11.3262C26.8382 11.3262 27.9004 10.2639 27.9004 8.95361C27.9004 7.64329 26.8382 6.58105 25.5278 6.58105C24.9265 6.58105 24.3775 6.80474 23.9593 7.17345L17.3439 3.354ZM25.2574 18.6891V11.3112C25.3462 11.3212 25.4364 11.3264 25.5279 11.3264C25.7824 11.3264 26.0275 11.2863 26.2574 11.2121V18.7881C27.2108 19.0959 27.9004 19.9906 27.9004 21.0464C27.9004 22.3567 26.8382 23.4189 25.5278 23.4189C24.2175 23.4189 23.1553 22.3567 23.1553 21.0464C23.1553 19.8275 24.0744 18.8233 25.2574 18.6891ZM23.9595 22.8269C23.7068 22.6041 23.5019 22.3284 23.3622 22.0171L16.9787 25.7026C16.554 25.0612 15.8259 24.6382 14.999 24.6382C14.1722 24.6382 13.4441 25.0612 13.0194 25.7026L6.63745 22.018C6.49759 22.3292 6.29258 22.6049 6.03978 22.8276L12.6543 26.6465C12.636 26.7652 12.6265 26.8869 12.6265 27.0107C12.6265 28.3211 13.6887 29.3833 14.999 29.3833C16.3094 29.3833 17.3716 28.3211 17.3716 27.0107C17.3716 26.8869 17.3621 26.7652 17.3438 26.6465L23.9595 22.8269ZM3.74072 11.2115V18.7887C2.78833 19.0971 2.09961 19.9913 2.09961 21.0464C2.09961 22.3567 3.16184 23.4189 4.47217 23.4189C5.7825 23.4189 6.84473 22.3567 6.84473 21.0464C6.84473 19.8269 5.92461 18.8222 4.74072 18.6889V11.3114C4.65259 11.3213 4.56299 11.3264 4.4722 11.3264C4.21695 11.3264 3.97112 11.2861 3.74072 11.2115ZM6.63751 7.98247L13.0193 4.29795C12.8346 4.01899 12.7073 3.69874 12.6542 3.354L6.03992 7.17279C5.62187 6.80448 5.07311 6.58105 4.47217 6.58105C3.16184 6.58105 2.09961 7.64329 2.09961 8.95361C2.09961 10.2639 3.16184 11.3262 4.47217 11.3262C5.7825 11.3262 6.84473 10.2639 6.84473 8.95361C6.84473 8.6076 6.77066 8.27889 6.63751 7.98247ZM14.999 28.3833C15.7571 28.3833 16.3716 27.7688 16.3716 27.0107C16.3716 26.2527 15.7571 25.6382 14.999 25.6382C14.241 25.6382 13.6265 26.2527 13.6265 27.0107C13.6265 27.7688 14.241 28.3833 14.999 28.3833ZM5.84473 8.95361C5.84473 9.71166 5.23021 10.3262 4.47217 10.3262C3.71412 10.3262 3.09961 9.71166 3.09961 8.95361C3.09961 8.19557 3.71412 7.58105 4.47217 7.58105C5.23021 7.58105 5.84473 8.19557 5.84473 8.95361ZM4.47217 22.4189C5.23021 22.4189 5.84473 21.8044 5.84473 21.0464C5.84473 20.2883 5.23021 19.6738 4.47217 19.6738C3.71412 19.6738 3.09961 20.2883 3.09961 21.0464C3.09961 21.8044 3.71412 22.4189 4.47217 22.4189ZM26.9004 21.0464C26.9004 21.8044 26.2859 22.4189 25.5278 22.4189C24.7698 22.4189 24.1553 21.8044 24.1553 21.0464C24.1553 20.2883 24.7698 19.6738 25.5278 19.6738C26.2859 19.6738 26.9004 20.2883 26.9004 21.0464ZM25.5278 10.3262C26.2859 10.3262 26.9004 9.71166 26.9004 8.95361C26.9004 8.19557 26.2859 7.58105 25.5278 7.58105C24.7698 7.58105 24.1553 8.19557 24.1553 8.95361C24.1553 9.71166 24.7698 10.3262 25.5278 10.3262ZM11.499 13.6709H18.499V19.6709H11.499V13.6709ZM10.499 13.6709C10.499 13.1186 10.9467 12.6709 11.499 12.6709H11.999V11.8384C11.999 10.1815 13.3422 8.83838 14.999 8.83838C16.6559 8.83838 17.999 10.1815 17.999 11.8384V12.6709H18.499C19.0513 12.6709 19.499 13.1186 19.499 13.6709V19.6709C19.499 20.2232 19.0513 20.6709 18.499 20.6709H11.499C10.9467 20.6709 10.499 20.2232 10.499 19.6709V13.6709ZM16.999 12.6709H12.999V11.8384C12.999 10.7338 13.8945 9.83838 14.999 9.83838C16.1036 9.83838 16.999 10.7338 16.999 11.8384V12.6709ZM15.499 15.2495C15.499 14.9734 15.2752 14.7495 14.999 14.7495C14.7229 14.7495 14.499 14.9734 14.499 15.2495V18.1094C14.499 18.3855 14.7229 18.6094 14.999 18.6094C15.2752 18.6094 15.499 18.3855 15.499 18.1094V15.2495Z" fill="black"/>
</svg>
