<svg width="30" height="30" viewBox="0 0 30 30" fill="none" xmlns="http://www.w3.org/2000/svg">
<path fill-rule="evenodd" clip-rule="evenodd" d="M6.16901 1.11523C5.89286 1.11523 5.66901 1.33909 5.66901 1.61523V6.98283L5.66895 6.99072L5.66901 6.99862V12.5317L5.66895 12.5396L5.66901 12.5474V17.9158C5.66901 18.1919 5.89286 18.4158 6.16901 18.4158H14.5014C14.5005 18.4281 14.5 18.4406 14.5 18.4531V20.4731H6.49402C5.66559 20.4731 4.99402 21.1447 4.99402 21.9731V24.1209H2.77936C2.50322 24.1209 2.27936 24.3447 2.27936 24.6209V28.8461C2.27936 29.1223 2.50322 29.3461 2.77936 29.3461H8.30137C8.57751 29.3461 8.80137 29.1223 8.80137 28.8461V24.6209C8.80137 24.3447 8.57751 24.1209 8.30137 24.1209H5.99402V21.9731C5.99402 21.697 6.21788 21.4731 6.49402 21.4731H14.5V24.0175C13.2138 24.2528 12.239 25.3792 12.239 26.7334C12.239 28.2582 13.4751 29.4944 15 29.4944C16.5249 29.4944 17.761 28.2582 17.761 26.7334C17.761 25.3792 16.7862 24.2528 15.5 24.0175V21.4731H23.5061C23.7822 21.4731 24.0061 21.697 24.0061 21.9731V24.1209H21.6987C21.4225 24.1209 21.1987 24.3447 21.1987 24.6209V28.8461C21.1987 29.1223 21.4225 29.3461 21.6987 29.3461H27.2207C27.4968 29.3461 27.7207 29.1223 27.7207 28.8461V24.6209C27.7207 24.3447 27.4968 24.1209 27.2207 24.1209H25.0061V21.9731C25.0061 21.1447 24.3345 20.4731 23.5061 20.4731H15.5V18.4531C15.5 18.4406 15.4995 18.4281 15.4986 18.4158H23.831C24.1072 18.4158 24.331 18.1919 24.331 17.9158V12.5499L24.3311 12.5396L24.331 12.5292V7.00107L24.3311 6.99072L24.331 6.98038V1.61523C24.331 1.33909 24.1072 1.11523 23.831 1.11523H6.16901ZM6.66901 17.4158V13.0396H23.331V17.4158H6.66901ZM6.66901 12.0396H23.331V7.49072H6.66901V12.0396ZM23.331 6.49072V2.11523H6.66901V6.49072H23.331ZM9.39722 4.51567C9.39722 4.26836 9.5977 4.06787 9.84502 4.06787C10.0923 4.06787 10.2928 4.26836 10.2928 4.51567C10.2928 4.76299 10.0923 4.96347 9.84502 4.96347C9.5977 4.96347 9.39722 4.76299 9.39722 4.51567ZM9.84502 3.06787C9.04542 3.06787 8.39722 3.71607 8.39722 4.51567C8.39722 5.31527 9.04542 5.96347 9.84502 5.96347C10.6446 5.96347 11.2928 5.31527 11.2928 4.51567C11.2928 3.71607 10.6446 3.06787 9.84502 3.06787ZM9.84502 9.31689C9.5977 9.31689 9.39722 9.51738 9.39722 9.7647C9.39722 10.012 9.5977 10.2125 9.84502 10.2125C10.0923 10.2125 10.2928 10.012 10.2928 9.7647C10.2928 9.51738 10.0923 9.31689 9.84502 9.31689ZM8.39722 9.7647C8.39722 8.9651 9.04542 8.31689 9.84502 8.31689C10.6446 8.31689 11.2928 8.9651 11.2928 9.7647C11.2928 10.5643 10.6446 11.2125 9.84502 11.2125C9.04542 11.2125 8.39722 10.5643 8.39722 9.7647ZM9.39722 15.0137C9.39722 14.7664 9.5977 14.5659 9.84502 14.5659C10.0923 14.5659 10.2928 14.7664 10.2928 15.0137C10.2928 15.261 10.0923 15.4615 9.84502 15.4615C9.5977 15.4615 9.39722 15.261 9.39722 15.0137ZM9.84502 13.5659C9.04542 13.5659 8.39722 14.2141 8.39722 15.0137C8.39722 15.8133 9.04542 16.4615 9.84502 16.4615C10.6446 16.4615 11.2928 15.8133 11.2928 15.0137C11.2928 14.2141 10.6446 13.5659 9.84502 13.5659ZM12.6331 4.64648C12.6331 4.37034 12.857 4.14648 13.1331 4.14648H21.6987C21.9748 4.14648 22.1987 4.37034 22.1987 4.64648C22.1987 4.92263 21.9748 5.14648 21.6987 5.14648H13.1331C12.857 5.14648 12.6331 4.92263 12.6331 4.64648ZM13.1331 9.39551C12.857 9.39551 12.6331 9.61937 12.6331 9.89551C12.6331 10.1716 12.857 10.3955 13.1331 10.3955H21.6987C21.9748 10.3955 22.1987 10.1716 22.1987 9.89551C22.1987 9.61937 21.9748 9.39551 21.6987 9.39551H13.1331ZM12.6331 15.144C12.6331 14.8679 12.857 14.644 13.1331 14.644H21.6987C21.9748 14.644 22.1987 14.8679 22.1987 15.144C22.1987 15.4202 21.9748 15.644 21.6987 15.644H13.1331C12.857 15.644 12.6331 15.4202 12.6331 15.144ZM3.27936 28.3461V25.1209H7.80137V28.3461H3.27936ZM22.1987 25.1209V28.3461H26.7207V25.1209H22.1987ZM16.761 26.7334C16.761 27.7059 15.9726 28.4944 15 28.4944C14.0274 28.4944 13.239 27.7059 13.239 26.7334C13.239 25.7608 14.0274 24.9723 15 24.9723C15.9726 24.9723 16.761 25.7608 16.761 26.7334Z" fill="black"/>
</svg>
