<svg width="168" height="108" viewBox="0 0 168 108" fill="none" xmlns="http://www.w3.org/2000/svg">
<g filter="url(#filter0_d_162_5482)">
<rect x="4" y="2" width="160" height="100" rx="8" fill="white"/>
<path d="M134.683 47.4429C134.389 47.4429 134.103 47.5036 133.85 47.6466L125.849 52.2673C125.331 52.5655 125.017 53.1291 125.017 53.7283V62.9531C125.017 63.5521 125.331 64.1147 125.849 64.4139L127.939 65.618C128.954 66.1186 129.328 66.1105 129.79 66.1105C131.294 66.1105 132.152 65.1984 132.152 63.6132V54.5124C132.152 54.3837 132.04 54.2917 131.914 54.2917H130.912C130.783 54.2917 130.674 54.3861 130.674 54.5124V63.6179C130.674 64.3206 129.942 65.0275 128.754 64.4334L126.582 63.1594C126.505 63.1176 126.446 63.0414 126.446 62.9557V53.7309C126.446 53.6435 126.505 53.5543 126.582 53.5101L134.566 48.906C134.641 48.8631 134.73 48.8631 134.804 48.906L142.789 53.5101C142.865 53.5557 142.925 53.6407 142.925 53.7309V62.9557C142.925 63.0437 142.881 63.1339 142.806 63.1764L134.804 67.7805C134.734 67.8214 134.639 67.8214 134.567 67.7805L132.511 66.5575C132.45 66.5216 132.366 66.5244 132.307 66.5575C131.74 66.8791 131.633 66.9164 131.101 67.101C130.97 67.1466 130.771 67.2176 131.169 67.441L133.853 69.0229C134.109 69.1707 134.394 69.2437 134.686 69.2437C134.982 69.2437 135.263 69.1728 135.518 69.0229L143.52 64.4188C144.037 64.1175 144.352 63.557 144.352 62.958V53.7333C144.352 53.134 144.037 52.5716 143.52 52.2722L135.518 47.6516C135.268 47.5085 134.98 47.4478 134.686 47.4478L134.683 47.4429ZM136.823 54.0345C134.545 54.0345 133.188 55.0042 133.188 56.6166C133.188 58.3638 134.535 58.8464 136.722 59.0627C139.338 59.3189 139.542 59.703 139.542 60.218C139.542 61.1112 138.83 61.492 137.146 61.492C135.032 61.492 134.567 60.9641 134.411 59.9101C134.393 59.7972 134.306 59.7063 134.191 59.7063H133.152C133.089 59.7077 133.029 59.7332 132.985 59.7775C132.941 59.8218 132.915 59.8815 132.914 59.9441C132.914 61.2906 133.646 62.8829 137.144 62.8829C139.676 62.8829 141.136 61.8913 141.136 60.1479C141.136 58.4243 139.957 57.9584 137.501 57.6333C135.022 57.3027 134.783 57.1446 134.783 56.563C134.783 56.0832 134.983 55.4415 136.821 55.4415C138.463 55.4415 139.07 55.7957 139.319 56.9025C139.34 57.0064 139.432 57.0914 139.539 57.0914H140.578C140.642 57.0914 140.704 57.0522 140.748 57.0064C140.792 56.9576 140.822 56.9025 140.816 56.8364C140.656 54.9301 139.384 54.0334 136.824 54.0334L136.823 54.0345Z" fill="#83CD29"/>
<path d="M87.6426 35.3499C87.5532 35.3501 87.4654 35.3735 87.3878 35.4179C87.3107 35.4631 87.2466 35.5276 87.2019 35.605C87.1572 35.6825 87.1335 35.7703 87.1331 35.8597V48.8555C87.1331 48.983 87.0736 49.0973 86.9631 49.1613C86.9089 49.1929 86.8474 49.2095 86.7847 49.2095C86.722 49.2095 86.6605 49.1929 86.6063 49.1613L84.4828 47.9383C84.3279 47.8486 84.1521 47.8014 83.9731 47.8014C83.7942 47.8014 83.6184 47.8486 83.4635 47.9383L74.9867 52.8307C74.6699 53.0134 74.4767 53.3652 74.4767 53.7309V63.516C74.4765 63.695 74.5235 63.871 74.613 64.0261C74.7025 64.1812 74.8313 64.3099 74.9865 64.3993L83.4635 69.2919C83.6183 69.3817 83.7941 69.4291 83.9731 69.4291C84.1521 69.4291 84.3279 69.3817 84.4828 69.2919L92.9597 64.3993C93.1149 64.3099 93.2438 64.1812 93.3333 64.0261C93.4228 63.871 93.4698 63.695 93.4695 63.516V39.1213C93.4695 38.7501 93.2669 38.4019 92.943 38.221L87.8976 35.4007C87.8183 35.3565 87.7304 35.349 87.6426 35.3499ZM33.1111 47.5643C32.9493 47.5709 32.7975 47.599 32.6523 47.6833L24.1755 52.5757C24.0203 52.6649 23.8913 52.7936 23.8018 52.9487C23.7124 53.1038 23.6655 53.2799 23.666 53.4589L23.6833 66.591C23.6833 66.7738 23.7777 66.9433 23.9383 67.0326C24.0957 67.127 24.291 67.127 24.4478 67.0326L29.4762 64.1445C29.7949 63.9556 30.0027 63.626 30.0027 63.2614V57.1285C30.0027 56.7626 30.1951 56.4273 30.5127 56.2455L32.6532 55.0055C32.8079 54.9155 32.9838 54.8685 33.1628 54.8695C33.3418 54.8684 33.5178 54.9154 33.6725 55.0055L35.8121 56.2448C36.1292 56.4266 36.3217 56.7623 36.3217 57.1278V63.2605C36.3217 63.6255 36.5342 63.957 36.8482 64.1435L41.8766 67.0316C42.0348 67.1261 42.2296 67.1261 42.3861 67.0316C42.5419 66.9419 42.6411 66.7726 42.6411 66.5901L42.6581 53.4585C42.6591 53.2793 42.6124 53.1031 42.5229 52.9479C42.4334 52.7926 42.3042 52.664 42.1486 52.5752L33.6718 47.683C33.5285 47.599 33.376 47.5706 33.2131 47.564H33.1115L33.1111 47.5643ZM109.285 47.6833C109.106 47.6828 108.93 47.7297 108.775 47.8193L100.298 52.7119C99.9821 52.8949 99.7885 53.2294 99.7885 53.5949V63.38C99.7885 63.7478 99.9958 64.0812 100.315 64.263L108.724 69.056C109.034 69.2331 109.413 69.2466 109.726 69.0725L114.823 66.2355C114.984 66.1457 115.094 65.9781 115.094 65.7939C115.095 65.6098 114.999 65.444 114.839 65.3524L106.311 60.4598C106.151 60.3686 106.039 60.1842 106.039 60.001V56.9413C106.039 56.7586 106.153 56.5909 106.311 56.4998L108.961 54.9707C109.119 54.8796 109.312 54.8796 109.471 54.9707L112.122 56.4998C112.2 56.5444 112.264 56.6087 112.309 56.6862C112.354 56.7638 112.377 56.8518 112.377 56.9413V59.3536C112.377 59.4431 112.4 59.5311 112.445 59.6087C112.49 59.6862 112.554 59.7505 112.632 59.7951C112.791 59.8868 112.983 59.8872 113.142 59.7951L118.221 56.8398C118.536 56.6566 118.731 56.321 118.731 55.9567V53.5956C118.731 53.4166 118.684 53.2408 118.594 53.0857C118.505 52.9307 118.376 52.8019 118.221 52.7124L109.795 47.8197C109.64 47.7301 109.464 47.6831 109.285 47.6837L109.285 47.6833ZM83.939 54.9885C83.9864 54.9882 84.0332 54.9998 84.075 55.0222L86.9798 56.704C87.0587 56.7496 87.1158 56.8339 87.1158 56.9248V60.2884C87.1158 60.3797 87.0592 60.4638 86.9798 60.5091L84.075 62.1909C83.9959 62.2358 83.8993 62.2358 83.82 62.1909L80.9152 60.5091C80.8361 60.4636 80.7792 60.3793 80.7792 60.2884V56.9243C80.7792 56.8332 80.8363 56.7496 80.9152 56.7035L83.82 55.022C83.8597 54.9991 83.8946 54.9885 83.939 54.9885Z" fill="#404137"/>
<path d="M58.5766 47.6321C58.3976 47.6318 58.2217 47.6787 58.0666 47.7681L49.5896 52.6437C49.2727 52.8265 49.0801 53.1785 49.0801 53.544V63.329C49.0796 63.5081 49.1265 63.6841 49.216 63.8391C49.3055 63.9942 49.4344 64.1229 49.5896 64.2121L58.0666 69.1047C58.2214 69.1946 58.3972 69.2419 58.5762 69.2419C58.7552 69.2419 58.9311 69.1946 59.0859 69.1047L67.5629 64.2121C67.718 64.1227 67.8469 63.994 67.9364 63.8389C68.0259 63.6838 68.0729 63.5078 68.0726 63.3288V53.5438C68.0726 53.1778 67.88 52.826 67.5626 52.6435L59.0856 47.7678C58.9307 47.678 58.7547 47.6311 58.5756 47.6318L58.5766 47.6321ZM109.269 56.3641C109.235 56.3641 109.198 56.3641 109.167 56.3806L107.536 57.3321C107.506 57.349 107.48 57.3736 107.463 57.4034C107.445 57.4331 107.435 57.4671 107.434 57.5019V59.3707C107.434 59.441 107.475 59.5053 107.536 59.5407L109.167 60.4749C109.195 60.4923 109.227 60.5015 109.26 60.5015C109.293 60.5015 109.326 60.4923 109.354 60.4749L110.984 59.5407C111.045 59.506 111.086 59.441 111.086 59.3707V57.5019C111.086 57.4315 111.045 57.3673 110.984 57.3319L109.354 56.3804C109.323 56.3624 109.303 56.3638 109.269 56.3638L109.269 56.3641Z" fill="#83CD29"/>
<rect x="4.5" y="2.5" width="159" height="99" rx="7.5" stroke="#D1D6DC"/>
</g>
<defs>
<filter id="filter0_d_162_5482" x="0" y="0" width="168" height="108" filterUnits="userSpaceOnUse" color-interpolation-filters="sRGB">
<feFlood flood-opacity="0" result="BackgroundImageFix"/>
<feColorMatrix in="SourceAlpha" type="matrix" values="0 0 0 0 0 0 0 0 0 0 0 0 0 0 0 0 0 0 127 0" result="hardAlpha"/>
<feOffset dy="2"/>
<feGaussianBlur stdDeviation="2"/>
<feComposite in2="hardAlpha" operator="out"/>
<feColorMatrix type="matrix" values="0 0 0 0 0 0 0 0 0 0 0 0 0 0 0 0 0 0 0.1 0"/>
<feBlend mode="normal" in2="BackgroundImageFix" result="effect1_dropShadow_162_5482"/>
<feBlend mode="normal" in="SourceGraphic" in2="effect1_dropShadow_162_5482" result="shape"/>
</filter>
</defs>
</svg>
