<svg width="30" height="30" viewBox="0 0 30 30" fill="none" xmlns="http://www.w3.org/2000/svg">
<path d="M26.25 13.4656C26.25 13.7418 26.4739 13.9656 26.75 13.9656C27.0261 13.9656 27.25 13.7418 27.25 13.4656H26.25ZM19.0243 27.3501C19.3004 27.3501 19.5243 27.1262 19.5243 26.8501C19.5243 26.574 19.3004 26.3501 19.0243 26.3501V27.3501ZM4.7666 5.56934C4.49046 5.56934 4.2666 5.79319 4.2666 6.06934C4.2666 6.34548 4.49046 6.56934 4.7666 6.56934V5.56934ZM9.09277 6.56934C9.36892 6.56934 9.59277 6.34548 9.59277 6.06934C9.59277 5.79319 9.36892 5.56934 9.09277 5.56934V6.56934ZM2.99414 8.59326C2.718 8.59326 2.49414 8.81712 2.49414 9.09326C2.49414 9.3694 2.718 9.59326 2.99414 9.59326L2.99414 8.59326ZM26.1631 9.59326C26.4392 9.59326 26.6631 9.36941 26.6631 9.09326C26.6631 8.81712 26.4392 8.59326 26.1631 8.59326L26.1631 9.59326ZM11.8195 14.4592C12.0345 14.286 12.0685 13.9713 11.8953 13.7562C11.7221 13.5411 11.4073 13.5072 11.1923 13.6804L11.8195 14.4592ZM8.38281 16.5848L8.06921 16.1954C7.95135 16.2903 7.88281 16.4335 7.88281 16.5848C7.88281 16.7362 7.95135 16.8793 8.06921 16.9743L8.38281 16.5848ZM11.1923 19.4893C11.4073 19.6625 11.7221 19.6285 11.8953 19.4134C12.0685 19.1984 12.0345 18.8836 11.8195 18.7104L11.1923 19.4893ZM18.256 13.6804C18.0409 13.5072 17.7262 13.5411 17.553 13.7562C17.3798 13.9713 17.4137 14.286 17.6288 14.4592L18.256 13.6804ZM21.0654 16.5848L21.379 16.9743C21.4969 16.8793 21.5654 16.7362 21.5654 16.5848C21.5654 16.4335 21.4969 16.2903 21.379 16.1954L21.0654 16.5848ZM17.6288 18.7104C17.4137 18.8836 17.3798 19.1984 17.553 19.4134C17.7262 19.6285 18.0409 19.6625 18.256 19.4893L17.6288 18.7104ZM16.4044 13.8333C16.51 13.5782 16.3888 13.2857 16.1336 13.1801C15.8785 13.0745 15.586 13.1957 15.4804 13.4508L16.4044 13.8333ZM13.0439 19.3361C12.9383 19.5912 13.0595 19.8837 13.3146 19.9893C13.5697 20.0949 13.8622 19.9737 13.9678 19.7186L13.0439 19.3361ZM28.751 18.5869C28.751 18.8631 28.9748 19.0869 29.251 19.0869C29.5271 19.0869 29.751 18.8631 29.751 18.5869H28.751ZM24.7471 19.9912C24.7471 20.2673 24.9709 20.4912 25.2471 20.4912C25.5232 20.4912 25.7471 20.2673 25.7471 19.9912H24.7471ZM25.6836 22.5723C25.6836 22.2961 25.4597 22.0723 25.1836 22.0723C24.9075 22.0723 24.6836 22.2961 24.6836 22.5723H25.6836ZM24.6836 24.677C24.6836 24.9531 24.9075 25.177 25.1836 25.177C25.4597 25.177 25.6836 24.9531 25.6836 24.677H24.6836ZM4.69727 3.29736H24.75V2.29736H4.69727V3.29736ZM3.19727 24.8501V4.79736H2.19727V24.8501H3.19727ZM26.25 4.79736V13.4656H27.25V4.79736H26.25ZM19.0243 26.3501H4.69799V27.3501H19.0243V26.3501ZM2.19727 24.8501C2.19727 26.231 3.31751 27.3501 4.69799 27.3501V26.3501C3.86932 26.3501 3.19727 25.6783 3.19727 24.8501H2.19727ZM24.75 3.29736C25.5784 3.29736 26.25 3.96894 26.25 4.79736H27.25C27.25 3.41665 26.1307 2.29736 24.75 2.29736V3.29736ZM4.69727 2.29736C3.31655 2.29736 2.19727 3.41665 2.19727 4.79736H3.19727C3.19727 3.96894 3.86884 3.29736 4.69727 3.29736V2.29736ZM4.7666 6.56934H9.09277V5.56934H4.7666V6.56934ZM2.99414 9.59326L26.1631 9.59326L26.1631 8.59326L2.99414 8.59326L2.99414 9.59326ZM11.1923 13.6804L8.06921 16.1954L8.69642 16.9743L11.8195 14.4592L11.1923 13.6804ZM8.06921 16.9743L11.1923 19.4893L11.8195 18.7104L8.69642 16.1954L8.06921 16.9743ZM17.6288 14.4592L20.7518 16.9743L21.379 16.1954L18.256 13.6804L17.6288 14.4592ZM20.7518 16.1954L17.6288 18.7104L18.256 19.4893L21.379 16.9743L20.7518 16.1954ZM15.4804 13.4508L13.0439 19.3361L13.9678 19.7186L16.4044 13.8333L15.4804 13.4508ZM22.0654 20.4912H28.251V19.4912H22.0654V20.4912ZM28.751 20.9912V25.8503H29.751V20.9912H28.751ZM28.251 26.3503H22.0654V27.3503H28.251V26.3503ZM21.5654 25.8503V20.9912H20.5654V25.8503H21.5654ZM22.0654 26.3503C21.7893 26.3503 21.5654 26.1265 21.5654 25.8503H20.5654C20.5654 26.6788 21.237 27.3503 22.0654 27.3503V26.3503ZM28.751 25.8503C28.751 26.1265 28.5271 26.3503 28.251 26.3503V27.3503C29.0794 27.3503 29.751 26.6788 29.751 25.8503H28.751ZM28.251 20.4912C28.5271 20.4912 28.751 20.7151 28.751 20.9912H29.751C29.751 20.1628 29.0794 19.4912 28.251 19.4912V20.4912ZM22.0654 19.4912C21.237 19.4912 20.5654 20.1628 20.5654 20.9912H21.5654C21.5654 20.7151 21.7893 20.4912 22.0654 20.4912V19.4912ZM25.7471 18.5869C25.7471 17.7574 26.4195 17.085 27.249 17.085V16.085C25.8672 16.085 24.7471 17.2051 24.7471 18.5869H25.7471ZM27.249 17.085C28.0785 17.085 28.751 17.7574 28.751 18.5869H29.751C29.751 17.2051 28.6308 16.085 27.249 16.085V17.085ZM24.7471 18.5869V19.9912H25.7471V18.5869H24.7471ZM24.6836 22.5723V24.677H25.6836V22.5723H24.6836Z" fill="black"/>
</svg>
