<svg width="30" height="30" viewBox="0 0 30 30" fill="none" xmlns="http://www.w3.org/2000/svg">
<path fill-rule="evenodd" clip-rule="evenodd" d="M16.8887 6.09194L16.8887 3.28523L13.4739 3.28523V6.11542L12.7864 6.30602C11.9578 6.53577 11.176 6.87917 10.4589 7.31866L9.82835 7.7051L7.97072 5.84746L5.55608 8.2621L7.48975 10.1958L7.15982 10.81C6.82246 11.438 6.55632 12.1097 6.37202 12.8144L6.18876 13.5151L3.23518 13.5151V16.9299H6.22021L6.41184 17.6154C6.5789 18.213 6.80508 18.786 7.08376 19.3279L7.39672 19.9364L5.31428 22.0188L7.72892 24.4335L9.68801 22.4744L10.323 22.879C11.0769 23.3593 11.9052 23.7322 12.7866 23.9766L13.4741 24.1672L13.4741 26.716H16.8889V24.1906L17.5876 24.0062C18.4041 23.7908 19.1761 23.4655 19.8871 23.0467L20.5129 22.6781L22.2682 24.4335L24.6829 22.0188L22.8987 20.2347L23.2458 19.615C23.5961 18.9898 23.8751 18.3197 24.072 17.6154L24.2636 16.9299H26.7645V13.5151H24.2951L24.1118 12.8144C23.9273 12.1091 23.6609 11.4368 23.323 10.8082L22.9929 10.1939L24.9247 8.2621L22.51 5.84746L20.6537 7.70382L20.0232 7.3176C19.275 6.85925 18.4564 6.5055 17.5875 6.27628L16.8887 6.09194ZM17.8268 5.36926V3.28523C17.8268 2.76715 17.4068 2.34717 16.8887 2.34717H13.4739C12.9558 2.34717 12.5358 2.76715 12.5358 3.28523V5.40206C11.6215 5.65556 10.7592 6.03438 9.96872 6.51885L8.63402 5.18415C8.26769 4.81782 7.67374 4.81782 7.30741 5.18415L4.89277 7.59879C4.52643 7.96513 4.52643 8.55908 4.89277 8.92541L6.33344 10.3661C5.96143 11.0586 5.66782 11.7996 5.46449 12.577H3.23518C2.7171 12.577 2.29712 12.997 2.29712 13.5151V16.9299C2.29712 17.448 2.7171 17.868 3.23518 17.868H5.50842C5.69274 18.5273 5.94225 19.1594 6.24957 19.7569L4.65097 21.3555C4.28463 21.7219 4.28463 22.3158 4.65097 22.6821L7.06561 25.0968C7.43194 25.4631 8.02589 25.4631 8.39222 25.0968L9.81892 23.6701C10.6499 24.1996 11.5635 24.6109 12.536 24.8806V26.716C12.536 27.2341 12.956 27.654 13.4741 27.654H16.8889C17.407 27.654 17.8269 27.2341 17.8269 26.716V24.9133C18.7278 24.6756 19.5793 24.3167 20.3632 23.855L21.6049 25.0968C21.9713 25.4631 22.5652 25.4631 22.9316 25.0968L25.3462 22.6821C25.7125 22.3158 25.7125 21.7219 25.3462 21.3555L24.0642 20.0735C24.4504 19.3842 24.7582 18.645 24.9754 17.868H26.7645C27.2825 17.868 27.7025 17.448 27.7025 16.9299V13.5151C27.7025 12.997 27.2825 12.577 26.7645 12.577H25.0193C24.8158 11.7988 24.5218 11.0572 24.1493 10.3641L25.588 8.92541C25.9543 8.55908 25.9543 7.96513 25.588 7.59879L23.1734 5.18415C22.807 4.81782 22.2131 4.81782 21.8467 5.18415L20.5132 6.51769C19.6884 6.01242 18.7854 5.62217 17.8268 5.36926Z" fill="black"/>
<path fill-rule="evenodd" clip-rule="evenodd" d="M15.2416 20.2794C18.0791 20.2794 20.3795 17.9791 20.3795 15.1415C20.3795 12.3039 18.0791 10.0035 15.2416 10.0035C12.404 10.0035 10.1036 12.3039 10.1036 15.1415C10.1036 17.9791 12.404 20.2794 15.2416 20.2794ZM15.2416 21.2174C18.5972 21.2174 21.3175 18.4971 21.3175 15.1415C21.3175 11.7858 18.5972 9.06549 15.2416 9.06549C11.8859 9.06549 9.16558 11.7858 9.16558 15.1415C9.16558 18.4971 11.8859 21.2174 15.2416 21.2174Z" fill="black"/>
</svg>
