<svg width="30" height="30" viewBox="0 0 30 30" fill="none" xmlns="http://www.w3.org/2000/svg">
<path fill-rule="evenodd" clip-rule="evenodd" d="M14.4611 1.67041C14.5937 1.6704 14.7209 1.72308 14.8147 1.81686L16.5092 3.51134C16.7045 3.70661 16.7045 4.02319 16.5092 4.21845C16.3139 4.41371 15.9974 4.41371 15.8021 4.21845L14.9606 3.37699V6.50534C14.9606 6.78148 14.7368 7.00534 14.4606 7.00534C14.1845 7.00534 13.9606 6.78148 13.9606 6.50534V3.37835L13.1209 4.21839C12.9257 4.41369 12.6091 4.41374 12.4138 4.21851C12.2185 4.02329 12.2184 3.7067 12.4137 3.51141L14.1075 1.81692C14.2013 1.72312 14.3285 1.67042 14.4611 1.67041Z" fill="black"/>
<path fill-rule="evenodd" clip-rule="evenodd" d="M26.2445 19.979C26.4398 19.7837 26.7563 19.7837 26.9516 19.9789L28.6461 21.6728C28.7399 21.7666 28.7926 21.8937 28.7926 22.0264C28.7926 22.159 28.74 22.2862 28.6462 22.38L26.9517 24.0744C26.7564 24.2697 26.4399 24.2697 26.2446 24.0744C26.0493 23.8792 26.0493 23.5626 26.2446 23.3673L27.0878 22.5241H23.5309C23.2548 22.5241 23.0309 22.3002 23.0309 22.0241C23.0309 21.748 23.2548 21.5241 23.5309 21.5241H27.0829L26.2447 20.6861C26.0494 20.4909 26.0493 20.1743 26.2445 19.979Z" fill="black"/>
<path fill-rule="evenodd" clip-rule="evenodd" d="M2.45691 24.0649C2.72364 24.1364 2.88194 24.4105 2.81047 24.6773L2.49183 25.8664L5.80133 24.3734C6.05305 24.2599 6.34916 24.3719 6.46271 24.6236C6.57627 24.8753 6.46427 25.1714 6.21255 25.285L3.06001 26.7072L4.15101 26.9993C4.41776 27.0707 4.5761 27.3448 4.50468 27.6116C4.43325 27.8783 4.15911 28.0367 3.89237 27.9653L1.57795 27.3456C1.44984 27.3112 1.34061 27.2275 1.27429 27.1126C1.20796 26.9978 1.18999 26.8613 1.22431 26.7332L1.84454 24.4184C1.91601 24.1517 2.19018 23.9934 2.45691 24.0649Z" fill="black"/>
<path fill-rule="evenodd" clip-rule="evenodd" d="M22.5301 10.6194L22.5301 10.6164C22.5269 10.1129 22.0266 9.33078 20.4528 8.61828C18.9693 7.94668 16.8525 7.50554 14.4617 7.50554C12.0708 7.50554 9.95401 7.94668 8.47052 8.61828C6.8967 9.33078 6.39646 10.1129 6.39326 10.6164L6.39324 10.6193V24.2018L6.3931 24.2128C6.3931 24.7156 6.88804 25.4983 8.46254 26.2131C9.94631 26.8866 12.0663 27.3294 14.4615 27.3294C16.8567 27.3294 18.9768 26.8866 20.4605 26.2131C22.035 25.4983 22.53 24.7156 22.53 24.2128L22.5301 10.6194ZM23.5301 10.61L23.53 24.2128C23.53 26.4863 19.4699 28.3294 14.4615 28.3294C9.45318 28.3294 5.39311 26.4863 5.39311 24.2128L5.39325 24.1897L5.39329 10.61C5.40771 8.34206 9.46224 6.50554 14.4617 6.50554C19.4611 6.50554 23.5156 8.34206 23.5301 10.61Z" fill="black"/>
<path fill-rule="evenodd" clip-rule="evenodd" d="M20.4608 12.6223C22.0353 11.9076 22.5302 11.1248 22.5302 10.622C22.5302 10.1192 22.0353 9.33643 20.4608 8.62168C18.977 7.94811 16.8569 7.50554 14.4617 7.50554C12.0665 7.50554 9.94648 7.94811 8.4627 8.62168C6.88819 9.33643 6.39325 10.1192 6.39325 10.622C6.39325 11.1248 6.88819 11.9076 8.4627 12.6223C9.94648 13.2959 12.0665 13.7386 14.4617 13.7386C16.857 13.7386 18.977 13.2959 20.4608 12.6223ZM14.4617 14.7386C19.4701 14.7386 23.5301 12.8957 23.5301 10.6222C23.5301 8.3486 19.4701 6.50554 14.4617 6.50554C9.45328 6.50554 5.39325 8.3486 5.39325 10.6222C5.39325 12.8957 9.45335 14.7386 14.4617 14.7386Z" fill="black"/>
<path fill-rule="evenodd" clip-rule="evenodd" d="M5.39311 17.0657C5.39311 19.3393 9.45321 21.1829 14.4616 21.1829C19.47 21.1829 23.5301 19.3399 23.5301 17.0663L22.5301 17.0657C22.5301 17.5685 22.0352 18.3519 20.4606 19.0666C18.9769 19.7402 16.8568 20.1829 14.4616 20.1829C12.0664 20.1829 9.94635 19.7402 8.46256 19.0666C6.88805 18.3519 6.39311 17.5691 6.39311 17.0663L5.39311 17.0657Z" fill="black"/>
<path d="M21.4881 16.0777C21.4881 16.4164 21.2135 16.691 20.8748 16.691C20.536 16.691 20.2614 16.4164 20.2614 16.0777C20.2614 15.739 20.536 15.4644 20.8748 15.4644C21.2135 15.4644 21.4881 15.739 21.4881 16.0777Z" fill="black"/>
<path d="M21.4881 22.6402C21.4881 22.9789 21.2135 23.2535 20.8748 23.2535C20.536 23.2535 20.2614 22.9789 20.2614 22.6402C20.2614 22.3015 20.536 22.0269 20.8748 22.0269C21.2135 22.0269 21.4881 22.3015 21.4881 22.6402Z" fill="black"/>
</svg>
