<svg width="168" height="108" viewBox="0 0 168 108" fill="none" xmlns="http://www.w3.org/2000/svg">
<g filter="url(#filter0_d_162_5460)">
<rect x="4" y="2" width="160" height="100" rx="8" fill="white"/>
<g clip-path="url(#clip0_162_5460)">
<path d="M50.0371 46.0363C49.8813 46.0363 49.8424 45.9584 49.9203 45.8416L50.7382 44.79C50.8161 44.6731 51.0109 44.5952 51.1666 44.5952H65.0712C65.227 44.5952 65.266 44.7121 65.1881 44.8289L64.5259 45.8416C64.448 45.9584 64.2533 46.0753 64.1365 46.0753L50.0371 46.0363Z" fill="#00ACD7"/>
<path d="M44.1558 49.6193C44 49.6193 43.9611 49.5414 44.0389 49.4246L44.8569 48.373C44.9348 48.2561 45.1295 48.1782 45.2853 48.1782H63.0458C63.2016 48.1782 63.2795 48.2951 63.2405 48.4119L62.9289 49.3467C62.89 49.5025 62.7342 49.5804 62.5784 49.5804L44.1558 49.6193Z" fill="#00ACD7"/>
<path d="M53.5811 53.2028C53.4253 53.2028 53.3863 53.086 53.4642 52.9691L54.0095 51.9954C54.0874 51.8786 54.2432 51.7617 54.399 51.7617H62.1887C62.3445 51.7617 62.4224 51.8786 62.4224 52.0344L62.3445 52.9691C62.3445 53.1249 62.1887 53.2418 62.0718 53.2418L53.5811 53.2028Z" fill="#00ACD7"/>
<path d="M94.01 45.3351C91.5562 45.9583 89.8814 46.4257 87.4666 47.0489C86.8824 47.2047 86.8435 47.2436 86.3371 46.6594C85.7529 45.9973 85.3245 45.5688 84.5066 45.1793C82.0528 43.9719 79.677 44.3225 77.4569 45.7636C74.8084 47.4773 73.4452 50.009 73.4842 53.1638C73.5231 56.2796 75.6653 58.8502 78.7422 59.2787C81.3907 59.6292 83.6107 58.6944 85.3634 56.7081C85.714 56.2796 86.0255 55.8123 86.415 55.267C85.0129 55.267 83.2602 55.267 78.898 55.267C78.0801 55.267 77.8853 54.7607 78.158 54.0985C78.6643 52.8911 79.5991 50.8658 80.1443 49.8532C80.2612 49.6195 80.5338 49.23 81.118 49.23C83.1044 49.23 90.4267 49.23 95.2953 49.23C95.2174 50.2816 95.2174 51.3332 95.0616 52.3848C94.6331 55.1891 93.5815 57.7597 91.8678 60.0187C89.0635 63.7188 85.4024 66.0167 80.7675 66.6399C76.9506 67.1462 73.4063 66.4062 70.2904 64.0693C67.4082 61.8882 65.7724 59.006 65.3439 55.4228C64.8376 51.1774 66.084 47.3605 68.6546 44.0109C71.4199 40.3887 75.081 38.0907 79.5601 37.2728C83.2213 36.6107 86.7266 37.0391 89.8814 39.1813C91.9457 40.5445 93.4257 42.414 94.3994 44.673C94.6331 45.0236 94.4773 45.2183 94.01 45.3351Z" fill="#00ACD7"/>
<path d="M106.902 66.8738C103.358 66.7959 100.125 65.7832 97.3987 63.4463C95.1007 61.46 93.6596 58.9283 93.1922 55.9293C92.4912 51.5281 93.6986 47.6333 96.3471 44.1669C99.1903 40.4278 102.618 38.4804 107.253 37.6625C111.225 36.9614 114.964 37.3509 118.353 39.6489C121.43 41.7521 123.338 44.5953 123.845 48.3344C124.507 53.5924 122.988 57.8767 119.366 61.5379C116.795 64.1474 113.64 65.7832 110.018 66.5233C108.966 66.718 107.915 66.7569 106.902 66.8738ZM116.172 51.1386C116.133 50.6323 116.133 50.2428 116.055 49.8533C115.354 45.9974 111.81 43.8163 108.109 44.6732C104.487 45.4911 102.15 47.7891 101.294 51.4502C100.592 54.4882 102.072 57.5651 104.877 58.8115C107.019 59.7462 109.161 59.6294 111.225 58.5778C114.302 56.9809 115.977 54.4882 116.172 51.1386Z" fill="#00ACD7"/>
</g>
<rect x="4.5" y="2.5" width="159" height="99" rx="7.5" stroke="#D1D6DC"/>
</g>
<defs>
<filter id="filter0_d_162_5460" x="0" y="0" width="168" height="108" filterUnits="userSpaceOnUse" color-interpolation-filters="sRGB">
<feFlood flood-opacity="0" result="BackgroundImageFix"/>
<feColorMatrix in="SourceAlpha" type="matrix" values="0 0 0 0 0 0 0 0 0 0 0 0 0 0 0 0 0 0 127 0" result="hardAlpha"/>
<feOffset dy="2"/>
<feGaussianBlur stdDeviation="2"/>
<feComposite in2="hardAlpha" operator="out"/>
<feColorMatrix type="matrix" values="0 0 0 0 0 0 0 0 0 0 0 0 0 0 0 0 0 0 0.1 0"/>
<feBlend mode="normal" in2="BackgroundImageFix" result="effect1_dropShadow_162_5460"/>
<feBlend mode="normal" in="SourceGraphic" in2="effect1_dropShadow_162_5460" result="shape"/>
</filter>
<clipPath id="clip0_162_5460">
<rect width="80" height="29.8734" fill="white" transform="translate(44 37)"/>
</clipPath>
</defs>
</svg>
