<svg width="388" height="386" viewBox="0 0 388 386" fill="none" xmlns="http://www.w3.org/2000/svg">
<path d="M181.875 262.424V386H206.125V238.018L270.608 349.13C277.905 345.58 284.916 341.539 291.599 337.049L221.01 215.417L298.747 243.565C302.254 236.387 305.038 228.795 307.004 220.882L263.316 205.062H388V180.937H239.25L350.94 116.786C347.371 109.527 343.309 102.552 338.796 95.904L217.257 165.712L245.312 89.0302C238.112 85.5069 230.494 82.7019 222.55 80.7093L206.125 125.604V0H181.875V147.982L117.391 36.8689C110.095 40.4191 103.083 44.4606 96.4012 48.9502L166.696 170.077L89.4206 142.096C85.8891 149.263 83.0801 156.846 81.0881 164.752L125.788 180.937H0V205.062H148.748L37.0601 269.213C40.6287 276.472 44.6912 283.448 49.204 290.095L171.682 219.747L143.318 297.276C150.537 300.756 158.173 303.515 166.13 305.46L181.875 262.424Z" fill="url(#paint0_linear_266_89)"/>
<defs>
<linearGradient id="paint0_linear_266_89" x1="82.45" y1="41.0125" x2="281.74" y2="365.69" gradientUnits="userSpaceOnUse">
<stop stop-color="#9D41FF"/>
<stop offset="0.468794" stop-color="#2858FF"/>
<stop offset="0.770884" stop-color="#29B8FF"/>
<stop offset="1" stop-color="#00F0FF"/>
</linearGradient>
</defs>
</svg>
