<svg width="40" height="40" viewBox="0 0 40 40" fill="none" xmlns="http://www.w3.org/2000/svg">
<rect width="40" height="40" rx="20" fill="#FF9330"/>
<path fill-rule="evenodd" clip-rule="evenodd" d="M17.0117 21.7869H16.1989L18.5084 15.5807H19.274L21.5793 21.7869H20.7664L20.1385 20.0107H17.6397L17.0117 21.7869ZM18.8998 16.5097H18.8826L17.8762 19.3526H19.9062L18.8998 16.5097Z" fill="white"/>
<path d="M23.5445 21.7869H22.7704V15.5807H23.5445V21.7869Z" fill="white"/>
<path fill-rule="evenodd" clip-rule="evenodd" d="M7.33362 19.9576C7.33362 22.6276 9.4799 24.7963 12.1413 24.8326L12.1829 24.833L12.209 24.833L12.2352 24.833H27.7864L27.82 24.8331L27.8537 24.833H27.9121V24.8323C30.773 24.7832 33.0771 22.4487 33.0771 19.576C33.0771 16.8715 31.0349 14.644 28.4084 14.3515C27.8611 12.4575 26.1142 11.0724 24.0439 11.0724C23.7435 11.0724 23.4498 11.1016 23.1657 11.1573C22.0548 9.26804 20.0008 8 17.6507 8C14.1197 8 11.2574 10.8624 11.2574 14.3933C11.2574 14.6549 11.2731 14.9128 11.3036 15.1662C9.04361 15.5906 7.33362 17.5744 7.33362 19.9576ZM12.209 24.1664L12.1864 24.1663H12.1746L12.1504 24.166C9.8531 24.1347 8.00028 22.2625 8.00028 19.9576C8.00028 17.901 9.47608 16.1877 11.4266 15.8214L12.0401 15.7062L11.9655 15.0864C11.9381 14.8595 11.924 14.6282 11.924 14.3933C11.924 11.2306 14.4879 8.66667 17.6507 8.66667C19.7549 8.66667 21.5949 9.80122 22.591 11.4952L22.8304 11.9023L23.2938 11.8115C23.536 11.7641 23.7867 11.7391 24.0439 11.7391C25.8094 11.7391 27.3008 12.9201 27.768 14.5366L27.8917 14.9647L28.3346 15.0141C30.6273 15.2694 32.4104 17.2149 32.4104 19.576C32.4104 22.0843 30.3985 24.1228 27.9006 24.1657L27.8665 24.1663L27.8537 24.1663L27.8496 24.1663L27.82 24.1664L27.7905 24.1663L12.2352 24.1663L12.2317 24.1663L12.209 24.1664Z" fill="white"/>
<path d="M19.8714 24.8333H20.538V26.6413H19.8714V24.8333Z" fill="white"/>
<path fill-rule="evenodd" clip-rule="evenodd" d="M13.5536 27.3081V28.6558H17.8571V29.3224H13.5536V30.67C13.5536 31.0382 13.2551 31.3367 12.8869 31.3367H9.52502C9.15683 31.3367 8.85836 31.0382 8.85836 30.67V27.3081C8.85836 26.9399 9.15683 26.6415 9.52502 26.6415H12.8869C13.2551 26.6415 13.5536 26.9399 13.5536 27.3081ZM12.8869 27.3081H9.52502V30.67H12.8869L12.8869 27.3081Z" fill="white"/>
<path fill-rule="evenodd" clip-rule="evenodd" d="M22.5524 28.6558V27.3081C22.5524 26.9399 22.2539 26.6415 21.8857 26.6415H18.5238C18.1556 26.6415 17.8572 26.9399 17.8572 27.3081V30.67C17.8572 31.0382 18.1556 31.3367 18.5238 31.3367H21.8857C22.2539 31.3367 22.5524 31.0382 22.5524 30.67V29.3224H26.8564V28.6558H22.5524ZM18.5238 27.3081H21.8857V30.67H18.5238V27.3081Z" fill="white"/>
<path fill-rule="evenodd" clip-rule="evenodd" d="M26.8567 27.3081C26.8567 26.9399 27.1551 26.6415 27.5233 26.6415H30.8852C31.2534 26.6415 31.5519 26.9399 31.5519 27.3081V30.67C31.5519 31.0382 31.2534 31.3367 30.8852 31.3367H27.5233C27.1551 31.3367 26.8567 31.0382 26.8567 30.67V27.3081ZM27.5233 27.3081H30.8852V30.67H27.5233V27.3081Z" fill="white"/>
</svg>
