<svg width="14" height="14" viewBox="0 0 14 14" fill="none" xmlns="http://www.w3.org/2000/svg">
<g clip-path="url(#clip0_93_6251)">
<path d="M12.8128 6.60179V2.71622C12.8128 1.97845 12.2103 1.43127 11.4786 1.49275H11.4418C10.1507 1.60341 8.18942 2.26126 7.09506 2.94985L6.99054 3.01748C6.81225 3.12814 6.51714 3.12814 6.33884 3.01748L6.18514 2.92525C5.09078 2.24282 3.13569 1.59112 1.84459 1.4866C1.11297 1.42512 0.516602 1.97845 0.516602 2.71007V10.1369C0.516602 10.7272 0.996153 11.2805 1.58637 11.3543L1.76466 11.3789C3.0988 11.5571 5.15841 12.2334 6.33884 12.879L6.36344 12.8913C6.52943 12.9835 6.7938 12.9835 6.95365 12.8913C8.13408 12.2396 10.1998 11.5571 11.5401 11.3789L11.743 11.3543C12.3332 11.2805 12.8128 10.7272 12.8128 10.1369V9.07947" stroke="black" stroke-linecap="round" stroke-linejoin="round"/>
<path d="M6.66455 3.22021V12.4424" stroke="black" stroke-linecap="round" stroke-linejoin="round"/>
<path d="M4.05178 5.06445H2.66846" stroke="black" stroke-linecap="round" stroke-linejoin="round"/>
<path d="M4.51288 6.90918H2.66846" stroke="black" stroke-linecap="round" stroke-linejoin="round"/>
</g>
<defs>
<clipPath id="clip0_93_6251">
<rect width="14" height="14" fill="white"/>
</clipPath>
</defs>
</svg>
