<svg width="168" height="108" viewBox="0 0 168 108" fill="none" xmlns="http://www.w3.org/2000/svg">
<g filter="url(#filter0_d_375_10907)">
<rect x="4" y="2" width="160" height="100" rx="8" fill="white"/>
<path d="M58.7991 47.2751C61.5808 50.4667 58.0681 53.3407 58.0681 53.3407C58.0681 53.3407 65.1237 49.7083 61.886 45.1559C58.8585 40.9117 56.5374 38.8065 69.1036 31.5371C69.1027 31.5324 49.3782 36.4467 58.7991 47.2751Z" fill="#EC2025"/>
<path d="M61.8845 19.793C61.8845 19.793 67.8708 25.7702 56.2071 34.954C46.8549 42.3268 54.0725 46.5268 56.2023 51.3292C50.7406 46.414 46.7372 42.0871 49.4209 38.0628C53.366 32.1486 64.2988 29.2803 61.8845 19.793Z" fill="#EC2025"/>
<path fill-rule="evenodd" clip-rule="evenodd" d="M73.715 68.8977C73.715 68.8977 75.3437 70.2388 71.9196 71.2717C65.4085 73.2397 44.824 73.8317 39.1033 71.3497C37.0469 70.4588 40.9044 69.2201 42.1158 68.9607C43.3818 68.6863 44.1034 68.7352 44.1034 68.7352C41.8172 67.129 29.3291 71.8882 37.759 73.2538C60.756 76.9754 79.6769 71.5856 73.715 68.8977ZM49.6178 51.4314C49.6178 51.4314 39.1466 53.9134 45.9083 54.8138C48.7644 55.1953 54.4559 55.1079 59.7603 54.6625C64.0925 54.3006 68.4455 53.5215 68.4455 53.5215C68.4455 53.5215 66.9195 54.1775 65.8107 54.9265C55.1775 57.7168 34.6335 56.4199 40.5511 53.5657C45.5503 51.157 49.6178 51.4314 49.6178 51.4314ZM68.4012 61.9074C79.2106 56.3071 74.2105 50.922 70.7223 51.6466C69.8689 51.8233 69.4855 51.9793 69.4855 51.9793C69.4855 51.9793 69.8048 51.485 70.4077 51.2697C77.3116 48.8516 82.616 58.4076 68.1799 62.196C68.1808 62.1942 68.1877 62.1873 68.1986 62.1764C68.2444 62.1306 68.3609 62.0144 68.4012 61.9074ZM48.5585 64.2442C48.5585 64.2442 46.3599 65.5223 50.1288 65.9528C54.6918 66.4715 57.028 66.3982 62.0573 65.4481C62.0573 65.4481 63.3817 66.2751 65.2318 66.9903C53.9458 71.8172 39.6962 66.7159 48.5585 64.2442ZM47.1794 57.9531C47.1794 57.9531 44.7114 59.7745 48.4794 60.1654C53.357 60.6701 57.2088 60.7086 63.8716 59.4314C63.8716 59.4314 64.7891 60.3619 66.2416 60.8759C52.611 64.8504 37.425 61.1842 47.1794 57.9531ZM77.3655 71.8262C76.9878 76.7263 61.0511 77.7545 50.6779 77.0938C43.8625 76.653 42.5324 75.5619 42.5371 75.5563C49.0143 76.6239 59.9367 76.8194 68.7934 75.155C76.6393 73.6814 77.3655 71.8262 77.3655 71.8262Z" fill="#0D8AC7"/>
<path fill-rule="evenodd" clip-rule="evenodd" d="M84.4969 66.6072C86.0196 66.0501 87.4055 65.0555 88.2657 63.8039C89.1248 62.5146 89.3825 61.1969 89.3825 57.9341V41.3926H86.1784V58.1691C86.1784 60.6072 86.0133 61.6291 85.6137 62.4212C85.1541 63.3119 84.1625 64.2624 83.0068 64.8583L84.4969 66.6072ZM103.159 50.8032V61.306L100.799 61.307L100.564 59.7113C99.2651 60.837 97.8739 61.6018 96.0115 61.6018C93.1145 61.6018 91.575 60.1257 91.575 57.5302C91.575 54.5129 93.9084 52.5133 99.0842 52.5133H100.147V51.1851C100.147 49.4152 99.2325 48.557 97.102 48.557C95.5625 48.557 93.9957 48.9725 92.7853 49.4152L92.3416 47.5572C93.8811 46.8795 95.7707 46.3497 97.9285 46.3497C101.626 46.3497 103.159 48.1196 103.159 50.8032ZM109.463 61.306H113.22C115.379 56.7601 116.918 51.4537 117.774 46.6172H114.58C114.075 50.4486 113.073 54.4321 111.655 58.3558L111.03 55.6449L108.22 46.6172H104.939L109.463 61.306ZM130.662 61.306V50.8032C130.662 48.1196 129.122 46.3497 125.425 46.3497C123.267 46.3497 121.371 46.8795 119.833 47.5572L120.276 49.4152C121.487 48.9725 123.059 48.557 124.593 48.557C126.724 48.557 127.638 49.4152 127.638 51.1851V52.5133H126.575C121.399 52.5133 119.066 54.5129 119.066 57.5302C119.066 60.1257 120.606 61.6018 123.503 61.6018C125.365 61.6018 126.756 60.837 128.06 59.7113L128.296 61.307L130.662 61.306ZM96.8651 59.388C97.8998 59.388 99.0555 58.8582 100.146 57.9129V54.4309H98.8757C95.4465 54.4309 94.5863 55.5514 94.5863 57.0873C94.5863 58.5025 95.3866 59.388 96.8651 59.388ZM127.649 57.9124C126.553 58.8577 125.398 59.3875 124.363 59.3875C122.884 59.3875 122.084 58.5021 122.084 57.0868C122.084 55.5509 122.944 54.4304 126.374 54.4304H127.644L127.649 57.9124Z" fill="#EC2025"/>
<rect x="4.5" y="2.5" width="159" height="99" rx="7.5" stroke="#D1D6DC"/>
</g>
<defs>
<filter id="filter0_d_375_10907" x="0" y="0" width="168" height="108" filterUnits="userSpaceOnUse" color-interpolation-filters="sRGB">
<feFlood flood-opacity="0" result="BackgroundImageFix"/>
<feColorMatrix in="SourceAlpha" type="matrix" values="0 0 0 0 0 0 0 0 0 0 0 0 0 0 0 0 0 0 127 0" result="hardAlpha"/>
<feOffset dy="2"/>
<feGaussianBlur stdDeviation="2"/>
<feComposite in2="hardAlpha" operator="out"/>
<feColorMatrix type="matrix" values="0 0 0 0 0 0 0 0 0 0 0 0 0 0 0 0 0 0 0.1 0"/>
<feBlend mode="normal" in2="BackgroundImageFix" result="effect1_dropShadow_375_10907"/>
<feBlend mode="normal" in="SourceGraphic" in2="effect1_dropShadow_375_10907" result="shape"/>
</filter>
</defs>
</svg>
