<svg width="30" height="30" viewBox="0 0 30 30" fill="none" xmlns="http://www.w3.org/2000/svg">
<path fill-rule="evenodd" clip-rule="evenodd" d="M20.3232 8.85906C16.9722 5.47146 11.1612 5.47146 7.81025 8.85906L1.73582 14.9998L7.81024 21.1405C11.1613 24.5282 16.9728 24.5283 20.3237 21.1462C23.6849 17.7593 23.6857 12.2529 20.3232 8.85906ZM0.982609 14.3393L7.09931 8.15581C10.8416 4.37254 17.2918 4.37254 21.0341 8.15581C24.7825 11.9391 24.7825 18.0729 21.0341 21.85C17.2918 25.6271 10.8416 25.6271 7.09931 21.8438L0.982609 15.6603C0.621031 15.2944 0.621031 14.7052 0.982609 14.3393Z" fill="black"/>
<path fill-rule="evenodd" clip-rule="evenodd" d="M10.1327 19.0951C12.3608 21.3479 15.9725 21.3479 18.2006 19.0951C20.4346 16.8362 20.4346 13.1719 18.1956 10.9129L18.1949 10.9122C15.9668 8.65933 12.3551 8.65933 10.127 10.9122L6.07839 15.0007L10.1327 19.0951ZM5.13063 14.5366L9.416 10.209C12.0355 7.56039 16.2864 7.56039 18.9059 10.209C21.5311 12.8576 21.5311 17.1497 18.9116 19.7983C16.2921 22.4469 12.0412 22.4469 9.42174 19.7983L5.13063 15.4648C4.87787 15.2105 4.87787 14.7967 5.13063 14.5366Z" fill="black"/>
<path fill-rule="evenodd" clip-rule="evenodd" d="M26.1421 11.3234C25.6514 10.8411 24.739 11.2529 24.9207 12.0051ZM24.9207 12.0051C25.3728 13.9752 25.3726 16.0321 24.92 18.002L24.919 18.0066C24.757 18.7429 25.6498 19.1644 26.1421 18.6805L28.8693 16.0002L28.8723 15.9972C29.426 15.4438 29.4303 14.5551 28.8693 14.0037L26.1421 11.3234M26.0669 12.6517C26.3239 14.2067 26.3239 15.7972 26.0669 17.3522L28.1666 15.2887C28.3316 15.1225 28.3269 14.8728 28.1683 14.717L26.0669 12.6517Z" fill="black"/>
<path fill-rule="evenodd" clip-rule="evenodd" d="M14.2652 17.606C15.7041 17.606 16.8706 16.4395 16.8706 15.0006C16.8706 13.5617 15.7041 12.3952 14.2652 12.3952C12.8263 12.3952 11.6599 13.5617 11.6599 15.0006C11.6599 16.4395 12.8263 17.606 14.2652 17.606ZM17.8706 15.0006C17.8706 16.9918 16.2564 18.606 14.2652 18.606C12.274 18.606 10.6599 16.9918 10.6599 15.0006C10.6599 13.0094 12.274 11.3952 14.2652 11.3952C16.2564 11.3952 17.8706 13.0094 17.8706 15.0006Z" fill="black"/>
</svg>
