<svg width="30" height="30" viewBox="0 0 30 30" fill="none" xmlns="http://www.w3.org/2000/svg">
<path fill-rule="evenodd" clip-rule="evenodd" d="M23.8976 2.7757C24.4941 5.89867 25.1468 12.2658 22.1865 17.3932C21.2137 19.0782 19.9274 20.4963 18.5246 21.6796L9.29437 16.3505C9.61775 14.544 10.2027 12.721 11.1755 11.036C14.1358 5.90858 19.9763 3.29031 22.9791 2.24542C23.4054 2.09708 23.8129 2.33236 23.8976 2.7757ZM9.13312 17.4121C9.0573 18.0155 9.00824 18.6135 8.98116 19.2004C8.96656 19.5169 9.13836 19.8392 9.45675 20.0231L15.2629 23.3752C15.5813 23.5591 15.9464 23.5467 16.2131 23.3758C16.7078 23.0589 17.2012 22.7174 17.6858 22.35L9.13312 17.4121ZM22.6505 1.30096C23.6531 0.95207 24.6807 1.54532 24.8798 2.58809C25.4853 5.758 26.2028 12.4368 23.0526 17.8932C22.8717 18.2064 22.6811 18.5105 22.4817 18.8059C22.5122 18.8576 22.5339 18.9157 22.5442 18.9785L23.2291 23.1232C23.2543 23.2752 23.2079 23.4304 23.1034 23.5437L19.0626 27.9258C18.9472 28.051 18.776 28.1088 18.6083 28.0793C18.4406 28.0497 18.2995 27.9369 18.2338 27.7798L16.7459 24.222C16.1443 24.6038 15.3804 24.5978 14.7629 24.2413L8.95675 20.8891C8.33958 20.5328 7.95251 19.8748 7.98183 19.1634L4.15862 19.6535C3.98972 19.6752 3.82141 19.6094 3.71197 19.4789C3.60254 19.3485 3.56702 19.1713 3.61771 19.0087L5.39236 13.3182C5.43824 13.1711 5.54939 13.0534 5.69363 12.9991L9.62551 11.5199C9.68434 11.4978 9.74471 11.4874 9.80403 11.4877C9.96026 11.1671 10.1285 10.8495 10.3095 10.536C13.4598 5.07957 19.6025 2.36156 22.6505 1.30096ZM9.265 12.7239L6.27431 13.8491L4.80436 18.5625L8.04945 18.1465C8.20463 16.3778 8.56815 14.5208 9.265 12.7239ZM17.5927 23.655L18.8557 26.675L22.2027 23.0453L21.6813 19.8901C20.4736 21.3924 19.047 22.636 17.5927 23.655ZM17.3863 12.9957C18.5899 13.6905 20.1289 13.2782 20.8237 12.0746C21.5186 10.8711 21.1062 9.33211 19.9027 8.63724C18.6991 7.94236 17.1602 8.35473 16.4653 9.55828C15.7704 10.7618 16.1828 12.3008 17.3863 12.9957ZM16.8863 13.8617C18.5682 14.8327 20.7187 14.2565 21.6898 12.5746C22.6608 10.8928 22.0845 8.74222 20.4027 7.77121C18.7208 6.8002 16.5703 7.37644 15.5993 9.05828C14.6283 10.7401 15.2045 12.8907 16.8863 13.8617ZM8.78947 22.6898C8.92754 22.4506 8.84561 22.1449 8.60646 22.0068C8.36731 21.8687 8.06152 21.9506 7.92345 22.1898L7.31569 23.2425C7.17762 23.4816 7.25956 23.7874 7.4987 23.9255C7.73785 24.0635 8.04365 23.9816 8.18172 23.7425L8.78947 22.6898ZM11.2891 23.5556C11.5283 23.6937 11.6102 23.9995 11.4721 24.2386L9.97212 26.8367C9.83405 27.0758 9.52825 27.1578 9.28911 27.0197C9.04996 26.8816 8.96803 26.5758 9.1061 26.3367L10.6061 23.7386C10.7442 23.4995 11.05 23.4175 11.2891 23.5556ZM14.1548 25.7874C14.2928 25.5483 14.2109 25.2425 13.9718 25.1044C13.7326 24.9664 13.4268 25.0483 13.2887 25.2874L12.681 26.3401C12.5429 26.5793 12.6249 26.8851 12.864 27.0231C13.1031 27.1612 13.4089 27.0793 13.547 26.8401L14.1548 25.7874Z" fill="black"/>
</svg>
