<svg width="14" height="14" viewBox="0 0 14 14" fill="none" xmlns="http://www.w3.org/2000/svg">
<g clip-path="url(#clip0_93_6270)">
<path d="M2.16968 11.9023L0.796305 13.2757" stroke="black" stroke-linecap="round" stroke-linejoin="round"/>
<path d="M3.74463 6.28035L7.7201 10.2558L6.25911 11.7168C5.16132 12.8146 3.38144 12.8146 2.28364 11.7168C1.18585 10.619 1.18585 8.83913 2.28364 7.74133L3.74463 6.28035Z" stroke="black" stroke-linejoin="round"/>
<path d="M11.83 2.09814L13.2033 0.724772" stroke="black" stroke-linecap="round" stroke-linejoin="round"/>
<path d="M10.256 7.71916L6.28051 3.74369L7.7415 2.28271C8.83929 1.18491 10.6192 1.18491 11.717 2.28271C12.8148 3.3805 12.8148 5.16038 11.717 6.25818L10.256 7.71916Z" stroke="black" stroke-linejoin="round"/>
<path d="M5.97681 5.77979L5.47051 6.28608L4.96421 6.79238" stroke="black" stroke-linecap="round" stroke-linejoin="round"/>
<path d="M8.22107 8.02344L7.71477 8.52973L7.20848 9.03603" stroke="black" stroke-linecap="round" stroke-linejoin="round"/>
</g>
<defs>
<clipPath id="clip0_93_6270">
<rect width="14" height="14" fill="white"/>
</clipPath>
</defs>
</svg>
