<svg width="14" height="14" viewBox="0 0 14 14" fill="none" xmlns="http://www.w3.org/2000/svg">
<g clip-path="url(#clip0_93_6298)">
<path d="M10.8259 13.4328C10.6238 13.4328 10.4218 13.3806 10.2393 13.2698L7.62572 11.7186C7.35198 11.7121 7.07824 11.6926 6.81754 11.6535C6.64156 11.6274 6.49166 11.51 6.42648 11.3406C6.36131 11.1711 6.3939 10.9886 6.51121 10.8517C6.94137 10.3499 7.16297 9.75027 7.16297 9.11155C7.16297 7.53429 5.77472 6.25032 4.0671 6.25032C3.42838 6.25032 2.81572 6.42636 2.30083 6.76528C2.15744 6.85652 1.98147 6.86956 1.82504 6.79787C1.67514 6.72617 1.56435 6.58272 1.54479 6.41326C1.52524 6.23077 1.51221 6.04834 1.51221 5.85933C1.51221 2.62658 4.31477 0 7.75607 0C11.1974 0 13.9999 2.62658 13.9999 5.85933C13.9999 7.63212 13.1787 9.26145 11.7318 10.376L11.9534 12.1488C12.0055 12.592 11.81 13.0091 11.4385 13.2503C11.256 13.3676 11.0409 13.4328 10.8259 13.4328ZM7.74955 10.7344C7.8408 10.7279 7.93205 10.754 8.01026 10.8062L10.7411 12.4291C10.8128 12.4747 10.8715 12.4551 10.9106 12.4291C10.9432 12.4095 10.9953 12.3574 10.9823 12.2661L10.7281 10.2065C10.7085 10.024 10.7868 9.8481 10.9301 9.74382C12.2597 8.8118 13.0223 7.3909 13.0223 5.84623C13.0223 3.15449 10.6629 0.96459 7.75607 0.96459C4.96001 0.96459 2.66581 2.9981 2.49636 5.553C2.98518 5.36399 3.51311 5.2597 4.06058 5.2597C6.30917 5.2597 8.13409 6.98029 8.13409 9.09851C8.14061 9.67206 8.00374 10.2261 7.74955 10.7344Z" fill="black"/>
<path d="M2.16384 14.0062C1.99438 14.0062 1.83144 13.9606 1.68154 13.8628C1.38825 13.6738 1.23183 13.3479 1.27094 13.0025L1.40128 11.9988C0.521407 11.2818 0 10.2195 0 9.10495C0 7.83402 0.664801 6.64782 1.77931 5.9374C2.45062 5.50073 3.24576 5.26611 4.07349 5.26611C6.32208 5.26611 8.14701 6.98673 8.14701 9.10495C8.14701 9.96527 7.83416 10.8126 7.26062 11.4839C6.52413 12.3768 5.42264 12.8982 4.21036 12.9373L2.62007 13.8823C2.47668 13.9671 2.32026 14.0062 2.16384 14.0062ZM4.06698 6.24373C3.42825 6.24373 2.81559 6.4197 2.3007 6.75862C1.46645 7.29306 0.971121 8.16641 0.971121 9.10495C0.971121 10.0109 1.41432 10.8386 2.19643 11.3731C2.34634 11.4774 2.42454 11.6533 2.40499 11.8358L2.2616 12.9503L3.81931 12.0248C3.89752 11.9792 3.98225 11.9531 4.06698 11.9531C5.02506 11.9531 5.93103 11.5425 6.50458 10.8451C6.93474 10.3368 7.16285 9.73715 7.16285 9.09843C7.16285 7.52769 5.77461 6.24373 4.06698 6.24373Z" fill="black"/>
</g>
<defs>
<clipPath id="clip0_93_6298">
<rect width="14" height="14" fill="white"/>
</clipPath>
</defs>
</svg>
