<svg width="168" height="108" viewBox="0 0 168 108" fill="none" xmlns="http://www.w3.org/2000/svg">
<g filter="url(#filter0_d_181_5577)">
<rect x="4" y="2" width="160" height="100" rx="8" fill="white"/>
<path d="M73.2924 48.5302C73.2924 44.879 72.2512 43.0032 70.1678 42.9004C69.3393 42.8613 68.53 42.9933 67.7431 43.2989C67.1149 43.5237 66.6921 43.7462 66.4697 43.9709V52.6878C67.8018 53.5238 68.9849 53.9123 70.0156 53.8513C72.1983 53.7071 73.2907 51.9349 73.2907 48.53L73.2924 48.5302ZM75.8603 48.6818C75.8603 50.537 75.4253 52.0772 74.5503 53.301C73.5751 54.687 72.2234 55.4007 70.4953 55.4398C69.1926 55.4814 67.8497 55.0732 66.4705 54.2175V62.1394L64.2363 61.3425V43.7584C64.603 43.3087 65.0747 42.9223 65.6467 42.5948C66.9763 41.8199 68.5932 41.4214 70.4941 41.4019L70.5259 41.4336C72.2637 41.4116 73.6028 42.1253 74.5432 43.5725C75.4207 44.8998 75.8608 46.6018 75.8608 48.6807L75.8603 48.6818Z" fill="#646464"/>
<path d="M89.5183 53.8819C89.5183 56.3703 89.269 58.0924 88.7703 59.0529C88.2692 60.011 87.3158 60.7762 85.909 61.3457C84.7674 61.7953 83.5331 62.0398 82.2076 62.0814L81.8384 60.6736C83.1853 60.4903 84.1337 60.307 84.6847 60.1236C85.7675 59.757 86.5106 59.1948 86.9188 58.442C87.2463 57.8283 87.4076 56.6577 87.4076 54.9236V54.3419C85.8799 55.036 84.2779 55.3808 82.6053 55.3808C81.5054 55.3808 80.5349 55.0362 79.6988 54.3419C78.7602 53.5865 78.291 52.6283 78.291 51.468V42.1694L80.5251 41.4043V50.7631C80.5251 51.7629 80.8479 52.5328 81.4931 53.073C82.1384 53.6131 82.9744 53.8722 83.9986 53.8526C85.0227 53.8306 86.1201 53.4346 87.2862 52.6597V41.7411H89.5203V53.8809L89.5183 53.8819Z" fill="#646464"/>
<path d="M98.2437 55.3189C97.9774 55.3409 97.7329 55.3506 97.5079 55.3506C96.2443 55.3506 95.2593 55.05 94.5564 54.4464C93.855 53.8425 93.5029 53.0092 93.5029 51.9459V43.1463H91.9727V41.7408H93.5029V38.0093L95.7345 37.2148V41.7413H98.2447V43.1468H95.7345V51.8862C95.7345 52.7246 95.9594 53.3186 96.4091 53.6657C96.7952 53.9516 97.4089 54.1153 98.2447 54.157V55.3206L98.2437 55.3189Z" fill="#646464"/>
<path d="M111.76 55.1355H109.526V46.5114C109.526 45.634 109.321 44.8787 108.913 44.248C108.441 43.5343 107.786 43.1774 106.945 43.1774C105.921 43.1774 104.64 43.7176 103.103 44.7979V55.1347H100.869V34.5213L103.103 33.8174V43.2063C104.531 42.1673 106.09 41.6467 107.785 41.6467C108.968 41.6467 109.926 42.0452 110.659 42.8396C111.395 43.6341 111.761 44.6239 111.761 45.8063V55.1325L111.76 55.1355Z" fill="#646464"/>
<path d="M123.647 48.179C123.647 46.776 123.381 45.6187 122.85 44.7008C122.219 43.5839 121.239 42.9948 119.913 42.9337C117.464 43.0754 116.242 44.8305 116.242 48.1948C116.242 49.7371 116.496 51.0261 117.01 52.0592C117.665 53.3768 118.648 54.0268 119.959 54.005C122.418 53.9854 123.648 52.0447 123.648 48.1796L123.647 48.179ZM126.094 48.1937C126.094 50.1906 125.583 51.8525 124.564 53.1791C123.442 54.6651 121.893 55.4107 119.914 55.4107C117.954 55.4107 116.426 54.6651 115.323 53.1791C114.323 51.8517 113.824 50.1899 113.824 48.1937C113.824 46.3164 114.364 44.7381 115.445 43.4516C116.586 42.0877 118.088 41.4033 119.941 41.4033C121.796 41.4033 123.306 42.0877 124.47 43.4516C125.55 44.7373 126.09 46.3154 126.09 48.1937H126.094Z" fill="#646464"/>
<path d="M138.894 55.1356H136.66V46.0225C136.66 45.0227 136.359 44.2431 135.758 43.6808C135.157 43.1211 134.355 42.8498 133.355 42.8718C132.294 42.8914 131.285 43.2385 130.326 43.9108V55.1353H128.092V43.6349C129.378 42.6988 130.561 42.0877 131.64 41.8018C132.66 41.5355 133.559 41.4033 134.334 41.4033C134.864 41.4033 135.363 41.4547 135.832 41.5573C136.709 41.7602 137.423 42.1366 137.973 42.6891C138.587 43.3002 138.892 44.0334 138.892 44.8913V55.1353L138.894 55.1356Z" fill="#646464"/>
<path d="M42.1741 34.6043C41.0246 34.6096 39.927 34.7076 38.9617 34.8786C36.1155 35.3814 35.5989 36.4334 35.5989 38.3744V40.9372H42.3221V41.7914H35.5989H33.0761C31.1221 41.7914 29.4098 42.966 28.8757 45.1994C28.2583 47.7597 28.231 49.3597 28.8757 52.0329C29.3537 54.0235 30.4952 55.4409 32.4492 55.4409H34.7611V52.3689C34.7611 50.1496 36.6812 48.1911 38.9615 48.1911H45.6771C47.5466 48.1911 49.04 46.6518 49.04 44.7756V38.3734C49.04 36.5512 47.5028 35.1835 45.6771 34.8776C44.5221 34.6853 43.3237 34.598 42.1739 34.6033L42.1741 34.6043ZM38.5379 36.6653C39.2326 36.6653 39.7996 37.2419 39.7996 37.9506C39.7996 38.6567 39.2323 39.228 38.5379 39.228C37.841 39.228 37.2763 38.657 37.2763 37.9506C37.2763 37.2419 37.841 36.6653 38.5379 36.6653Z" fill="url(#paint0_linear_181_5577)"/>
<path d="M49.8785 41.7896V44.7762C49.8785 47.0911 47.916 49.0394 45.6781 49.0394H38.9625C37.1228 49.0394 35.5996 50.6137 35.5996 52.4549V58.8571C35.5996 60.6792 37.1842 61.751 38.9625 62.2726C41.0908 62.8985 43.1328 63.0116 45.6781 62.2726C47.3708 61.7826 49.041 60.796 49.041 58.8571V56.2942H42.3253V55.4401H49.041H52.4038C54.3578 55.4401 55.0871 54.0771 55.7667 52.0321C56.4686 49.9258 56.4387 47.8994 55.7667 45.1985C55.2837 43.2533 54.3613 41.7906 52.4038 41.7906H49.8811L49.8785 41.7896ZM46.1019 58.0044C46.7988 58.0044 47.3636 58.5754 47.3636 59.2819C47.3636 59.9906 46.7988 60.5671 46.1019 60.5671C45.4073 60.5671 44.8403 59.9906 44.8403 59.2819C44.8403 58.5757 45.4075 58.0044 46.1019 58.0044Z" fill="url(#paint1_linear_181_5577)"/>
<path opacity="0.4438" d="M51.4171 66.63C51.4171 67.0934 50.4677 67.5378 48.7777 67.8655C47.0878 68.1932 44.7957 68.3772 42.4058 68.3772C40.0159 68.3772 37.7238 68.1932 36.0339 67.8655C34.3439 67.5378 33.3945 67.0934 33.3945 66.63C33.3945 66.1666 34.3439 65.7222 36.0339 65.3946C37.7238 65.0669 40.0159 64.8828 42.4058 64.8828C44.7957 64.8828 47.0878 65.0669 48.7777 65.3946C50.4677 65.7222 51.4171 66.1666 51.4171 66.63Z" fill="url(#paint2_radial_181_5577)"/>
<rect x="4.5" y="2.5" width="159" height="99" rx="7.5" stroke="#D1D6DC"/>
</g>
<defs>
<filter id="filter0_d_181_5577" x="0" y="0" width="168" height="108" filterUnits="userSpaceOnUse" color-interpolation-filters="sRGB">
<feFlood flood-opacity="0" result="BackgroundImageFix"/>
<feColorMatrix in="SourceAlpha" type="matrix" values="0 0 0 0 0 0 0 0 0 0 0 0 0 0 0 0 0 0 127 0" result="hardAlpha"/>
<feOffset dy="2"/>
<feGaussianBlur stdDeviation="2"/>
<feComposite in2="hardAlpha" operator="out"/>
<feColorMatrix type="matrix" values="0 0 0 0 0 0 0 0 0 0 0 0 0 0 0 0 0 0 0.1 0"/>
<feBlend mode="normal" in2="BackgroundImageFix" result="effect1_dropShadow_181_5577"/>
<feBlend mode="normal" in="SourceGraphic" in2="effect1_dropShadow_181_5577" result="shape"/>
</filter>
<linearGradient id="paint0_linear_181_5577" x1="28.4019" y1="34.6037" x2="43.9115" y2="47.8152" gradientUnits="userSpaceOnUse">
<stop stop-color="#5A9FD4"/>
<stop offset="1" stop-color="#306998"/>
</linearGradient>
<linearGradient id="paint1_linear_181_5577" x1="45.9433" y1="59.0748" x2="40.3705" y2="51.2776" gradientUnits="userSpaceOnUse">
<stop stop-color="#FFD43B"/>
<stop offset="1" stop-color="#FFE873"/>
</linearGradient>
<radialGradient id="paint2_radial_181_5577" cx="0" cy="0" r="1" gradientUnits="userSpaceOnUse" gradientTransform="translate(42.4178 66.623) rotate(-90) scale(1.74731 7.68222)">
<stop stop-color="#B8B8B8" stop-opacity="0.498"/>
<stop offset="1" stop-color="#7F7F7F" stop-opacity="0"/>
</radialGradient>
</defs>
</svg>
