<svg width="168" height="108" viewBox="0 0 168 108" fill="none" xmlns="http://www.w3.org/2000/svg">
<g clip-path="url(#clip0_512_1509)">
<g filter="url(#filter0_d_512_1509)">
<path d="M156 2H12C7.58172 2 4 5.58172 4 10V94C4 98.4183 7.58172 102 12 102H156C160.418 102 164 98.4183 164 94V10C164 5.58172 160.418 2 156 2Z" fill="white"/>
<path d="M44.2616 44.088C45.6842 44.088 46.8429 44.2273 47.7376 44.506C48.6322 44.7847 49.2849 45.254 49.6956 45.914C50.1209 46.5593 50.3336 47.476 50.3336 48.664C50.3336 49.3093 50.2382 49.896 50.0476 50.424C49.8716 50.952 49.5636 51.3847 49.1236 51.722C48.6836 52.0447 48.0822 52.25 47.3196 52.338V52.47C47.5982 52.4993 47.8916 52.5873 48.1996 52.734C48.5222 52.8807 48.8156 53.1227 49.0796 53.46C49.3582 53.7827 49.5562 54.23 49.6736 54.802L50.9276 59.488H46.5936L45.5156 54.934C45.4129 54.4647 45.2516 54.1567 45.0316 54.01C44.8116 53.8487 44.4889 53.768 44.0636 53.768C43.0076 53.7533 42.1349 53.746 41.4456 53.746C40.7562 53.746 40.1696 53.7387 39.6856 53.724C39.2162 53.7093 38.7689 53.6873 38.3436 53.658L38.4096 50.776H44.1736C44.7016 50.776 45.1049 50.7247 45.3836 50.622C45.6769 50.5193 45.8822 50.336 45.9996 50.072C46.1169 49.7933 46.1756 49.412 46.1756 48.928C46.1756 48.4293 46.1169 48.048 45.9996 47.784C45.8822 47.52 45.6769 47.3367 45.3836 47.234C45.1049 47.1313 44.7016 47.08 44.1736 47.08C42.7216 47.08 41.4896 47.0873 40.4776 47.102C39.4802 47.1167 38.7982 47.1387 38.4316 47.168L38.1016 44.308C38.7469 44.2347 39.3556 44.1833 39.9276 44.154C40.4996 44.1247 41.1229 44.11 41.7976 44.11C42.4869 44.0953 43.3082 44.088 44.2616 44.088ZM42.1496 44.308V59.488H38.1016V44.308H42.1496Z" fill="#009CD5"/>
<path d="M55.9895 44.242C56.8401 44.242 57.7055 44.242 58.5855 44.242C59.4801 44.242 60.3528 44.264 61.2035 44.308C62.0688 44.3373 62.8608 44.396 63.5795 44.484L63.3815 47.432H57.7055C57.3828 47.432 57.1335 47.52 56.9575 47.696C56.7815 47.8573 56.6935 48.0847 56.6935 48.378V55.418C56.6935 55.7113 56.7815 55.946 56.9575 56.122C57.1335 56.2833 57.3828 56.364 57.7055 56.364H63.3815L63.5795 59.312C62.8608 59.3853 62.0688 59.444 61.2035 59.488C60.3528 59.5173 59.4801 59.532 58.5855 59.532C57.7055 59.5467 56.8401 59.554 55.9895 59.554C54.9775 59.554 54.1561 59.2533 53.5255 58.652C52.8948 58.0507 52.5795 57.266 52.5795 56.298V47.498C52.5795 46.5153 52.8948 45.7307 53.5255 45.144C54.1561 44.5427 54.9775 44.242 55.9895 44.242ZM52.9755 50.27H62.5895V53.064H52.9755V50.27Z" fill="#009CD5"/>
<path d="M71.035 44C71.8124 44.0147 72.6704 44.066 73.609 44.154C74.5477 44.242 75.4571 44.4253 76.3371 44.704L76.073 47.388C75.4277 47.3733 74.6357 47.3587 73.697 47.344C72.773 47.3293 71.8637 47.322 70.969 47.322C70.6317 47.322 70.3457 47.3367 70.111 47.366C69.891 47.3807 69.7077 47.4247 69.561 47.498C69.429 47.5567 69.3337 47.652 69.275 47.784C69.2164 47.9013 69.187 48.07 69.187 48.29C69.187 48.642 69.2897 48.9133 69.495 49.104C69.715 49.28 70.0964 49.4633 70.639 49.654L73.4771 50.71C74.7091 51.194 75.567 51.7953 76.051 52.514C76.5497 53.218 76.799 54.1347 76.799 55.264C76.799 56.1147 76.6964 56.8333 76.4911 57.42C76.2857 58.0067 75.9484 58.4687 75.479 58.806C75.0244 59.1433 74.4157 59.3927 73.653 59.554C72.905 59.7153 71.9737 59.796 70.859 59.796C70.3457 59.796 69.5904 59.7593 68.593 59.686C67.6104 59.6127 66.4957 59.422 65.249 59.114L65.491 56.21C66.371 56.2247 67.1484 56.2467 67.823 56.276C68.5124 56.2907 69.1064 56.3053 69.605 56.32C70.1184 56.32 70.5217 56.32 70.815 56.32C71.3137 56.32 71.695 56.298 71.959 56.254C72.223 56.1953 72.4064 56.1 72.509 55.968C72.6117 55.8213 72.663 55.616 72.663 55.352C72.663 55.1027 72.6264 54.9047 72.553 54.758C72.4797 54.6113 72.3477 54.4867 72.1571 54.384C71.9811 54.2813 71.739 54.1787 71.431 54.076L68.395 52.866C67.1924 52.3673 66.3417 51.7733 65.843 51.084C65.3444 50.3947 65.095 49.4927 65.095 48.378C65.095 47.498 65.205 46.7793 65.425 46.222C65.645 45.6647 65.9824 45.2247 66.437 44.902C66.9064 44.5793 67.5224 44.352 68.285 44.22C69.0477 44.0733 69.9644 44 71.035 44Z" fill="#009CD5"/>
<path d="M86.295 44.308V59.488H82.159V44.308H86.295ZM90.673 44.308V47.454H77.759V44.308H90.673Z" fill="#009CD5"/>
<path d="M93.1899 49.434C93.7179 49.434 94.0772 49.5367 94.2679 49.742C94.4732 49.9473 94.5759 50.3067 94.5759 50.82V51.788C94.5759 52.3013 94.4732 52.6607 94.2679 52.866C94.0772 53.0713 93.7179 53.174 93.1899 53.174H92.2659C91.7379 53.174 91.3712 53.0713 91.1659 52.866C90.9752 52.6607 90.8799 52.3013 90.8799 51.788V50.82C90.8799 50.3067 90.9752 49.9473 91.1659 49.742C91.3712 49.5367 91.7379 49.434 92.2659 49.434H93.1899ZM93.1899 55.726C93.7179 55.726 94.0772 55.8287 94.2679 56.034C94.4732 56.2393 94.5759 56.5987 94.5759 57.112V58.08C94.5759 58.5933 94.4732 58.9527 94.2679 59.158C94.0772 59.3633 93.7179 59.466 93.1899 59.466H92.2659C91.7379 59.466 91.3712 59.3633 91.1659 59.158C90.9752 58.9527 90.8799 58.5933 90.8799 58.08V57.112C90.8799 56.5987 90.9752 56.2393 91.1659 56.034C91.3712 55.8287 91.7379 55.726 92.2659 55.726H93.1899Z" fill="#009CD5"/>
<path d="M105.083 44.308C105.42 44.308 105.713 44.4033 105.963 44.594C106.227 44.7847 106.403 45.0487 106.491 45.386L110.649 59.488H106.425L103.763 49.016C103.704 48.7667 103.653 48.5027 103.609 48.224C103.565 47.9307 103.521 47.6593 103.477 47.41H102.883C102.853 47.6593 102.809 47.9307 102.751 48.224C102.707 48.5027 102.655 48.7667 102.597 49.016L99.9346 59.488H95.7106L99.8686 45.386C99.9566 45.0487 100.125 44.7847 100.375 44.594C100.639 44.4033 100.939 44.308 101.277 44.308H105.083ZM107.173 52.91V55.88H99.1866V52.91H107.173Z" fill="#009CD5"/>
<path d="M117.995 44.088C119.521 44.088 120.716 44.242 121.581 44.55C122.447 44.8433 123.063 45.3567 123.429 46.09C123.796 46.8233 123.979 47.85 123.979 49.17C123.979 50.49 123.803 51.5167 123.451 52.25C123.114 52.9687 122.549 53.4747 121.757 53.768C120.965 54.0613 119.902 54.208 118.567 54.208C117.863 54.208 117.159 54.1787 116.455 54.12C115.766 54.0467 115.121 53.9587 114.519 53.856C113.918 53.7387 113.405 53.6213 112.979 53.504C112.554 53.372 112.261 53.262 112.099 53.174L112.165 51.238C113.075 51.238 114.021 51.238 115.003 51.238C115.986 51.238 116.954 51.238 117.907 51.238C118.421 51.2233 118.817 51.1647 119.095 51.062C119.374 50.9447 119.565 50.7393 119.667 50.446C119.785 50.138 119.843 49.7127 119.843 49.17C119.843 48.6127 119.785 48.18 119.667 47.872C119.565 47.564 119.374 47.3587 119.095 47.256C118.817 47.1387 118.421 47.08 117.907 47.08C116.485 47.08 115.267 47.0873 114.255 47.102C113.243 47.1167 112.554 47.146 112.187 47.19L111.857 44.308C112.503 44.2347 113.111 44.1833 113.683 44.154C114.255 44.1247 114.879 44.11 115.553 44.11C116.228 44.0953 117.042 44.088 117.995 44.088ZM115.993 44.308V59.488H111.857V44.308H115.993Z" fill="#009CD5"/>
<path d="M129.893 44.308V59.488H125.801V44.308H129.893Z" fill="#009CD5"/>
<path d="M136.614 42.1282C137.876 41.9375 138.895 41.9595 139.672 42.1942C140.464 42.4289 141.044 42.8175 141.41 43.3602C141.777 43.8882 141.96 44.5262 141.96 45.2742V49.0802C141.96 49.4762 141.982 49.7622 142.026 49.9382C142.085 50.1142 142.188 50.2389 142.334 50.3122C142.496 50.3709 142.723 50.4515 143.016 50.5542V53.0622C142.752 53.1795 142.532 53.2822 142.356 53.3702C142.18 53.4435 142.056 53.5609 141.982 53.7222C141.909 53.8689 141.872 54.1109 141.872 54.4482V59.5082C141.872 60.2415 141.689 60.8795 141.322 61.4222C140.956 61.9649 140.376 62.3535 139.584 62.5882C138.807 62.8229 137.788 62.8449 136.526 62.6542V60.2122C137.113 60.2122 137.516 60.1609 137.736 60.0582C137.956 59.9555 138.066 59.6695 138.066 59.2002V54.8662C138.081 54.3529 138.154 53.9055 138.286 53.5242C138.433 53.1282 138.682 52.7909 139.034 52.5122C139.401 52.2189 139.907 51.9842 140.552 51.8082C139.907 51.7055 139.408 51.5295 139.056 51.2802C138.704 51.0162 138.462 50.6715 138.33 50.2462C138.198 49.8062 138.14 49.2782 138.154 48.6622V45.6482C138.154 45.1642 138.044 44.8635 137.824 44.7462C137.604 44.6289 137.201 44.5702 136.614 44.5702V42.1282Z" fill="#666666"/>
<path d="M31.402 42.1282V44.5702C30.8153 44.5702 30.412 44.6289 30.192 44.7462C29.9867 44.8635 29.884 45.1642 29.884 45.6482V48.6622C29.8987 49.2782 29.84 49.8062 29.708 50.2462C29.576 50.6715 29.3267 51.0162 28.96 51.2802C28.608 51.5295 28.1093 51.7055 27.464 51.8082C28.124 51.9842 28.63 52.2189 28.982 52.5122C29.3487 52.7909 29.6053 53.1282 29.752 53.5242C29.8987 53.9055 29.972 54.3529 29.972 54.8662V59.2002C29.972 59.6695 30.0747 59.9555 30.28 60.0582C30.5 60.1609 30.9033 60.2122 31.49 60.2122V62.6542C30.2287 62.8449 29.202 62.8229 28.41 62.5882C27.6327 62.3535 27.0607 61.9649 26.694 61.4222C26.3273 60.8795 26.144 60.2415 26.144 59.5082V54.4482C26.144 54.1109 26.1073 53.8689 26.034 53.7222C25.9607 53.5609 25.836 53.4435 25.66 53.3702C25.4987 53.2822 25.2787 53.1795 25 53.0622V50.5542C25.308 50.4515 25.5353 50.3709 25.682 50.3122C25.8287 50.2389 25.924 50.1142 25.968 49.9382C26.0267 49.7622 26.056 49.4762 26.056 49.0802V45.2742C26.056 44.5262 26.2393 43.8882 26.606 43.3602C26.9727 42.8175 27.5447 42.4289 28.322 42.1942C29.114 41.9595 30.1407 41.9375 31.402 42.1282Z" fill="#666666"/>
<path d="M156 2.5H12C7.85786 2.5 4.5 5.85786 4.5 10V94C4.5 98.1421 7.85786 101.5 12 101.5H156C160.142 101.5 163.5 98.1421 163.5 94V10C163.5 5.85786 160.142 2.5 156 2.5Z" stroke="#D1D6DC"/>
</g>
</g>
<defs>
<filter id="filter0_d_512_1509" x="0" y="0" width="168" height="108" filterUnits="userSpaceOnUse" color-interpolation-filters="sRGB">
<feFlood flood-opacity="0" result="BackgroundImageFix"/>
<feColorMatrix in="SourceAlpha" type="matrix" values="0 0 0 0 0 0 0 0 0 0 0 0 0 0 0 0 0 0 127 0" result="hardAlpha"/>
<feOffset dy="2"/>
<feGaussianBlur stdDeviation="2"/>
<feComposite in2="hardAlpha" operator="out"/>
<feColorMatrix type="matrix" values="0 0 0 0 0 0 0 0 0 0 0 0 0 0 0 0 0 0 0.1 0"/>
<feBlend mode="normal" in2="BackgroundImageFix" result="effect1_dropShadow_512_1509"/>
<feBlend mode="normal" in="SourceGraphic" in2="effect1_dropShadow_512_1509" result="shape"/>
</filter>
<clipPath id="clip0_512_1509">
<rect width="168" height="108" fill="white"/>
</clipPath>
</defs>
</svg>
