<svg width="30" height="30" viewBox="0 0 30 30" fill="none" xmlns="http://www.w3.org/2000/svg">
<path fill-rule="evenodd" clip-rule="evenodd" d="M10.1241 5.64404L3.12097 5.64404L3.12096 12.6471L10.1241 12.6471L10.1241 5.64404ZM27.127 5.64404H20.1239L20.1239 12.6471L27.127 12.6471L27.127 5.64404ZM3.12097 4.64404C2.56868 4.64404 2.12097 5.09176 2.12097 5.64404V12.6471C2.12097 13.1994 2.56868 13.6471 3.12096 13.6471H10.1241C10.6763 13.6471 11.1241 13.1994 11.1241 12.6471V5.64404C11.1241 5.09176 10.6764 4.64404 10.1241 4.64404H3.12097ZM20.1239 4.64404C19.5716 4.64404 19.1239 5.09176 19.1239 5.64404V12.6471C19.1239 13.1994 19.5716 13.6471 20.1239 13.6471H27.127C27.6793 13.6471 28.127 13.1994 28.127 12.6471V5.64404C28.127 5.09176 27.6793 4.64404 27.127 4.64404H20.1239Z" fill="black"/>
<path fill-rule="evenodd" clip-rule="evenodd" d="M1.5 15.8529C1.5 15.5767 1.72386 15.3529 2 15.3529H28C28.2761 15.3529 28.5 15.5767 28.5 15.8529C28.5 16.129 28.2761 16.3529 28 16.3529H2C1.72386 16.3529 1.5 16.129 1.5 15.8529Z" fill="black"/>
<path fill-rule="evenodd" clip-rule="evenodd" d="M10.3115 25.356C9.07538 25.356 8.36981 23.9448 9.11148 22.9559L13.864 16.6195C14.464 15.8195 15.664 15.8195 16.264 16.6195L21.0161 22.956C21.7577 23.9448 21.0522 25.356 19.8161 25.356H10.3115ZM9.91146 23.5559C9.66424 23.8856 9.89943 24.356 10.3115 24.356H19.8161C20.2281 24.356 20.4633 23.8856 20.2161 23.556L15.464 17.2195C15.264 16.9529 14.864 16.9529 14.664 17.2195L9.91146 23.5559Z" fill="black"/>
</svg>
