<svg width="30" height="30" viewBox="0 0 30 30" fill="none" xmlns="http://www.w3.org/2000/svg">
<path fill-rule="evenodd" clip-rule="evenodd" d="M16.3991 9.51275C16.3991 11.9064 14.4587 13.8468 12.0651 13.8468C9.67145 13.8468 7.73103 11.9064 7.73103 9.51275C7.73103 7.11913 9.67145 5.17871 12.0651 5.17871C14.4587 5.17871 16.3991 7.11913 16.3991 9.51275ZM17.3991 9.51275C17.3991 12.4587 15.011 14.8468 12.0651 14.8468C9.11917 14.8468 6.73103 12.4587 6.73103 9.51275C6.73103 6.56684 9.11917 4.17871 12.0651 4.17871C15.011 4.17871 17.3991 6.56684 17.3991 9.51275ZM12.0651 15.6294C13.1537 15.6294 14.2024 15.8001 15.186 16.1161C15.1715 16.3016 15.1641 16.489 15.1641 16.6782C15.1641 16.8438 15.1697 17.0081 15.1809 17.1709C14.2079 16.8204 13.1588 16.6294 12.0651 16.6294C7.32636 16.6294 3.42515 20.2152 2.92681 24.8214H12.0651H21.2033C21.1606 24.4263 21.0928 24.0387 21.0016 23.6603C21.3433 23.7213 21.6934 23.7578 22.0502 23.768C22.1208 24.1131 22.1739 24.4646 22.2087 24.8214C22.2407 25.1504 22.2571 25.484 22.2571 25.8214H21.2571H12.0651H2.87305H1.87305C1.87305 25.484 1.88944 25.1504 1.92148 24.8214C2.42393 19.6619 6.77359 15.6294 12.0651 15.6294ZM22.2568 21.5483C24.9465 21.5483 27.127 19.3679 27.127 16.6782C27.127 13.9885 24.9465 11.8081 22.2568 11.8081C19.5671 11.8081 17.3867 13.9885 17.3867 16.6782C17.3867 19.3679 19.5671 21.5483 22.2568 21.5483ZM22.2568 22.5483C25.4988 22.5483 28.127 19.9202 28.127 16.6782C28.127 13.4362 25.4988 10.8081 22.2568 10.8081C19.0149 10.8081 16.3867 13.4362 16.3867 16.6782C16.3867 19.9202 19.0149 22.5483 22.2568 22.5483ZM22.9272 14.9639V15.3989H21.3335V14.9639C21.3335 14.5238 21.6903 14.167 22.1304 14.167C22.5705 14.167 22.9272 14.5238 22.9272 14.9639ZM24.1377 15.3989H23.9272V14.9639C23.9272 13.9715 23.1228 13.167 22.1304 13.167C21.138 13.167 20.3335 13.9715 20.3335 14.9639V15.3989H20.123C19.5708 15.3989 19.123 15.8466 19.123 16.3989V19.1896C19.123 19.7419 19.5708 20.1896 20.123 20.1896H24.1377C24.69 20.1896 25.1377 19.7419 25.1377 19.1896V16.3989C25.1377 15.8466 24.69 15.3989 24.1377 15.3989ZM20.123 16.3989V19.1896H24.1377V16.3989H20.123ZM22.6304 17.3955C22.6304 17.1194 22.4065 16.8955 22.1304 16.8955C21.8542 16.8955 21.6304 17.1194 21.6304 17.3955V18.1929C21.6304 18.469 21.8542 18.6929 22.1304 18.6929C22.4065 18.6929 22.6304 18.469 22.6304 18.1929V17.3955Z" fill="black"/>
</svg>
