<svg width="35" height="20" viewBox="0 0 35 20" fill="none" xmlns="http://www.w3.org/2000/svg">
<path d="M6.30892 6.33768L2.91974 2.93408C1.05005 4.80779 0 7.34667 0 9.99366C0 12.6406 1.05005 15.1795 2.91974 17.0532L6.32334 13.6496C5.35355 12.681 4.80743 11.3673 4.80473 9.99664C4.80203 8.62596 5.34296 7.31014 6.30892 6.33768Z" fill="#E8710A"/>
<path d="M2.91992 2.93391L6.3091 6.33751C6.78995 5.85609 7.36098 5.47418 7.98954 5.2136C8.6181 4.95303 9.29186 4.81891 9.97229 4.81891C10.6527 4.81891 11.3265 4.95303 11.955 5.2136C12.5836 5.47418 13.1546 5.85609 13.6355 6.33751L16.1016 2.11186L15.9574 1.99648C14.0338 0.561342 11.658 -0.133677 9.26418 0.0384445C6.87037 0.210566 4.61844 1.23833 2.91992 2.93391Z" fill="#F9AB00"/>
<path d="M16.1161 17.8753L13.6355 13.6641C13.1546 14.1455 12.5836 14.5274 11.955 14.788C11.3265 15.0485 10.6527 15.1827 9.97229 15.1827C9.29186 15.1827 8.6181 15.0485 7.98954 14.788C7.36098 14.5274 6.78995 14.1455 6.3091 13.6641L2.91992 17.0677C4.61505 18.7481 6.85563 19.7664 9.23635 19.9384C11.6171 20.1103 13.9807 19.4245 15.8997 18.0051L16.0584 17.8753" fill="#F9AB00"/>
<path d="M17.0672 2.93417C15.1975 4.80787 14.1475 7.34676 14.1475 9.99374C14.1475 12.6407 15.1975 15.1796 17.0672 17.0533L20.4708 13.6497C19.4993 12.6782 18.9535 11.3605 18.9535 9.98653C18.9535 8.61257 19.4993 7.29488 20.4708 6.32334C21.4423 5.3518 22.76 4.806 24.134 4.806C25.508 4.806 26.8256 5.3518 27.7972 6.32334L31.2152 2.93417C30.2869 2.00404 29.1842 1.26612 27.9704 0.762638C26.7565 0.259157 25.4553 0 24.1412 0C22.8271 0 21.5259 0.259157 20.312 0.762638C19.0982 1.26612 17.9955 2.00404 17.0672 2.93417Z" fill="#F9AB00"/>
<path d="M31.2154 2.93408L27.8262 6.33768C28.7977 7.30922 29.3435 8.62691 29.3435 10.0009C29.3435 11.3748 28.7977 12.6925 27.8262 13.6641C26.8547 14.6356 25.537 15.1814 24.163 15.1814C22.7891 15.1814 21.4714 14.6356 20.4998 13.6641L17.0674 17.0677C18.9416 18.9438 21.4844 19.9986 24.1363 19.9999C25.4494 20.0006 26.7497 19.7426 27.9631 19.2407C29.1765 18.7389 30.2792 18.0029 31.2082 17.0749C32.1371 16.1468 32.8742 15.0449 33.3773 13.832C33.8805 12.6192 34.1398 11.3191 34.1404 10.006C34.1411 8.69288 33.8831 7.39251 33.3812 6.17911C32.8794 4.96572 32.1434 3.86305 31.2154 2.93408Z" fill="#E8710A"/>
</svg>
