<svg width="40" height="40" viewBox="0 0 40 40" fill="none" xmlns="http://www.w3.org/2000/svg">
<rect width="40" height="40" rx="20" fill="#00B3FF"/>
<path d="M26.91 18.5983H29.833L29.8851 18.5966C31.472 18.5434 32.7425 17.2397 32.7425 15.6396C32.7425 14.0056 31.4179 12.6809 29.7838 12.6809C29.6697 12.6809 29.5573 12.6874 29.4469 12.6998L28.7776 12.7755L28.7088 12.1055C28.5106 10.1739 26.8775 8.66667 24.8932 8.66667C23.3476 8.66667 22.0141 9.58081 21.4065 10.9008L21.1844 11.3834L20.6643 11.2746C20.4187 11.2231 20.1636 11.196 19.9015 11.196C18.1395 11.196 16.6651 12.4272 16.2917 14.0763C16.0516 14.1262 15.8146 14.1846 15.5811 14.2512C15.8933 12.1452 17.7087 10.5293 19.9015 10.5293C20.2098 10.5293 20.5107 10.5613 20.8009 10.622C21.5133 9.0744 23.0778 8 24.8932 8C27.191 8 29.0869 9.72131 29.3615 11.9449C29.3653 11.9756 29.3688 12.0065 29.372 12.0374C29.3968 12.0346 29.4217 12.032 29.4467 12.0297C29.5577 12.0195 29.6701 12.0143 29.7838 12.0143C31.786 12.0143 33.4092 13.6374 33.4092 15.6396C33.4092 17.6004 31.8524 19.1977 29.9074 19.2629V19.265H27.2939C27.1742 19.0375 27.0461 18.8151 26.91 18.5983Z" fill="white"/>
<path fill-rule="evenodd" clip-rule="evenodd" d="M23.1747 23.6097C23.1747 26.009 21.2296 27.9541 18.8303 27.9541C16.431 27.9541 14.4859 26.009 14.4859 23.6097C14.4859 21.2104 16.431 19.2653 18.8303 19.2653C21.2296 19.2653 23.1747 21.2104 23.1747 23.6097ZM18.8303 27.2874C20.8614 27.2874 22.508 25.6408 22.508 23.6097C22.508 21.5786 20.8614 19.932 18.8303 19.932C16.7992 19.932 15.1526 21.5786 15.1526 23.6097C15.1526 25.6408 16.7992 27.2874 18.8303 27.2874Z" fill="white"/>
<path fill-rule="evenodd" clip-rule="evenodd" d="M13.8503 18.629L9.81614 22.7029L9.81172 22.7075C9.32548 23.2079 9.31767 24.0131 9.81658 24.5154L9.81709 24.5159L13.856 28.5948C16.5831 31.3518 21.0111 31.3518 23.738 28.5945C26.4611 25.8412 26.4611 21.3821 23.7324 18.6287C21.0053 15.8716 16.5773 15.8717 13.8503 18.629ZM14.3298 28.1257L10.2899 24.0459C10.0519 23.8065 10.0519 23.4169 10.2899 23.172L14.3243 19.0978C16.7905 16.6043 20.7925 16.6043 23.2586 19.0978C25.7302 21.5913 25.7302 25.6322 23.264 28.1257C20.7979 30.6192 16.7959 30.6192 14.3298 28.1257Z" fill="white"/>
<path fill-rule="evenodd" clip-rule="evenodd" d="M6.90975 23.0162C6.58526 23.3446 6.58526 23.8733 6.90975 24.2017L12.399 29.7509C15.7575 33.1461 21.2035 33.1461 24.562 29.7565C27.9259 26.3669 27.9259 20.8622 24.562 17.467C21.2035 14.0718 15.7575 14.0718 12.399 17.467L6.90975 23.0162ZM12.873 17.9358C15.9705 14.8044 20.9905 14.8044 24.088 17.9358C27.1947 21.0714 27.1941 26.1578 24.0884 29.2873C20.9909 32.4136 15.9706 32.4136 12.873 29.2821L7.38384 23.733C7.31612 23.6644 7.31624 23.5534 7.38396 23.4848L12.873 17.9358Z" fill="white"/>
<path fill-rule="evenodd" clip-rule="evenodd" d="M27.4951 20.8179C27.4458 20.6188 27.6922 20.4843 27.84 20.6296L30.2874 23.035C30.6105 23.3525 30.6105 23.8637 30.2874 24.1866L27.84 26.5919C27.6976 26.7319 27.4513 26.6027 27.4951 26.4036C27.5052 26.3595 27.5151 26.3154 27.5247 26.2712C27.5445 26.1804 27.5633 26.0895 27.581 25.9985C27.588 25.9629 27.5947 25.9273 27.6014 25.8917C27.8812 24.3856 27.8812 22.8359 27.6014 21.3298C27.5946 21.2937 27.5878 21.2575 27.5807 21.2215C27.5631 21.1309 27.5444 21.0405 27.5247 20.9504C27.5151 20.9062 27.5052 20.862 27.4951 20.8179ZM29.8201 23.5104C29.8748 23.5642 29.8808 23.6492 29.8174 23.7137L28.3918 25.1149C28.5066 24.1158 28.5066 23.1057 28.3918 22.1066L29.8201 23.5104Z" fill="white"/>
<path d="M13.7172 10.048C13.5902 9.91477 13.3792 9.90968 13.2459 10.0367C13.1126 10.1637 13.1075 10.3747 13.2345 10.5079L14.0791 11.3942L9.81743 11.3942C8.89695 11.3942 8.15076 12.1404 8.15076 13.0609L8.15076 18.5259C8.15076 18.71 8.3 18.8592 8.48409 18.8592C8.66818 18.8592 8.81742 18.71 8.81742 18.5259L8.81743 13.0609C8.81743 12.5086 9.26514 12.0609 9.81743 12.0609L14.0791 12.0609L13.2345 12.9472C13.1075 13.0804 13.1126 13.2914 13.2459 13.4184C13.3792 13.5454 13.5902 13.5403 13.7172 13.4071L15.0985 11.9575C15.2211 11.8288 15.2211 11.6264 15.0985 11.4976L13.7172 10.048Z" fill="white"/>
</svg>
