<svg width="30" height="30" viewBox="0 0 30 30" fill="none" xmlns="http://www.w3.org/2000/svg">
<path fill-rule="evenodd" clip-rule="evenodd" d="M3.65991 4.55176H26.3401C26.8924 4.55176 27.3401 4.99947 27.3401 5.55176V20.7122C27.3401 21.2645 26.8924 21.7122 26.3401 21.7122H3.65991C3.10763 21.7122 2.65991 21.2645 2.65991 20.7122V5.55176C2.65991 4.99947 3.10763 4.55176 3.65991 4.55176ZM1.65991 5.55176C1.65991 4.44719 2.55534 3.55176 3.65991 3.55176H26.3401C27.4447 3.55176 28.3401 4.44719 28.3401 5.55176V20.7122C28.3401 21.8168 27.4447 22.7122 26.3401 22.7122H15.5V22.7124V26.856H20.266C20.5421 26.856 20.766 27.0798 20.766 27.356C20.766 27.6321 20.5421 27.856 20.266 27.856H15.007L15 27.856L14.993 27.856H9.7334C9.45726 27.856 9.2334 27.6321 9.2334 27.356C9.2334 27.0798 9.45726 26.856 9.7334 26.856H14.5V22.7124V22.7122H3.65991C2.55534 22.7122 1.65991 21.8168 1.65991 20.7122V5.55176ZM19.6826 12.0026C19.6826 11.7931 19.6494 11.5914 19.5881 11.4024L22.1662 9.11074C21.8827 8.92714 21.6501 8.67167 21.4942 8.37012L19.0358 10.5554C18.692 10.2474 18.238 10.0602 17.7401 10.0602C16.6674 10.0602 15.7977 10.9298 15.7977 12.0026C15.7977 13.0754 16.6674 13.9451 17.7401 13.9451C18.8129 13.9451 19.6826 13.0754 19.6826 12.0026ZM15.825 11.6749C15.8831 11.3333 16.0303 11.022 16.242 10.7659L14.1678 9.78568C14.1901 9.66782 14.2018 9.5462 14.2018 9.42185C14.2018 8.34906 13.3321 7.47939 12.2593 7.47939C11.1865 7.47939 10.3169 8.34906 10.3169 9.42185C10.3169 10.4946 11.1865 11.3643 12.2593 11.3643C12.8491 11.3643 13.3775 11.1015 13.7337 10.6866L15.825 11.6749ZM10.3251 9.60471L8.14252 10.8422C7.79178 10.4962 7.31009 10.2827 6.77853 10.2827C5.70574 10.2827 4.83607 11.1524 4.83607 12.2252C4.83607 13.298 5.70574 14.1676 6.77853 14.1676C7.85133 14.1676 8.721 13.298 8.721 12.2252C8.721 12.0446 8.69635 11.8697 8.65024 11.7038L10.6799 10.5531C10.4846 10.2811 10.358 9.95652 10.3251 9.60471ZM6.77853 13.1676C7.29904 13.1676 7.721 12.7457 7.721 12.2252C7.721 11.7047 7.29904 11.2827 6.77853 11.2827C6.25803 11.2827 5.83607 11.7047 5.83607 12.2252C5.83607 12.7457 6.25803 13.1676 6.77853 13.1676ZM13.2018 9.42185C13.2018 9.94236 12.7798 10.3643 12.2593 10.3643C11.7388 10.3643 11.3169 9.94236 11.3169 9.42185C11.3169 8.90135 11.7388 8.47939 12.2593 8.47939C12.7798 8.47939 13.2018 8.90135 13.2018 9.42185ZM17.7401 12.9451C18.2606 12.9451 18.6826 12.5231 18.6826 12.0026C18.6826 11.4821 18.2606 11.0602 17.7401 11.0602C17.2196 11.0602 16.7977 11.4821 16.7977 12.0026C16.7977 12.5231 17.2196 12.9451 17.7401 12.9451ZM24.1634 7.47913C24.1634 7.99964 23.7415 8.42159 23.2209 8.42159C22.7004 8.42159 22.2785 7.99964 22.2785 7.47913C22.2785 6.95863 22.7004 6.53667 23.2209 6.53667C23.7415 6.53667 24.1634 6.95863 24.1634 7.47913ZM25.1634 7.47913C25.1634 8.55192 24.2937 9.42159 23.2209 9.42159C22.1482 9.42159 21.2785 8.55192 21.2785 7.47913C21.2785 6.40634 22.1482 5.53667 23.2209 5.53667C24.2937 5.53667 25.1634 6.40634 25.1634 7.47913ZM6.76943 15.9985C7.04558 15.9985 7.26943 16.2223 7.26943 16.4985V17.4977V18.8716C7.26943 19.1477 7.04558 19.3716 6.76943 19.3716C6.49329 19.3716 6.26943 19.1477 6.26943 18.8716V17.4977V16.4985C6.26943 16.2223 6.49329 15.9985 6.76943 15.9985ZM18.2438 16.4985C18.2438 16.2223 18.0199 15.9985 17.7438 15.9985C17.4676 15.9985 17.2438 16.2223 17.2438 16.4985V17.4977V18.8716C17.2438 19.1477 17.4676 19.3716 17.7438 19.3716C18.0199 19.3716 18.2438 19.1477 18.2438 18.8716V17.4977V16.4985ZM23.2303 11.2611C23.5064 11.2611 23.7303 11.485 23.7303 11.7611V14.7552V18.8716C23.7303 19.1477 23.5064 19.3716 23.2303 19.3716C22.9542 19.3716 22.7303 19.1477 22.7303 18.8716V14.7552V11.7611C22.7303 11.485 22.9542 11.2611 23.2303 11.2611ZM12.7567 14.1676C12.7567 13.8915 12.5329 13.6676 12.2567 13.6676C11.9806 13.6676 11.7567 13.8915 11.7567 14.1676V16.1484V18.8717C11.7567 19.1478 11.9806 19.3717 12.2567 19.3717C12.5329 19.3717 12.7567 19.1478 12.7567 18.8717V16.1484V14.1676Z" fill="black"/>
</svg>
