<svg width="30" height="30" viewBox="0 0 30 30" fill="none" xmlns="http://www.w3.org/2000/svg">
<path fill-rule="evenodd" clip-rule="evenodd" d="M21.1695 15.2356L21.1415 15.2355L8.95554 15.2354L8.83239 15.2286C6.54791 15.1017 4.73385 13.208 4.73385 10.8913C4.73385 8.49207 6.67878 6.54714 9.07797 6.54714C9.38585 6.54714 9.68521 6.57901 9.97329 6.6393L10.7533 6.80253L11.0865 6.07858C11.8009 4.5264 13.3686 3.45215 15.1852 3.45215C17.5177 3.45215 19.4376 5.22403 19.6704 7.49456L19.7735 8.49986L20.7777 8.38621C20.9059 8.37169 21.0367 8.36419 21.1695 8.36419C23.067 8.36419 24.6052 9.9024 24.6052 11.7999C24.6052 13.658 23.1298 15.172 21.2871 15.2336L21.2327 15.2354L21.2056 15.2354L21.1976 15.2355L21.1695 15.2356ZM21.3205 16.2354V16.233C23.7004 16.1535 25.6052 14.1991 25.6052 11.7999C25.6052 9.35012 23.6193 7.36419 21.1695 7.36419C21.0309 7.36419 20.8938 7.37056 20.7584 7.383C20.7272 7.38586 20.6962 7.38905 20.6652 7.39256C20.6612 7.35394 20.6569 7.31544 20.6521 7.27707C20.3153 4.55734 17.9961 2.45215 15.1852 2.45215C12.9639 2.45215 11.0497 3.76681 10.1781 5.6605C9.82307 5.5862 9.45508 5.54714 9.07797 5.54714C6.12649 5.54714 3.73385 7.93978 3.73385 10.8913C3.73385 13.7417 5.96551 16.0709 8.77695 16.227V16.2354H14.1697V18.3169H5.92971C5.10128 18.3169 4.42971 18.9885 4.42971 19.8169V22.0545H2.14825C1.87211 22.0545 1.64825 22.2783 1.64825 22.5545V26.8837C1.64825 27.1598 1.87211 27.3837 2.14825 27.3837H7.80614C8.08229 27.3837 8.30614 27.1598 8.30614 26.8837V22.5545C8.30614 22.2783 8.08229 22.0545 7.80614 22.0545H5.42971V19.8169C5.42971 19.5408 5.65357 19.3169 5.92971 19.3169H14.1697V21.9341C12.8458 22.1701 11.8407 23.3272 11.8407 24.719C11.8407 26.2814 13.1072 27.5479 14.6696 27.5479C16.232 27.5479 17.4986 26.2814 17.4986 24.719C17.4986 23.3272 16.4936 22.1702 15.1697 21.9341V19.3169H23.4096C23.6857 19.3169 23.9096 19.5408 23.9096 19.8169V22.0545H21.5331C21.257 22.0545 21.0331 22.2783 21.0331 22.5545V26.8837C21.0331 27.1598 21.257 27.3837 21.5331 27.3837H27.191C27.4672 27.3837 27.691 27.1598 27.691 26.8837V22.5545C27.691 22.2783 27.4672 22.0545 27.191 22.0545H24.9096V19.8169C24.9096 18.9885 24.238 18.3169 23.4096 18.3169H15.1697V16.2354H21.1335L21.1695 16.2356L21.2056 16.2354H21.3205ZM2.64825 23.0545V26.3837H7.30614V23.0545H2.64825ZM22.0331 26.3837V23.0545H26.691V26.3837H22.0331ZM14.6696 26.5479C15.6797 26.5479 16.4986 25.7291 16.4986 24.719C16.4986 23.7089 15.6797 22.89 14.6696 22.89C13.6595 22.89 12.8407 23.7089 12.8407 24.719C12.8407 25.7291 13.6595 26.5479 14.6696 26.5479Z" fill="black"/>
</svg>
