<svg width="40" height="40" viewBox="0 0 40 40" fill="none" xmlns="http://www.w3.org/2000/svg">
<rect width="40" height="40" rx="20" fill="#3670F2"/>
<path fill-rule="evenodd" clip-rule="evenodd" d="M19.7763 8.26921C19.9215 8.22016 20.0789 8.22016 20.2242 8.26921L34.6528 13.1413C34.9373 13.2374 35.1288 13.5043 35.1288 13.8046C35.1288 14.1049 34.9373 14.3717 34.6528 14.4678L20.2242 19.3399C20.0789 19.3889 19.9215 19.3889 19.7763 19.3399L5.34764 14.4678C5.06312 14.3717 4.87158 14.1049 4.87158 13.8046C4.87158 13.5043 5.06312 13.2374 5.34764 13.1413L19.7763 8.26921ZM20.0002 8.93242L34.4288 13.8046L20.0002 18.6767L5.57158 13.8046L20.0002 8.93242ZM35.0375 16.3708C35.0375 16.1775 34.8808 16.0208 34.6875 16.0208C34.4942 16.0208 34.3375 16.1775 34.3375 16.3708V23.6023C34.3375 23.7956 34.4942 23.9523 34.6875 23.9523C34.8808 23.9523 35.0375 23.7956 35.0375 23.6023V16.3708ZM10.3656 27.3182V18.5109L9.66565 18.1248V27.3182C9.66565 28.008 10.0076 28.6322 10.5565 29.165C11.1043 29.6967 11.8787 30.1595 12.8071 30.5406C14.6656 31.3037 17.209 31.7675 20.0002 31.7675C22.7915 31.7675 25.3348 31.3037 27.1933 30.5406C28.1217 30.1595 28.8961 29.6967 29.4439 29.165C29.9928 28.6322 30.3348 28.008 30.3348 27.3182V18.1248L29.6348 18.5109V27.3182C29.6348 27.7604 29.418 28.2146 28.9564 28.6627C28.4937 29.1118 27.8059 29.5324 26.9274 29.8931C25.1722 30.6137 22.7233 31.0675 20.0002 31.0675C17.2771 31.0675 14.8282 30.6137 13.073 29.8931C12.1946 29.5324 11.5068 29.1118 11.0441 28.6627C10.5824 28.2146 10.3656 27.7604 10.3656 27.3182ZM20.3284 27.7704C19.0315 27.7704 18.262 26.6493 18.262 24.8602V24.8524C18.262 23.0634 19.0315 21.9462 20.3284 21.9462C21.6252 21.9462 22.4026 23.0634 22.4026 24.8524V24.8602C22.4026 26.6493 21.6252 27.7704 20.3284 27.7704ZM20.3284 27.1571C21.1877 27.1571 21.6956 26.2743 21.6956 24.8602V24.8524C21.6956 23.4384 21.1877 22.5634 20.3284 22.5634C19.469 22.5634 18.969 23.4384 18.969 24.8524V24.8602C18.969 26.2743 19.469 27.1571 20.3284 27.1571ZM16.2542 27.6766V22.786H16.2385L14.7463 23.8251V23.118L16.2463 22.0399H16.9338V27.6766H16.2542ZM24.5745 22.786V27.6766H25.2542V22.0399H24.5667L23.0667 23.118V23.8251L24.5588 22.786H24.5745Z" fill="white"/>
</svg>
